<!-- Generator: Adobe Illustrator 24.3.0, SVG Export Plug-In . SVG Version: 6.00 Build 0)  -->
<svg version="1.1" id="Guides" xmlns="http://www.w3.org/2000/svg" xmlns:xlink="http://www.w3.org/1999/xlink" x="0px" y="0px"
	 width="128px" height="96px" viewBox="0 0 128 96" enable-background="new 0 0 128 96" xml:space="preserve">
<g id="Слой_3">
	<path fill="#FFFFFF" d="M70.2787933,34.2434464h4.5524292l2.5767822,4.2788544l3.5026932-4.2788544h4.756897l-6.4207306,7.7361679
		l-0.3798447,4.1633263H74.882431l0.3794861-4.1633263L70.2787933,34.2434464z"/>
	<path fill="#FFFFFF" d="M99.9084702,49.2279968c-0.5972977-0.5305786-1.3692322-0.7958679-2.3123245-0.7958679h-7.5809555
		c-0.9473038,0-1.7024155,0.2652893-2.265686,0.7958679c-0.5674744,0.5305786-0.8831253,1.1766853-0.9469604,1.9468765
		l-0.5888672,6.5508575c-0.0810165,0.770195,0.1834335,1.4162331,0.7894821,1.9468803
		c0.6057053,0.5306511,1.378006,0.791584,2.3249664,0.791584h7.5812836c0.9427567,0,1.6978683-0.2651443,2.2569199-0.791584
		c0.5587082-0.5306473,0.8789291-1.1766853,0.9599457-1.9468803l0.5888596-6.5508575
		C100.7705612,50.4089584,100.5057526,49.7585754,99.9084702,49.2279968z M96.6407623,51.5599709l-0.5292511,5.7806664
		c-0.0042114,0.145546-0.0981979,0.2181511-0.2770691,0.2181511h-5.3201675c-0.1792145,0-0.2644424-0.0726051-0.2560349-0.2181511
		l0.4310455-4.6981163l-1.7578354-1.2964897h2.1201477c0.01297,0,0.0213928-0.0042839,0.0343628-0.0042839h5.3156052
		C96.58078,51.3417473,96.6575851,51.4144936,96.6407623,51.5599709z"/>
	<path fill="#FFFFFF" d="M127.2002029,35.0350342c-0.5930939-0.5305786-1.3566132-0.7915878-2.2909546-0.7915878h-10.162262
		l-1.0921631,11.8994942h3.9845886l0.349678-3.9023132h1.9328384l3.0632401,3.9023132h4.5734634l-3.4472733-3.9023132h0.0810242
		c1.1521149,0,2.0138626-0.2652893,2.5897369-0.800148c0.5759125-0.5348587,0.9003372-1.1724052,0.9767761-1.9083672
		l0.2304382-2.5801506C128.057724,36.2031593,127.7974854,35.5656128,127.2002029,35.0350342z M123.9665146,37.3327789
		l-0.1750107,1.9511566c-0.0042114,0.1412048-0.0982056,0.2139435-0.2732315,0.2139435h-5.264389l0.1066208-1.1724052
		l-1.6298218-1.2066383h1.7406616v-0.0042763h5.2647324C123.9065323,37.1188354,123.9833374,37.1915779,123.9665146,37.3327789z"/>
	<path fill="#FFFFFF" d="M70.0101471,51.166317l-0.0936508,1.0697174H65.889122l0.0554047-0.6846199
		c0.0168381-0.1454811-0.059967-0.2182236-0.2388458-0.2182236h-4.9105034c-0.0129776,0-0.0213966,0.0042801-0.0343742,0.0042801
		h-1.877079l1.5316162,1.1296158l-0.0385818,0.4193306c-0.008419,0.1455536,0.0768089,0.2181511,0.2560349,0.2181511h5.836422
		c0.9469528,0,1.7192612,0.2609406,2.3253098,0.7915878c0.6057053,0.5306473,0.8701553,1.1766853,0.7891388,1.9468803
		l-0.1578217,1.8700714c-0.0810242,0.770195-0.3840561,1.4162292-0.9087372,1.9468765
		c-0.5246887,0.5260887-1.2587585,0.7915916-2.205719,0.7915916h-7.2740479c-0.9473114,0-1.7192612-0.2612915-2.3253136-0.7915916
		c-0.6057014-0.5306473-0.8701477-1.1766815-0.7891312-1.9468765l0.0939941-1.0697174h4.0273781l-0.0768013,0.6846199
		c-0.00877,0.145195,0.0768013,0.2181473,0.2560272,0.2181473h4.910511c0.1788712,0,0.2728653-0.0729523,0.2770767-0.2181473
		l0.1238022-1.3352165c0.0171814-0.1455498-0.0596237-0.2181473-0.2388458-0.2181473H59.45961
		c-0.9469566,0-1.7192574-0.2609406-2.3249626-0.7915916c-0.6060524-0.5306473-0.8704987-1.1766815-0.7894821-1.9468765
		l0.1578255-1.8698616c0.0641861-0.770195,0.379837-1.4163017,0.9473114-1.9468765
		c0.5629158-0.5305786,1.3183823-0.7958679,2.2653427-0.7958679h7.1716385c0.942749,0,1.7150497,0.2652893,2.3123322,0.7958679
		C69.7969055,49.7500153,70.0655594,50.4004021,70.0101471,51.166317z"/>
	<path fill="#FFFFFF" d="M109.5418549,52.7538414l4.6930618,7.7019424h-4.6032791l-3.0846176-5.3485718l-0.6741028,0.5348549
		l-0.4352493,4.8137169h-4.0231857l1.1051483-12.0322113h4.0273895l-0.290062,3.1920242l3.9249649-3.1920242h4.7867126
		L109.5418549,52.7538414z"/>
	<path fill="#FFFFFF" d="M69.8951035,34.7055626c-0.3500214-0.3080788-0.797905-0.4621162-1.335556-0.4621162h-9.0827522
		c-0.9343338,0-1.647007,0.2610092-2.1418762,0.7830276c-0.4906731,0.5220222-0.7719498,1.1638527-0.836132,1.9254875
		l-0.5801086,6.4781876c-0.0768013,0.7616348,0.1792259,1.4034615,0.7807198,1.9254837
		c0.5972824,0.5220184,1.3650246,0.7830276,2.2993584,0.7830276h8.4731903c0.5415115,0,1.0153427-0.1540375,1.4246445-0.4621124
		c0.4096527-0.3080788,0.6316528-0.6846199,0.6740952-1.1253395l0.234642-2.6614494h-3.9846039l-0.1150436,1.2408676
		c-0.0045547,0.089859-0.059967,0.1326447-0.1665878,0.1326447h-5.3671608c-0.1746597,0-0.260231-0.0727425-0.2556763-0.2139397
		l0.4306946-4.6896286l-1.6810303-1.2408676h2.0352554c0.0126266,0,0.0213966-0.0042763,0.0340233-0.0042763h5.367157
		c0.1066208,0,0.1536179,0.0427856,0.1364365,0.1326408l-0.0939941,1.2408714h3.9849472l0.2346344-2.6614494
		C70.3983994,35.3901787,70.2447815,35.0136414,69.8951035,34.7055626z"/>
	<path fill="#FFFFFF" d="M85.7058334,48.4278488l-1.1005859,12.027935h-4.0273819l0.4180603-4.6085396h-7.5640945
		l1.5231934,1.1254807l-0.3159943,3.4830589h-4.0273895l1.1051331-12.027935h4.0273895l-0.4180679,4.5097733h5.9342804
		l0.4226227-4.5097733H85.7058334z"/>
	<path fill="#FFFFFF" d="M113.4713821,34.2434464h-10.8195343c-0.814743,0-1.4165955,0.4835091-1.4804077,1.1895218
		l-0.7807159,8.5063629c-0.102417,1.0911102,1.0791702,2.2036095,2.3421478,2.2036095h9.6505661l0.2644424-2.8753891h-8.2083817
		l0.0894394-0.9712982l-1.2159729-0.8985634h2.5557327h6.0366974l0.2220078-2.4132729h-7.2954483l0.0638428-0.7017326
		l-1.56987-1.1595688h1.6768341v-0.0042801h8.2083817L113.4713821,34.2434464z"/>
	<path fill="#FFFFFF" d="M119.4354858,51.3545876h-1.697876l1.5870361,1.1724052l-0.0641708,0.7101517h7.3764648
		l-0.2216644,2.4389458h-8.6864243l1.2289352,0.9073296l-0.0897675,0.9799271h8.2981644l-0.2690125,2.9050598h-9.7568436
		c-1.275589,0-2.4701614-1.1251259-2.3677444-2.2292137l0.7891312-8.6004257
		c0.0641861-0.7145691,0.6741028-1.2023582,1.4976044-1.2023582h10.9387741l-0.2644501,2.9138985h-8.2981567V51.3545876z"/>
	<path fill="#FFFFFF" d="M99.119339,35.7624397c-0.2048264-0.4749527-0.5632553-0.8472137-1.0795288-1.1167831
		c-0.5159302-0.2695656-1.1261902-0.4064903-1.8300934-0.4064903h-9.5309753l-1.0921631,11.8994942h10.8703995
		c0.6912842,0,1.2713852-0.1754303,1.7452087-0.5305748c0.4692688-0.3508682,0.8319244-0.7915878,1.0791855-1.3136101
		c0.2476044-0.5220184,0.3840408-1.0868301,0.4012299-1.6858673c0.0168381-0.599041-0.0813675-1.1552925-0.2988129-1.6601982
		c-0.2560349-0.5947609-0.6355286-1.0354805-1.1391525-1.3221626c0.2177887-0.1540413,0.4138412-0.3850975,0.5846481-0.6931763
		c0.1704559-0.3080788,0.2984695-0.6503868,0.3794937-1.022644c0.0813675-0.3765411,0.1195984-0.7530823,0.1111679-1.1338997
		C99.3153839,36.3999901,99.2473526,36.0619583,99.119339,35.7624397z M95.6040039,42.176445l-0.030159,0.2652855
		c-0.012619,0.2224998-0.127655,0.4150505-0.3412476,0.5776482c-0.2132416,0.1668739-0.4605026,0.2481728-0.7463379,0.2481728
		h-4.6548386l0.1024017-1.0697136l-1.1647568-0.8600502h1.2457733v-0.0042801h4.6548386
		c0.4478683,0,0.7379303,0.1583176,0.8785706,0.4792328C95.5910263,41.9111557,95.608223,42.0352402,95.6040039,42.176445z
		 M95.305191,37.9446564l-0.0213928,0.2310562c-0.0214005,0.23106-0.1406403,0.427887-0.3538818,0.5947609
		c-0.2135773,0.1668739-0.4608536,0.2481728-0.7466965,0.2481728h-3.9635544l0.0810165-0.9199524l-1.3436279-0.9926949h1.4292145
		v-0.0085564h3.9631958c0.4482269,0,0.7466965,0.1754341,0.9003143,0.5305748
		C95.3009872,37.7521057,95.3223724,37.8590775,95.305191,37.9446564z"/>
</g>
<g id="Слой_2_1_">
	<path fill="#FFFFFF" d="M24.757431,62.4794693v5.9563751l-5.1665096-2.9951935v-0.0042114l-5.1025-2.9653893l-2.5512819-1.4846191
		l-2.6493855-1.5361786l-1.5187817-0.8859367V37.418354l4.1852465-2.4303894l12.79041-7.4323692v6.0075111l-7.5983009,4.4371719
		l-4.2279301,2.4688988v15.1301079l1.5700235,0.915741L24.757431,62.4794693z"/>
	<path fill="#FFFFFF" d="M52.0491257,32.9555092l-0.0171852,30.1016045L26.3359432,77.934906l-0.298645,0.1711578
		l-6.442131-3.7268219l-0.0042782-5.9735565l6.335474,3.6671829l0.1194592,0.0683975l2.551281-1.4804153l0.3924999-0.2269211
		l17.9056072-10.3762207l0.0129776-24.1069984l-5.1325264-2.9738045l-6.7279739-3.8980389l-0.008419-5.5539532v-0.0770187
		v-0.3337517l9.1343117,5.2843857L52.0491257,32.9555092z"/>
	<path fill="#FFFFFF" d="M32.4922638,21.625103v5.97756l-2.3166122-1.3392811l-4.138319-2.39188L5.2091665,35.967823
		L5.2049208,60.0577087l4.0828695,2.3747597l5.1963539,3.0208092l2.5598087,1.4849701l0.0085201,6.0030212l-7.768961-4.5096283
		L0,63.0486984l0.0213308-30.0889091l26.0117264-15.0658531L32.4922638,21.625103z"/>
	<path fill="#FFFFFF" d="M32.4922638,36.5882568v8.827282l11.821949,0.0256691v13.1532707l-16.9926949,9.837162l0.0127659-5.9735641
		l11.8347874-6.8630028l-0.0213966-5.0106812l-11.8261566,0.0085602V27.5427589l16.9926949,9.8969917v6.0246277
		L32.4922638,36.5882568z"/>
</g>
</svg>
