<?xml version="1.0" encoding="utf-8"?>
<!-- Generator: Adobe Illustrator 24.3.0, SVG Export Plug-In . SVG Version: 6.00 Build 0)  -->
<svg version="1.1" id="Слой_1" xmlns="http://www.w3.org/2000/svg" xmlns:xlink="http://www.w3.org/1999/xlink" x="0px" y="0px"
	 width="32px" height="13px" viewBox="0 0 32 13" enable-background="new 0 0 32 13" xml:space="preserve">
<g id="a8d2f8b0-ee80-471b-8ab1-ae37af7e45f9">
	<g id="f6adc053-93f1-4e60-9e8e-ae4b0829108d">
		<g id="a7cb674f-30a3-4df9-8f36-b8107a593891">
			<g id="b801ed1c-30f6-4532-847e-ba5b2bd459ac">
				<g id="b2fdcdde-652f-44c1-a111-5be977c79a29">
					<g id="be6da5f7-590d-4214-9510-b721237ab209">
						
							<linearGradient id="a4fa62e7-f5dc-4859-9b57-124ee524ddd4_1_" gradientUnits="userSpaceOnUse" x1="17.8052177" y1="13.95858" x2="13.8292656" y2="2.4607134" gradientTransform="matrix(1 0 0 -1 0 15.5184174)">
							<stop  offset="0" style="stop-color:#0E0B16"/>
							<stop  offset="1" style="stop-color:#20213A"/>
						</linearGradient>
						
							<linearGradient id="a4fa62e7-f5dc-4859-9b57-124ee524ddd4_2_" gradientUnits="userSpaceOnUse" x1="16.0021439" y1="13.8385963" x2="16.0021439" y2="3.6514962" gradientTransform="matrix(1 0 0 -1 0 15.5184174)">
							<stop  offset="0" style="stop-color:#645C5E"/>
							<stop  offset="1" style="stop-color:#54474D"/>
						</linearGradient>
						
							<polygon id="a4fa62e7-f5dc-4859-9b57-124ee524ddd4" opacity="0.73" fill="url(#a4fa62e7-f5dc-4859-9b57-124ee524ddd4_1_)" stroke="url(#a4fa62e7-f5dc-4859-9b57-124ee524ddd4_2_)" stroke-width="0.1" stroke-miterlimit="10" enable-background="new    " points="
							29.0161991,11.8169212 3.0887001,11.8169212 0.0024,6.7733207 3.0887001,1.7298208 29.0161991,1.7298208 
							32.0023994,6.7733207 						"/>
						<g id="b1bf4c85-3528-4b01-9ab5-019eb4a62b6e">
							
								<linearGradient id="SVGID_1_" gradientUnits="userSpaceOnUse" x1="16.0524006" y1="13.895072" x2="16.0524006" y2="3.1609094" gradientTransform="matrix(1 0 0 -1 0 15.5184174)">
								<stop  offset="0" style="stop-color:#231324"/>
								<stop  offset="0.49721" style="stop-color:#151324"/>
								<stop  offset="0.85754" style="stop-color:#362231"/>
							</linearGradient>
							<polygon fill="url(#SVGID_1_)" points="28.6513004,11.223321 3.4535,11.223321 0.7246,6.7733207 3.4535,2.3233209 
								28.6513004,2.3233209 31.3802013,6.7733207 							"/>
							
								<linearGradient id="SVGID_2_" gradientUnits="userSpaceOnUse" x1="16.0524235" y1="13.2950735" x2="16.0524235" y2="4.1950636" gradientTransform="matrix(1 0 0 -1 0 15.5184174)">
								<stop  offset="0" style="stop-color:#C0957E"/>
								<stop  offset="0.59777" style="stop-color:#776056"/>
								<stop  offset="1" style="stop-color:#705947"/>
							</linearGradient>
							<path fill="url(#SVGID_2_)" d="M28.6513233,2.3233438l2.728857,4.4499998l-2.728857,4.4500003H3.453521L0.724664,6.7733436
								l2.728857-4.4499998h25.1977978 M28.7072773,2.2233436H3.3975151l-0.029248,0.0477052L0.63941,6.7210488l-0.032031,0.0523
								L0.63941,6.8256483l2.728857,4.4499998l0.029248,0.0477057h25.3097649l0.0293007-0.0477057l2.728857-4.4499998
								l0.032032-0.0522995l-0.032032-0.0523l-2.728857-4.4499998l-0.0293007-0.0477052H28.7072773z"/>
						</g>
						<g id="ae554976-777d-4953-9d01-c92cc3ea7d05">
							<polygon opacity="0.4" fill="#0A0916" enable-background="new    " points="5.9134998,6.8792205 3.7024,10.651021 
								28.3802013,10.651021 26.5134983,6.896821 28.6023998,3.6011209 3.8913,3.6011209 							"/>
							
								<linearGradient id="SVGID_3_" gradientUnits="userSpaceOnUse" x1="16.0524502" y1="11.9172935" x2="16.0524502" y2="4.5161905" gradientTransform="matrix(1 0 0 -1 0 15.5184174)">
								<stop  offset="0" style="stop-color:#44203B"/>
								<stop  offset="1" style="stop-color:#BE7283"/>
							</linearGradient>
							<polygon fill="url(#SVGID_3_)" points="28.137001,10.1233206 3.9679,10.1233206 5.9134998,6.7733207 3.9679,3.423321 
								28.137001,3.423321 26.1913013,6.7733207 							"/>
							
								<linearGradient id="SVGID_4_" gradientUnits="userSpaceOnUse" x1="3.7940998" y1="8.7450733" x2="28.3107014" y2="8.7450733" gradientTransform="matrix(1 0 0 -1 0 15.5184174)">
								<stop  offset="0" style="stop-color:#241B3B"/>
								<stop  offset="0.25419" style="stop-color:#9C7393"/>
								<stop  offset="1" style="stop-color:#59415E"/>
							</linearGradient>
							<path fill="url(#SVGID_4_)" d="M28.1369667,3.4233439l-1.9456539,3.3499997l1.9456539,3.3499999H3.967828L5.913528,6.7733436
								L3.967828,3.4233437h24.1691418 M28.3107014,3.3233438H3.7940998l0.087256,0.1502438L5.7979064,6.773344
								l-1.9165533,3.2997551l-0.0872533,0.1502447h24.5166016l-0.0872574-0.1502447l-1.9165001-3.2997556l1.9165001-3.2997558
								C28.223444,3.4735878,28.3107014,3.3233438,28.3107014,3.3233438z"/>
							
								<linearGradient id="SVGID_5_" gradientUnits="userSpaceOnUse" x1="15.9254436" y1="3.6033072" x2="16.3159351" y2="9.1135826" gradientTransform="matrix(1 0 0 -1 0 15.5184174)">
								<stop  offset="0.00559" style="stop-color:#D1BBFF;stop-opacity:0"/>
								<stop  offset="1" style="stop-color:#DBBFAC;stop-opacity:0.3"/>
							</linearGradient>
							<path opacity="0.52" fill="url(#SVGID_5_)" enable-background="new    " d="M26.7969303,7.8160858
								c-0.6999989-0.4120002-2.5075226-1.4508252-3.2092686-1.2039323
								c-0.8525639,0.2999549-2.1525497,0.6206002-3.694273-0.7130909c-2.6738777-2.313077-5.0322866,0.6278-5.840971,0.8742833
								c-1.8699989,0.5699997-3.3499994,2.4499998-5.2999992,1.1999998
								c-1.3970513-0.895546-1.9908414-0.4990301-2.9968472-0.9280324l-1.7881503,3.078033h24.1699944L26.7969303,7.8160858z"/>
							
								<linearGradient id="SVGID_6_" gradientUnits="userSpaceOnUse" x1="16.0521507" y1="5.4654212" x2="16.0541019" y2="5.6984668" gradientTransform="matrix(1 0 0 -1 0 15.5184174)">
								<stop  offset="0" style="stop-color:#CDC8E2"/>
								<stop  offset="1" style="stop-color:#EFC8D6;stop-opacity:0"/>
							</linearGradient>
							<polygon opacity="0.57" fill="url(#SVGID_6_)" enable-background="new    " points="27.6023998,9.8233204 
								5.0023999,9.8233204 4.1023998,10.0233212 28.0023994,10.0233212 							"/>
						</g>
					</g>
					<g id="b05506ae-c58f-425b-9ecc-f6d140a45806">
						
							<linearGradient id="SVGID_7_" gradientUnits="userSpaceOnUse" x1="16.0728188" y1="12.0946903" x2="16.0728188" y2="2.7771895" gradientTransform="matrix(1 0 0 -1 0 15.5184174)">
							<stop  offset="0" style="stop-color:#0A081C"/>
							<stop  offset="0.8392299" style="stop-color:#0A081C;stop-opacity:0.4"/>
							<stop  offset="1" style="stop-color:#0A081C;stop-opacity:0.2"/>
						</linearGradient>
						<path opacity="0.34" fill="url(#SVGID_7_)" enable-background="new    " d="M12.5774183,4.0517287
							c-1.379056,0.0045791-1.4977703,1.6441789-1.4625101,2.5333328s0.165328,1.8790288,0.1830654,2.5891261
							c0.0177364,0.7100964,0.7169342,1.0275402,1.4695921,1.4108744c0.6055584,0.3084145,0.1915598,0.9934998,0.2973413,1.2742882
							c0.2115622,0,0.5140762-0.0026007,0.8125114-0.0026007c1.1703424,0,5.2909126,0.0012999,5.2909126,0.0012999
							s0.3321953,0.0670176,0.8594666-0.7474604c0.512846-0.7921934,0.437109-2.3088598,0.437109-2.9255276
							c0-0.5135746-0.0499992-1.3951559,0.075737-2.2999997c0.1268387-0.9127603,0.8887463-1.0635462,0.2305565-2.280282
							s-2.7241249-1.1925001-2.7241249-1.1925001s-1.8299828-1.1975228-3.6696568-0.8388488
							C13.4834824,1.7477208,13.098918,4.0499969,12.5774183,4.0517287z"/>
						<g opacity="0.77">
							
								<radialGradient id="SVGID_8_" cx="14.3774185" cy="9.028512" r="3.4499998" gradientTransform="matrix(1 0 0 -1 0 15.5184174)" gradientUnits="userSpaceOnUse">
								<stop  offset="0" style="stop-color:#0D1142"/>
								<stop  offset="1" style="stop-color:#0D1142;stop-opacity:0"/>
							</radialGradient>
							<circle fill="url(#SVGID_8_)" cx="14.3774185" cy="6.4899058" r="3.4499998"/>
						</g>
						<g opacity="0.77">
							
								<radialGradient id="SVGID_9_" cx="14.5385294" cy="6.7698336" r="3.45" gradientTransform="matrix(1 0 0 -1 0 15.5184174)" gradientUnits="userSpaceOnUse">
								<stop  offset="0" style="stop-color:#3B1142"/>
								<stop  offset="1" style="stop-color:#0D1142;stop-opacity:0"/>
							</radialGradient>
							<circle fill="url(#SVGID_9_)" cx="14.5385294" cy="8.7485838" r="3.45"/>
						</g>
						<g opacity="0.77">
							
								<radialGradient id="SVGID_10_" cx="17.7274189" cy="9.0558481" r="3.45" gradientTransform="matrix(1 0 0 -1 0 15.5184174)" gradientUnits="userSpaceOnUse">
								<stop  offset="0" style="stop-color:#3B1142"/>
								<stop  offset="1" style="stop-color:#0D1142;stop-opacity:0"/>
							</radialGradient>
							<circle fill="url(#SVGID_10_)" cx="17.7274189" cy="6.4625692" r="3.45"/>
						</g>
						<g opacity="0.77">
							
								<radialGradient id="SVGID_11_" cx="17.4774189" cy="6.7698336" r="3.45" gradientTransform="matrix(1 0 0 -1 0 15.5184174)" gradientUnits="userSpaceOnUse">
								<stop  offset="0" style="stop-color:#3B1142"/>
								<stop  offset="1" style="stop-color:#0D1142;stop-opacity:0"/>
							</radialGradient>
							<circle fill="url(#SVGID_11_)" cx="17.4774189" cy="8.7485838" r="3.45"/>
						</g>
						<g id="a539a843-67ea-4504-a422-2d4f19b035b9">
							
								<linearGradient id="SVGID_12_" gradientUnits="userSpaceOnUse" x1="14.2152929" y1="14.443078" x2="18.9152927" y2="1.7430772" gradientTransform="matrix(1 0 0 -1 0 15.5184174)">
								<stop  offset="0" style="stop-color:#C2AEB8"/>
								<stop  offset="0.26213" style="stop-color:#CEC7C5"/>
								<stop  offset="0.47762" style="stop-color:#9F8B8A"/>
								<stop  offset="0.50727" style="stop-color:#A48E8E"/>
								<stop  offset="0.70715" style="stop-color:#C2A1A4"/>
								<stop  offset="0.8783901" style="stop-color:#D4ADB1"/>
								<stop  offset="1" style="stop-color:#DBB1B6"/>
							</linearGradient>
							<path fill-rule="evenodd" clip-rule="evenodd" fill="url(#SVGID_12_)" d="M19.0042667,1.9086709l-0.0000248-0.000021
								c-0.4078007-0.493263-0.8661556-1.0476241-2.3684063-1.0476241c-1.7051554,0-2.5728264,0.714233-2.6615257,1.5165322
								c-0.0179691,0.1624281-0.0363369,0.304409-0.0551853,0.450135c-0.0742445,0.5740809-0.1559992,1.2063198-0.250473,3.3759761
								c-0.1184349,2.7204356-0.0097427,4.8829331,0.177454,5.5482879s0.6112614,0.8221226,1.0646105,0.8221226
								s0.8281937-0.186264,0.8281937-0.7437248c0-0.1559181-0.0061769-0.3156929-0.0122728-0.473341V11.356988
								c-0.0157061-0.4060707-0.0308275-0.7979784,0.0614929-1.0726767c0.1281996-0.38134,0.1871996-0.5187273,0.7292709-0.4015999
								c0.5420723,0.1171265,1.9606857,0.3522692,2.068924,0.2743521c0,0,0.0736332,0.1285763-0.2910156,0.2461329
								c-0.3646221,0.1175823-0.4076424,0.1598549-0.436924,0.3848534c-0.0292816,0.2250252-0.0496731,0.8661537,0.088726,1.1008682
								c0.138401,0.2346869,0.5615616,0.3227472,0.8476791,0.3033943c0.2861176-0.0193787,0.6405449-0.0687075,0.7492352-0.6948767
								c0.0302944-0.1745777,0.0704918-0.3720217,0.1140175-0.5857058v-0.0000534
								c0.1385193-0.616271,0.2354317-1.2411613,0.2900829-1.8704405c0.0594444-0.9101849,0.0984955-2.9841938,0-3.2778997
								c-0.4239063,0.1046071-0.8558559,0.1733966-1.2912865,0.2056432
								c-0.8477001,0.0783715-1.9517937,0.038733-2.5927887-0.4209781c-0.640996-0.4597111-0.6999903-1.1642504-0.6405458-1.810225
								c0.0594435-0.6459999,0.0989227-0.9612722,0.8428335-1.3650632c0.7833633-0.4258101,2.9028416-0.2690492,2.9028416-0.2690492
								C19.1135197,2.0407939,19.0593472,1.9752889,19.0042667,1.9086709z M16.5819283,2.6638858
								c-0.5667515,0.266475-0.5671787,0.8682752-0.5667515,1.2337761c0.0004253,0.3655269,0.0382252,1.3323872,1.2745914,1.4505293
								c1.2363415,0.1181417,1.9543762-0.0395322,2.6528473-0.4343681c0.6984692-0.3948102,0.7201385-1.1818213,0.3968334-1.5491004
								c-0.6611004-0.7501299-0.9963303-0.7847719-2.4548721-0.898468
								C17.885006,2.4662499,17.1487083,2.397409,16.5819283,2.6638858z M13.2121363,7.0415521
								c0.0010757-0.9084144,0.0481215-1.8161922,0.1409559-2.719851l-0.9069147,0.0387602
								c-0.4158726,0.0174885-0.4688597,0.3568745-0.5629911,0.9597511c-0.0091009,0.0583-0.0185833,0.1190472-0.0288162,0.1821918
								c-0.1160927,0.7164388-0.145772,2.5069132,0,3.5229931c0.145771,1.0160809,1.4550896,0.8806362,1.4550896,0.8806362
								S13.2121363,8.5223484,13.2121363,7.0415521z"/>
						</g>
						<g opacity="0.75">
							
								<radialGradient id="SVGID_13_" cx="15.0274181" cy="12.6424961" r="1.55" gradientTransform="matrix(1 0 0 -1 0 15.5184174)" gradientUnits="userSpaceOnUse">
								<stop  offset="0" style="stop-color:#E6EEFF"/>
								<stop  offset="1" style="stop-color:#E6EEFF;stop-opacity:0"/>
							</radialGradient>
							<circle fill="url(#SVGID_13_)" cx="15.0274181" cy="2.8759208" r="1.55"/>
						</g>
						<g opacity="0.37">
							
								<radialGradient id="SVGID_14_" cx="15.0274181" cy="12.6424961" r="2.45" gradientTransform="matrix(1 0 0 -1 0 15.5184174)" gradientUnits="userSpaceOnUse">
								<stop  offset="0" style="stop-color:#E6EEFF"/>
								<stop  offset="1" style="stop-color:#E6EEFF;stop-opacity:0"/>
							</radialGradient>
							<circle fill="url(#SVGID_14_)" cx="15.0274181" cy="2.8759208" r="2.45"/>
						</g>
					</g>
				</g>
			</g>
		</g>
	</g>
</g>
</svg>
