<?xml version="1.0" encoding="utf-8"?>
<!-- Generator: Adobe Illustrator 24.3.0, SVG Export Plug-In . SVG Version: 6.00 Build 0)  -->
<svg version="1.1" id="Слой_1" xmlns="http://www.w3.org/2000/svg" xmlns:xlink="http://www.w3.org/1999/xlink" x="0px" y="0px"
	 width="32px" height="13px" viewBox="0 0 32 13" enable-background="new 0 0 32 13" xml:space="preserve">
<g id="b9a0ceb3-53dc-4fab-af8e-da9c826f9f70">
	<g id="f9fac1dd-e90f-41ab-b1a6-6bfe8647b4f0">
		<g id="a0943f4e-c783-407c-b0d8-5035006778be">
			<g id="fd5c542a-21ac-4082-be83-c75ee57c7100">
				<g id="bfe81431-2a0a-4d41-a442-b7379119d806">
					<g id="a5f91134-d85c-4dae-a10e-4f2dfa565f15">
						
							<linearGradient id="SVGID_1_" gradientUnits="userSpaceOnUse" x1="17.8052311" y1="13.9420166" x2="13.829278" y2="2.4441485" gradientTransform="matrix(1 0 0 -1 0 15.5184174)">
							<stop  offset="0" style="stop-color:#0E0B16"/>
							<stop  offset="1" style="stop-color:#20213A"/>
						</linearGradient>
						
							<linearGradient id="SVGID_2_" gradientUnits="userSpaceOnUse" x1="16.0021439" y1="13.8220968" x2="16.0021439" y2="3.6349967" gradientTransform="matrix(1 0 0 -1 0 15.5184174)">
							<stop  offset="0" style="stop-color:#5A5C7D"/>
							<stop  offset="1" style="stop-color:#404759"/>
						</linearGradient>
						
							<polygon opacity="0.4" fill="url(#SVGID_1_)" stroke="url(#SVGID_2_)" stroke-width="0.1" stroke-miterlimit="10" enable-background="new    " points="
							29.0161991,11.8334208 3.0887001,11.8334208 0.0024,6.7899208 3.0887001,1.7463208 29.0161991,1.7463208 
							32.0023994,6.7899208 						"/>
						
							<linearGradient id="SVGID_3_" gradientUnits="userSpaceOnUse" x1="16.0524006" y1="13.8785114" x2="16.0524006" y2="3.1443501" gradientTransform="matrix(1 0 0 -1 0 15.5184174)">
							<stop  offset="0" style="stop-color:#151324"/>
							<stop  offset="0.49721" style="stop-color:#151324"/>
							<stop  offset="0.7904999" style="stop-color:#32304E"/>
							<stop  offset="1" style="stop-color:#111B39"/>
						</linearGradient>
						<polygon fill="url(#SVGID_3_)" points="28.6513004,11.2399206 3.4535,11.2399206 0.7246,6.7899208 3.4535,2.3399208 
							28.6513004,2.3399208 31.3802013,6.7899208 						"/>
						
							<linearGradient id="SVGID_4_" gradientUnits="userSpaceOnUse" x1="16.0524139" y1="13.2785149" x2="16.0524139" y2="4.178515" gradientTransform="matrix(1 0 0 -1 0 15.5184174)">
							<stop  offset="0" style="stop-color:#90909A"/>
							<stop  offset="0.59777" style="stop-color:#556080"/>
							<stop  offset="1" style="stop-color:#535972"/>
						</linearGradient>
						<path fill="url(#SVGID_4_)" d="M28.6513405,2.3399029l2.728857,4.4499998l-2.728857,4.4499998H3.4535389L0.7246319,6.7899027
							l2.7289071-4.4500003h25.1977997 M28.7073441,2.2399025H3.3975818L3.3682821,2.2876024L0.639375,6.7376022l-0.0320311,0.0523
							L0.639375,6.8421974l2.7289071,4.4499998l0.0292997,0.0477057H28.707346l0.0292492-0.0477057l2.728857-4.4499998
							l0.032032-0.0522947l-0.032032-0.0523l-2.728857-4.4499998L28.707346,2.2399027L28.7073441,2.2399025z"/>
						<polygon opacity="0.4" fill="#0A0916" enable-background="new    " points="1.9135001,6.8958206 3.7024,10.6676207 
							28.3802013,10.6676207 30.5134983,6.9134207 28.6023998,3.6177208 3.8913,3.6177208 						"/>
						
							<linearGradient id="SVGID_5_" gradientUnits="userSpaceOnUse" x1="16.0524006" y1="11.9007339" x2="16.0524006" y2="4.4996305" gradientTransform="matrix(1 0 0 -1 0 15.5184174)">
							<stop  offset="0" style="stop-color:#151B36"/>
							<stop  offset="1" style="stop-color:#4B6090"/>
						</linearGradient>
						<polygon fill="url(#SVGID_5_)" points="28.137001,10.1399212 3.9679,10.1399212 1.9135001,6.7899208 3.9679,3.4399209 
							28.137001,3.4399209 30.1913013,6.7899208 						"/>
						
							<linearGradient id="SVGID_6_" gradientUnits="userSpaceOnUse" x1="1.7962573" y1="8.7285147" x2="30.3086185" y2="8.7285147" gradientTransform="matrix(1 0 0 -1 0 15.5184174)">
							<stop  offset="0" style="stop-color:#151B3B"/>
							<stop  offset="0.25419" style="stop-color:#6D7393"/>
							<stop  offset="1" style="stop-color:#37415E"/>
						</linearGradient>
						<path fill="url(#SVGID_6_)" d="M28.1369858,3.4399028l2.0543461,3.3499999l-2.0543461,3.3499994H3.9678452
							L1.9135453,6.7899027l2.0542998-3.3500001h24.1691399 M28.1929417,3.3399024H3.9118881l-0.0293,0.0476999L1.8282883,6.7376022
							l-0.0320311,0.0523l0.0320311,0.0522952l2.0542998,3.3500004l0.0293,0.0477047h24.2810535l0.0293007-0.0477047
							l2.0543461-3.3500004l0.0320301-0.0522947l-0.0320301-0.0523l-2.0543461-3.3500001
							C28.2222424,3.3876026,28.1929417,3.3399026,28.1929417,3.3399024z"/>
						
							<linearGradient id="SVGID_7_" gradientUnits="userSpaceOnUse" x1="16.0521526" y1="5.4488616" x2="16.0541019" y2="5.6819062" gradientTransform="matrix(1 0 0 -1 0 15.5184174)">
							<stop  offset="0" style="stop-color:#6D779F"/>
							<stop  offset="1" style="stop-color:#5E6593;stop-opacity:0"/>
						</linearGradient>
						<polygon fill="url(#SVGID_7_)" points="27.6023998,9.839921 5.0023999,9.839921 4.1023998,10.0399208 28.0023994,10.0399208 
													"/>
						
							<linearGradient id="SVGID_8_" gradientUnits="userSpaceOnUse" x1="-0.073352" y1="-9930.4648438" x2="33.1989441" y2="-9930.4648438" gradientTransform="matrix(1 0 0 1 0 9938.0302734)">
							<stop  offset="0.00559" style="stop-color:#5E6D95;stop-opacity:0.5"/>
							<stop  offset="1" style="stop-color:#414881;stop-opacity:0.4"/>
						</linearGradient>
						<path opacity="0.34" fill="url(#SVGID_8_)" enable-background="new    " d="M29.683424,7.6179094
							c-0.7000008-0.4120007-4.0292606-1.2749004-4.7310066-1.0279999c-0.852562,0.2999539-1.8054428,0.6057677-3.347168-0.7279272
							c-2.6738758-2.3130803-6.7441492,0.6814384-7.5528316,0.9279237
							c-1.8699989,0.5700002-3.3499994,2.4499993-5.2999992,1.1999993c-1.3970513-0.895546-5.6500006-0.4720001-6.6560059-0.901
							l1.8710089,3.0510006h24.1699944L29.683424,7.6179094z"/>
					</g>
					<g id="bf569316-9e25-430c-bf62-161be5df220f">
						
							<linearGradient id="SVGID_9_" gradientUnits="userSpaceOnUse" x1="15.9478197" y1="12.0946903" x2="15.9478197" y2="2.7771895" gradientTransform="matrix(1 0 0 -1 0 15.5184174)">
							<stop  offset="0" style="stop-color:#0A081C"/>
							<stop  offset="0.8392299" style="stop-color:#0A081C;stop-opacity:0.4"/>
							<stop  offset="1" style="stop-color:#0A081C;stop-opacity:0.2"/>
						</linearGradient>
						<path opacity="0.34" fill="url(#SVGID_9_)" enable-background="new    " d="M12.4524183,4.0517287
							c-1.379056,0.0045791-1.4977703,1.6441789-1.4625101,2.5333328s0.165328,1.8790288,0.1830654,2.5891261
							c0.0177364,0.7100964,0.7169342,1.0275402,1.469593,1.4108744c0.6055574,0.3084145,0.1915607,0.9934998,0.2973423,1.2742882
							c0.2115612,0,0.5140762-0.0026007,0.8125105-0.0026007c1.1703434,0,5.2909136,0.0012999,5.2909136,0.0012999
							s0.3321953,0.0670176,0.8594666-0.7474604c0.512846-0.7921934,0.437109-2.3088598,0.437109-2.9255276
							c0-0.5135746-0.0499992-1.3951559,0.075737-2.2999997c0.1268368-0.9127603,0.8887463-1.0635462,0.2305565-2.280282
							s-2.7241249-1.1925001-2.7241249-1.1925001s-1.8299847-1.1975228-3.6696587-0.8388488
							C13.3584824,1.7477208,12.973918,4.0499969,12.4524183,4.0517287z"/>
						<g opacity="0.77">
							
								<radialGradient id="SVGID_10_" cx="14.2524185" cy="9.028512" r="3.4499998" gradientTransform="matrix(1 0 0 -1 0 15.5184174)" gradientUnits="userSpaceOnUse">
								<stop  offset="0" style="stop-color:#0D1142"/>
								<stop  offset="1" style="stop-color:#0D1142;stop-opacity:0"/>
							</radialGradient>
							<circle fill="url(#SVGID_10_)" cx="14.2524185" cy="6.4899058" r="3.4499998"/>
						</g>
						<g opacity="0.77">
							
								<radialGradient id="SVGID_11_" cx="14.1524181" cy="6.528512" r="3.45" gradientTransform="matrix(1 0 0 -1 0 15.5184174)" gradientUnits="userSpaceOnUse">
								<stop  offset="0" style="stop-color:#0D1142"/>
								<stop  offset="1" style="stop-color:#0D1142;stop-opacity:0"/>
							</radialGradient>
							<circle fill="url(#SVGID_11_)" cx="14.1524181" cy="8.9899054" r="3.45"/>
						</g>
						<g opacity="0.77">
							
								<radialGradient id="SVGID_12_" cx="18.3524189" cy="9.028512" r="3.4499998" gradientTransform="matrix(1 0 0 -1 0 15.5184174)" gradientUnits="userSpaceOnUse">
								<stop  offset="0" style="stop-color:#0D1142"/>
								<stop  offset="1" style="stop-color:#0D1142;stop-opacity:0"/>
							</radialGradient>
							<circle fill="url(#SVGID_12_)" cx="18.3524189" cy="6.4899058" r="3.4499998"/>
						</g>
						
							<radialGradient id="SVGID_13_" cx="17.9413071" cy="6.7424965" r="3.45" gradientTransform="matrix(1 0 0 -1 0 15.5184174)" gradientUnits="userSpaceOnUse">
							<stop  offset="0" style="stop-color:#0D1142"/>
							<stop  offset="1" style="stop-color:#0D1142;stop-opacity:0"/>
						</radialGradient>
						<circle fill="url(#SVGID_13_)" cx="17.9413071" cy="8.7759209" r="3.45"/>
						<g id="b3365eb6-3a46-4137-b739-e94b07a7cd83">
							
								<linearGradient id="SVGID_14_" gradientUnits="userSpaceOnUse" x1="14.0902929" y1="14.443078" x2="18.7902927" y2="1.7430772" gradientTransform="matrix(1 0 0 -1 0 15.5184174)">
								<stop  offset="0" style="stop-color:#A4ACC1"/>
								<stop  offset="0.26213" style="stop-color:#B3B8CC"/>
								<stop  offset="0.47762" style="stop-color:#636C8F"/>
								<stop  offset="0.51691" style="stop-color:#666F92"/>
								<stop  offset="0.79916" style="stop-color:#757EA4"/>
								<stop  offset="1" style="stop-color:#7A84AB"/>
							</linearGradient>
							<path fill-rule="evenodd" clip-rule="evenodd" fill="url(#SVGID_14_)" d="M18.8792667,1.9086709l-0.0000248-0.000021
								c-0.4078007-0.493263-0.8661556-1.0476241-2.3684063-1.0476241c-1.7051554,0-2.5728264,0.714233-2.6615257,1.5165322
								c-0.0179691,0.1624281-0.0363369,0.304409-0.0551853,0.450135c-0.0742445,0.5740809-0.1559992,1.2063198-0.250473,3.3759761
								c-0.1184349,2.7204356-0.0097427,4.8829331,0.177454,5.5482879s0.6112614,0.8221226,1.0646105,0.8221226
								s0.8281937-0.186264,0.8281937-0.7437248c0-0.1559181-0.0061769-0.3156929-0.0122728-0.473341V11.356988
								c-0.0157061-0.4060707-0.0308275-0.7979784,0.0614929-1.0726767c0.1281996-0.38134,0.1871996-0.5187273,0.7292709-0.4015999
								c0.5420723,0.1171265,1.9606857,0.3522692,2.068924,0.2743521c0,0,0.0736332,0.1285763-0.2910156,0.2461329
								c-0.3646221,0.1175823-0.4076424,0.1598549-0.436924,0.3848534c-0.0292816,0.2250252-0.0496731,0.8661537,0.088726,1.1008682
								c0.138401,0.2346869,0.5615616,0.3227472,0.8476791,0.3033943c0.2861176-0.0193787,0.6405449-0.0687075,0.7492352-0.6948767
								c0.0302944-0.1745777,0.0704918-0.3720217,0.1140175-0.5857058v-0.0000534
								c0.1385193-0.616271,0.2354317-1.2411613,0.2900829-1.8704405c0.0594444-0.9101849,0.0984955-2.9841938,0-3.2778997
								c-0.4239063,0.1046071-0.8558559,0.1733966-1.2912865,0.2056432
								c-0.8477001,0.0783715-1.9517937,0.038733-2.5927896-0.4209781c-0.640995-0.4597111-0.6999893-1.1642504-0.6405449-1.810225
								c0.0594435-0.6459999,0.0989227-0.9612722,0.8428335-1.3650632c0.7833633-0.4258101,2.9028416-0.2690492,2.9028416-0.2690492
								C18.9885197,2.0407939,18.9343472,1.9752889,18.8792667,1.9086709z M16.4569283,2.6638858
								c-0.5667524,0.266475-0.5671778,0.8682752-0.5667524,1.2337761c0.0004263,0.3655269,0.0382271,1.3323872,1.2745924,1.4505293
								c1.2363415,0.1181417,1.9543762-0.0395322,2.6528473-0.4343681c0.6984692-0.3948102,0.7201385-1.1818213,0.3968334-1.5491004
								c-0.6611004-0.7501299-0.9963303-0.7847719-2.4548721-0.898468
								C17.760006,2.4662499,17.0237083,2.397409,16.4569283,2.6638858z M13.0871363,7.0415521
								c0.0010757-0.9084144,0.0481215-1.8161922,0.1409559-2.719851l-0.9069147,0.0387602
								c-0.4158726,0.0174885-0.4688597,0.3568745-0.5629911,0.9597511c-0.0091009,0.0583-0.0185833,0.1190472-0.0288162,0.1821918
								c-0.1160927,0.7164388-0.145772,2.5069132,0,3.5229931c0.145771,1.0160809,1.4550896,0.8806362,1.4550896,0.8806362
								S13.0871363,8.5223484,13.0871363,7.0415521z"/>
						</g>
						<g opacity="0.99">
							
								<radialGradient id="SVGID_15_" cx="14.9024181" cy="12.6424961" r="1.55" gradientTransform="matrix(1 0 0 -1 0 15.5184174)" gradientUnits="userSpaceOnUse">
								<stop  offset="0" style="stop-color:#E6EEFF"/>
								<stop  offset="1" style="stop-color:#E6EEFF;stop-opacity:0"/>
							</radialGradient>
							<circle fill="url(#SVGID_15_)" cx="14.9024181" cy="2.8759208" r="1.55"/>
						</g>
						<g opacity="0.43">
							
								<radialGradient id="SVGID_16_" cx="14.9024181" cy="12.6424961" r="2.45" gradientTransform="matrix(1 0 0 -1 0 15.5184174)" gradientUnits="userSpaceOnUse">
								<stop  offset="0" style="stop-color:#E6EEFF"/>
								<stop  offset="1" style="stop-color:#E6EEFF;stop-opacity:0"/>
							</radialGradient>
							<circle fill="url(#SVGID_16_)" cx="14.9024181" cy="2.8759208" r="2.45"/>
						</g>
					</g>
				</g>
			</g>
		</g>
	</g>
</g>
</svg>
