<?xml version="1.0" encoding="utf-8"?>
<!-- Generator: Adobe Illustrator 24.3.0, SVG Export Plug-In . SVG Version: 6.00 Build 0)  -->
<svg version="1.1" id="Слой_1" xmlns="http://www.w3.org/2000/svg" xmlns:xlink="http://www.w3.org/1999/xlink" x="0px" y="0px"
	 width="32px" height="13px" viewBox="0 0 32 13" enable-background="new 0 0 32 13" xml:space="preserve">
<g>
	<g id="f37b7894-5041-4982-a7f8-7a6f5e3cdbb2">
		<g id="b51b9b73-56b7-4b52-be29-fd180d172e67">
			<g id="fa88f7f2-bc58-4c56-bf2b-b3dd75831344">
				<g id="f431467b-d7d2-4b37-99fc-91905eecaaa8">
					<g id="f350abe2-c80b-48d7-962c-5f31e42b6744">
						<g id="f22227e1-e2f2-4561-a03c-37fa7b9a707c">
							
								<linearGradient id="ae94b6c8-00e7-4a65-b090-dc3f38049a74_1_" gradientUnits="userSpaceOnUse" x1="17.8052311" y1="13.9771185" x2="13.8292789" y2="2.4792502" gradientTransform="matrix(1 0 0 -1 0 15.5184174)">
								<stop  offset="0" style="stop-color:#0E0B16"/>
								<stop  offset="1" style="stop-color:#20213A"/>
							</linearGradient>
							
								<linearGradient id="ae94b6c8-00e7-4a65-b090-dc3f38049a74_2_" gradientUnits="userSpaceOnUse" x1="16.0021439" y1="13.8571968" x2="16.0021439" y2="3.6700966" gradientTransform="matrix(1 0 0 -1 0 15.5184174)">
								<stop  offset="0" style="stop-color:#645C5E"/>
								<stop  offset="1" style="stop-color:#54474D"/>
							</linearGradient>
							
								<polygon id="ae94b6c8-00e7-4a65-b090-dc3f38049a74" opacity="0.73" fill="url(#ae94b6c8-00e7-4a65-b090-dc3f38049a74_1_)" stroke="url(#ae94b6c8-00e7-4a65-b090-dc3f38049a74_2_)" stroke-width="0.1" stroke-miterlimit="10" enable-background="new    " points="
								29.0161991,11.7983208 3.0887001,11.7983208 0.0024,6.7548208 3.0887001,1.7112209 29.0161991,1.7112209 
								32.0023994,6.7548208 							"/>
							<g id="fc434d24-afcd-4f88-9707-c0bb749d429f">
								
									<linearGradient id="SVGID_1_" gradientUnits="userSpaceOnUse" x1="16.0524006" y1="13.9136133" x2="16.0524006" y2="3.1794522" gradientTransform="matrix(1 0 0 -1 0 15.5184174)">
									<stop  offset="0" style="stop-color:#231324"/>
									<stop  offset="0.49721" style="stop-color:#151324"/>
									<stop  offset="0.85754" style="stop-color:#362231"/>
								</linearGradient>
								<polygon fill="url(#SVGID_1_)" points="28.6513004,11.2048206 3.4535,11.2048206 0.7246,6.7548208 3.4535,2.3048208 
									28.6513004,2.3048208 31.3802013,6.7548208 								"/>
								
									<linearGradient id="SVGID_2_" gradientUnits="userSpaceOnUse" x1="16.0524235" y1="13.3136158" x2="16.0524235" y2="4.2136116" gradientTransform="matrix(1 0 0 -1 0 15.5184174)">
									<stop  offset="0" style="stop-color:#C0957E"/>
									<stop  offset="0.59777" style="stop-color:#776056"/>
									<stop  offset="1" style="stop-color:#705947"/>
								</linearGradient>
								<path fill="url(#SVGID_2_)" d="M28.6513233,2.3048007l2.728857,4.4499998l-2.728857,4.4500008H3.453521L0.724664,6.7548013
									l2.728857-4.4499998h25.1977978 M28.7072773,2.2048011H3.3975151l-0.029248,0.0477052L0.63941,6.7025061l-0.032031,0.0523
									l0.032031,0.0523l2.728857,4.4499998l0.029248,0.0476999h25.3097649l0.0293007-0.0476999l2.728857-4.4499998
									l0.032032-0.0523l-0.032032-0.0523l-2.728857-4.4499998l-0.0293007-0.0477052H28.7072773z"/>
							</g>
							<g id="bef8b3b6-0f07-4ba5-9be9-572fe35f6061">
								<polygon opacity="0.4" fill="#0A0916" enable-background="new    " points="5.9134998,6.8607206 3.7024,10.6325207 
									28.3802013,10.6325207 26.5134983,6.8783212 28.6023998,3.5826209 3.8913,3.5826209 								"/>
								
									<linearGradient id="SVGID_3_" gradientUnits="userSpaceOnUse" x1="16.0524502" y1="11.9358368" x2="16.0524502" y2="4.5347333" gradientTransform="matrix(1 0 0 -1 0 15.5184174)">
									<stop  offset="0" style="stop-color:#4E203B"/>
									<stop  offset="1" style="stop-color:#E8838D"/>
								</linearGradient>
								<polygon fill="url(#SVGID_3_)" points="28.137001,10.1048212 3.9679,10.1048212 5.9134998,6.7548208 3.9679,3.4048209 
									28.137001,3.4048209 26.1913013,6.7548208 								"/>
								
									<linearGradient id="SVGID_4_" gradientUnits="userSpaceOnUse" x1="3.7940998" y1="8.7636166" x2="28.3107014" y2="8.7636166" gradientTransform="matrix(1 0 0 -1 0 15.5184174)">
									<stop  offset="0" style="stop-color:#241B3B"/>
									<stop  offset="0.25419" style="stop-color:#9C7393"/>
									<stop  offset="1" style="stop-color:#59415E"/>
								</linearGradient>
								<path fill="url(#SVGID_4_)" d="M28.1369667,3.4048009l-1.9456539,3.3499999l1.9456539,3.3500004H3.967828
									L5.913528,6.7548013L3.967828,3.4048011h24.1691418 M28.3107014,3.3048012H3.7940998l0.087256,0.150244l1.9165506,3.2997556
									l-1.9165533,3.2997561l-0.0872533,0.1502447h24.5166016l-0.0872574-0.1502447l-1.9165001-3.2997556l1.9165001-3.2997561
									C28.223444,3.4550452,28.3107014,3.3048015,28.3107014,3.3048012z"/>
								
									<linearGradient id="SVGID_5_" gradientUnits="userSpaceOnUse" x1="15.9254436" y1="3.6218498" x2="16.3159351" y2="9.1321249" gradientTransform="matrix(1 0 0 -1 0 15.5184174)">
									<stop  offset="0.00559" style="stop-color:#D1BBFF;stop-opacity:0"/>
									<stop  offset="1" style="stop-color:#DBBFAC;stop-opacity:0.3"/>
								</linearGradient>
								<path opacity="0.52" fill="url(#SVGID_5_)" enable-background="new    " d="M26.7658329,7.7440042
									c-0.6999989-0.4120007-2.4764271-1.3972864-3.1781731-1.1503925
									c-0.8525639,0.2999544-2.1525497,0.6206002-3.694273-0.7130919c-2.6738777-2.313077-5.0322866,0.6278-5.8409691,0.8742838
									c-1.8699989,0.5700002-3.3499994,2.4500008-5.2999992,1.2000008c-1.3970513-0.895546-2.0272107-0.43641-3.0332165-0.8654146
									l-1.751781,3.0154142h24.1699944L26.7658329,7.7440042z"/>
								
									<linearGradient id="SVGID_6_" gradientUnits="userSpaceOnUse" x1="16.0521526" y1="5.4839644" x2="16.0541019" y2="5.7170086" gradientTransform="matrix(1 0 0 -1 0 15.5184174)">
									<stop  offset="0" style="stop-color:#CDC8E2"/>
									<stop  offset="1" style="stop-color:#EFC8D6;stop-opacity:0"/>
								</linearGradient>
								<polygon opacity="0.57" fill="url(#SVGID_6_)" enable-background="new    " points="27.6023998,9.804821 
									5.0023999,9.804821 4.1023998,10.0048208 28.0023994,10.0048208 								"/>
							</g>
							<g id="f5f7fda2-730a-427d-8a60-6ccdf85ba83a">
								<polygon opacity="0.41" fill="#0C080F" enable-background="new    " points="26.1819019,11.4950209 25.5040989,11.4950209 
									22.8460999,7.0852213 24.9207001,3.2589209 25.6504993,3.2589209 23.4696999,7.0852213 								"/>
								
									<linearGradient id="SVGID_7_" gradientUnits="userSpaceOnUse" x1="10470.4169922" y1="11.9068098" x2="10468.7294922" y2="1.782048" gradientTransform="matrix(-1 0 0 -1 10494.2041016 15.5184174)">
									<stop  offset="0" style="stop-color:#FFF0E6"/>
									<stop  offset="0.09497" style="stop-color:#DCAC8E"/>
									<stop  offset="0.29609" style="stop-color:#DCAC92"/>
									<stop  offset="0.48324" style="stop-color:#A76166"/>
									<stop  offset="1" style="stop-color:#C9A7A2"/>
								</linearGradient>
								
									<linearGradient id="SVGID_8_" gradientUnits="userSpaceOnUse" x1="10467.0615234" y1="7.5810704" x2="10470.9697266" y2="9.8374853" gradientTransform="matrix(-1 0 0 -1 10494.2041016 15.5184174)">
									<stop  offset="0" style="stop-color:#DCAC8E"/>
									<stop  offset="0.03631" style="stop-color:#BE9791"/>
									<stop  offset="0.39106" style="stop-color:#DCA58E"/>
									<stop  offset="0.56145" style="stop-color:#83596F"/>
									<stop  offset="0.7904999" style="stop-color:#EAC9AB"/>
									<stop  offset="1" style="stop-color:#C9A794"/>
								</linearGradient>
								<polygon fill="url(#SVGID_7_)" stroke="url(#SVGID_8_)" stroke-width="0.1" stroke-miterlimit="10" points="
									25.337801,10.8615208 25.0268993,10.8615208 22.6335011,6.8226209 25.0268993,2.7837207 25.337801,2.7837207 
									22.9443989,6.8226209 								"/>
							</g>
							<g id="a561e283-105a-49cd-8202-2f59cd2130ae">
								<polygon opacity="0.41" fill="#0C080F" enable-background="new    " points="27.0359993,11.4950209 26.3582993,11.4950209 
									23.7001991,7.0852213 25.7747993,3.2589209 26.5047016,3.2589209 24.323801,7.0852213 								"/>
								
									<linearGradient id="SVGID_9_" gradientUnits="userSpaceOnUse" x1="10469.5625" y1="11.9068232" x2="10467.875" y2="1.7820619" gradientTransform="matrix(-1 0 0 -1 10494.2041016 15.5184174)">
									<stop  offset="0" style="stop-color:#FFF0E6"/>
									<stop  offset="0.09497" style="stop-color:#DCAC8E"/>
									<stop  offset="0.29609" style="stop-color:#DCAC92"/>
									<stop  offset="0.48324" style="stop-color:#A76166"/>
									<stop  offset="1" style="stop-color:#C9A7A2"/>
								</linearGradient>
								
									<linearGradient id="SVGID_10_" gradientUnits="userSpaceOnUse" x1="10466.2070312" y1="7.58111" x2="10470.1152344" y2="9.837471" gradientTransform="matrix(-1 0 0 -1 10494.2041016 15.5184174)">
									<stop  offset="0" style="stop-color:#DCAC8E"/>
									<stop  offset="0.03631" style="stop-color:#BE9791"/>
									<stop  offset="0.39106" style="stop-color:#DCA58E"/>
									<stop  offset="0.56145" style="stop-color:#83596F"/>
									<stop  offset="0.7904999" style="stop-color:#EAC9AB"/>
									<stop  offset="1" style="stop-color:#C9A794"/>
								</linearGradient>
								<polygon fill="url(#SVGID_9_)" stroke="url(#SVGID_10_)" stroke-width="0.1" stroke-miterlimit="10" points="
									26.1919994,10.8615208 25.8810978,10.8615208 23.4876995,6.8226209 25.8810978,2.7837207 26.1919994,2.7837207 
									23.7986012,6.8226209 								"/>
							</g>
							<g id="ba4781db-cdf7-43f2-b648-96487493112f">
								<polygon opacity="0.41" fill="#0C080F" enable-background="new    " points="5.9446001,11.4950209 6.6224003,11.4950209 
									9.2803993,7.0852213 7.2058005,3.2589209 6.4759998,3.2589209 8.6567993,7.0852213 								"/>
								
									<linearGradient id="SVGID_11_" gradientUnits="userSpaceOnUse" x1="-349.4337463" y1="11.906826" x2="-351.1211853" y2="1.7820649" gradientTransform="matrix(1 0 0 -1 357.7731323 15.5184174)">
									<stop  offset="0" style="stop-color:#FFF0E6"/>
									<stop  offset="0.09497" style="stop-color:#DCAC8E"/>
									<stop  offset="0.29609" style="stop-color:#DCAC92"/>
									<stop  offset="0.48324" style="stop-color:#A76166"/>
									<stop  offset="1" style="stop-color:#C9A7A2"/>
								</linearGradient>
								
									<linearGradient id="SVGID_12_" gradientUnits="userSpaceOnUse" x1="-352.7894287" y1="7.5810723" x2="-348.8811646" y2="9.8374987" gradientTransform="matrix(1 0 0 -1 357.7731323 15.5184174)">
									<stop  offset="0" style="stop-color:#DCAC8E"/>
									<stop  offset="0.03631" style="stop-color:#BE9791"/>
									<stop  offset="0.39106" style="stop-color:#DCA58E"/>
									<stop  offset="0.56145" style="stop-color:#83596F"/>
									<stop  offset="0.7904999" style="stop-color:#EAC9AB"/>
									<stop  offset="1" style="stop-color:#C9A794"/>
								</linearGradient>
								<polygon fill="url(#SVGID_11_)" stroke="url(#SVGID_12_)" stroke-width="0.1" stroke-miterlimit="10" points="
									6.7886,10.8615208 7.0995998,10.8615208 9.493,6.8226209 7.0995998,2.7837207 6.7886,2.7837207 9.1820002,6.8226209 
																	"/>
							</g>
							<g id="b21d56c2-2848-439b-8992-254d77ff33ae">
								<polygon opacity="0.41" fill="#0C080F" enable-background="new    " points="5.0904002,11.4950209 5.7681999,11.4950209 
									8.4263,7.0852213 6.3517003,3.2589209 5.6217999,3.2589209 7.8026996,7.0852213 								"/>
								
									<linearGradient id="SVGID_13_" gradientUnits="userSpaceOnUse" x1="-350.2878723" y1="11.9068251" x2="-351.9753418" y2="1.7820643" gradientTransform="matrix(1 0 0 -1 357.7731323 15.5184174)">
									<stop  offset="0" style="stop-color:#FFF0E6"/>
									<stop  offset="0.09497" style="stop-color:#DCAC8E"/>
									<stop  offset="0.29609" style="stop-color:#DCAC92"/>
									<stop  offset="0.48324" style="stop-color:#A76166"/>
									<stop  offset="1" style="stop-color:#C9A7A2"/>
								</linearGradient>
								
									<linearGradient id="SVGID_14_" gradientUnits="userSpaceOnUse" x1="-353.6435242" y1="7.5810938" x2="-349.7353516" y2="9.8374767" gradientTransform="matrix(1 0 0 -1 357.7731323 15.5184174)">
									<stop  offset="0" style="stop-color:#DCAC8E"/>
									<stop  offset="0.03631" style="stop-color:#BE9791"/>
									<stop  offset="0.39106" style="stop-color:#DCA58E"/>
									<stop  offset="0.56145" style="stop-color:#83596F"/>
									<stop  offset="0.7904999" style="stop-color:#EAC9AB"/>
									<stop  offset="1" style="stop-color:#C9A794"/>
								</linearGradient>
								<polygon fill="url(#SVGID_13_)" stroke="url(#SVGID_14_)" stroke-width="0.1" stroke-miterlimit="10" points="
									5.9345002,10.8615208 6.2454,10.8615208 8.6387997,6.8226209 6.2454,2.7837207 5.9345002,2.7837207 8.3278999,6.8226209 
																	"/>
							</g>
							<polygon id="eaa26761-74b6-466c-b4cc-9452187b32fa" opacity="0.4" fill="#0A0916" enable-background="new    " points="
								1.783,10.7145214 3.1793001,10.0145206 4.8903999,7.4645209 3.1793001,4.9145212 1.783,4.2145209 3.4940999,7.4645209 
															"/>
							<polygon id="b81ffb6e-9628-4702-98bc-ec994923156e" opacity="0.4" fill="#0A0916" enable-background="new    " points="
								30.3358021,10.6269207 28.9395008,9.9269209 27.2283001,7.3769212 28.9395008,4.8269205 30.3358021,4.1269207 
								28.6246014,7.3769212 							"/>
							<g id="bd3dfe61-f051-4f3c-bcbb-954426b068ac">
								
									<linearGradient id="SVGID_15_" gradientUnits="userSpaceOnUse" x1="3.4539082" y1="12.0860949" x2="2.9705751" y2="5.0860953" gradientTransform="matrix(1 0 0 -1 0 15.5184174)">
									<stop  offset="0" style="stop-color:#44203B"/>
									<stop  offset="1" style="stop-color:#BE7283"/>
								</linearGradient>
								<polygon fill="url(#SVGID_15_)" points="1.783,10.0048208 3.1793001,9.304821 4.8903999,6.7548208 3.1793001,4.2048211 
									1.783,3.5048208 3.4940999,6.7548208 								"/>
								
									<linearGradient id="SVGID_16_" gradientUnits="userSpaceOnUse" x1="0.5878383" y1="5.8398566" x2="3.6566091" y2="11.1551247" gradientTransform="matrix(1 0 0 -1 0 15.5184174)">
									<stop  offset="0" style="stop-color:#241B3B"/>
									<stop  offset="0.25419" style="stop-color:#C49093"/>
									<stop  offset="1" style="stop-color:#59415E"/>
								</linearGradient>
								<path fill="url(#SVGID_16_)" d="M1.783013,3.5048008l1.3963381,0.6999998l1.7110841,2.5500002L3.1793511,9.304801
									l-1.3963379,0.6999998l1.7111331-3.2499995l-1.711133-3.25 M1.5494684,3.275846l0.145069,0.275537L3.381109,6.7548008
									L1.694537,9.9582205L1.549468,10.233758l0.2783701-0.1395512l1.396338-0.6999998l0.023535-0.011816l0.0146999-0.0218744
									L4.973495,6.8105164l0.0373535-0.0557127L4.973495,6.6990905L3.2624111,4.1490908L3.2477112,4.1272154l-0.023535-0.011816
									l-1.396338-0.6999998L1.5494683,3.2758486L1.5494684,3.275846z"/>
							</g>
							<g id="e4a2a375-8c12-4e9c-a222-3ad56c31c48d">
								
									<linearGradient id="SVGID_17_" gradientUnits="userSpaceOnUse" x1="10867.5146484" y1="11.2344866" x2="10866.1650391" y2="3.1392047" gradientTransform="matrix(-1 0 0 -1 10896.2558594 15.5184174)">
									<stop  offset="0" style="stop-color:#44203B"/>
									<stop  offset="1" style="stop-color:#BE7283"/>
								</linearGradient>
								<polygon fill="url(#SVGID_17_)" points="30.4358006,10.0048208 29.0394993,9.304821 27.3283005,6.7548208 
									29.0394993,4.2048211 30.4358006,3.5048208 28.7246017,6.7548208 								"/>
								
									<linearGradient id="SVGID_18_" gradientUnits="userSpaceOnUse" x1="30.6692944" y1="8.7636166" x2="27.2079144" y2="8.7636166" gradientTransform="matrix(1 0 0 -1 0 15.5184174)">
									<stop  offset="0" style="stop-color:#241B3B"/>
									<stop  offset="0.25419" style="stop-color:#C49093"/>
									<stop  offset="1" style="stop-color:#59415E"/>
								</linearGradient>
								<path fill="url(#SVGID_18_)" d="M30.4357491,3.5048008l-1.7110844,3.25l1.7110844,3.25L29.0394611,9.304801
									l-1.711134-2.5499997l1.711134-2.5500002l1.3962879-0.6999998 M30.6692944,3.275846l-0.2783699,0.1395512
									L28.9946365,4.115397l-0.0235348,0.011816l-0.0147018,0.0218749l-1.711132,2.5500002l-0.0373535,0.0557127
									l0.0373535,0.0557127l1.711132,2.5500002l0.0147018,0.0218754l0.0235348,0.011816l1.3962879,0.6999998l0.2783699,0.1395502
									l-0.145071-0.2755346l-1.686573-3.2034197l1.686573-3.203418l0.1450672-0.2755368H30.6692944z"/>
							</g>
						</g>
						<g id="fc492506-8f12-4344-be07-5dd8c6abb4fd">
							
								<linearGradient id="SVGID_19_" gradientUnits="userSpaceOnUse" x1="16.0728188" y1="12.0946903" x2="16.0728188" y2="2.7771895" gradientTransform="matrix(1 0 0 -1 0 15.5184174)">
								<stop  offset="0" style="stop-color:#0A081C"/>
								<stop  offset="0.8392299" style="stop-color:#0A081C;stop-opacity:0.4"/>
								<stop  offset="1" style="stop-color:#0A081C;stop-opacity:0.2"/>
							</linearGradient>
							<path opacity="0.34" fill="url(#SVGID_19_)" enable-background="new    " d="M12.5774183,4.0517287
								c-1.379056,0.0045791-1.4977703,1.6441789-1.4625101,2.5333328s0.165328,1.8790288,0.1830654,2.5891261
								c0.0177364,0.7100964,0.7169342,1.0275402,1.4695921,1.4108744c0.6055584,0.3084145,0.1915598,0.9934998,0.2973413,1.2742882
								c0.2115622,0,0.5140762-0.0026007,0.8125114-0.0026007c1.1703424,0,5.2909126,0.0012999,5.2909126,0.0012999
								s0.3321953,0.0670176,0.8594666-0.7474604c0.512846-0.7921934,0.437109-2.3088598,0.437109-2.9255276
								c0-0.5135746-0.0499992-1.3951559,0.075737-2.2999997c0.1268387-0.9127603,0.8887463-1.0635462,0.2305565-2.280282
								s-2.7241249-1.1925001-2.7241249-1.1925001s-1.8299828-1.1975228-3.6696568-0.8388488
								C13.4834824,1.7477208,13.098918,4.0499969,12.5774183,4.0517287z"/>
							<g opacity="0.77">
								
									<radialGradient id="SVGID_20_" cx="14.3774185" cy="9.028512" r="3.4499998" gradientTransform="matrix(1 0 0 -1 0 15.5184174)" gradientUnits="userSpaceOnUse">
									<stop  offset="0" style="stop-color:#0D1142"/>
									<stop  offset="1" style="stop-color:#0D1142;stop-opacity:0"/>
								</radialGradient>
								<circle fill="url(#SVGID_20_)" cx="14.3774185" cy="6.4899058" r="3.4499998"/>
							</g>
							<g opacity="0.77">
								
									<radialGradient id="SVGID_21_" cx="14.5385294" cy="6.7698336" r="3.45" gradientTransform="matrix(1 0 0 -1 0 15.5184174)" gradientUnits="userSpaceOnUse">
									<stop  offset="0" style="stop-color:#3B1142"/>
									<stop  offset="1" style="stop-color:#0D1142;stop-opacity:0"/>
								</radialGradient>
								<circle fill="url(#SVGID_21_)" cx="14.5385294" cy="8.7485838" r="3.45"/>
							</g>
							<g opacity="0.77">
								
									<radialGradient id="SVGID_22_" cx="17.7274189" cy="9.0558481" r="3.45" gradientTransform="matrix(1 0 0 -1 0 15.5184174)" gradientUnits="userSpaceOnUse">
									<stop  offset="0" style="stop-color:#3B1142"/>
									<stop  offset="1" style="stop-color:#0D1142;stop-opacity:0"/>
								</radialGradient>
								<circle fill="url(#SVGID_22_)" cx="17.7274189" cy="6.4625692" r="3.45"/>
							</g>
							<g opacity="0.77">
								
									<radialGradient id="SVGID_23_" cx="17.4774189" cy="6.7698336" r="3.45" gradientTransform="matrix(1 0 0 -1 0 15.5184174)" gradientUnits="userSpaceOnUse">
									<stop  offset="0" style="stop-color:#3B1142"/>
									<stop  offset="1" style="stop-color:#0D1142;stop-opacity:0"/>
								</radialGradient>
								<circle fill="url(#SVGID_23_)" cx="17.4774189" cy="8.7485838" r="3.45"/>
							</g>
							<g id="fe5f5bcf-ad34-41d9-adeb-c6de0c5f5add">
								
									<linearGradient id="SVGID_24_" gradientUnits="userSpaceOnUse" x1="14.2152929" y1="14.443078" x2="18.9152927" y2="1.7430772" gradientTransform="matrix(1 0 0 -1 0 15.5184174)">
									<stop  offset="0" style="stop-color:#C7ACA9"/>
									<stop  offset="0.26213" style="stop-color:#D8C7D5"/>
									<stop  offset="0.47762" style="stop-color:#A28396"/>
									<stop  offset="0.62425" style="stop-color:#B293A5"/>
									<stop  offset="0.84375" style="stop-color:#C4A5B7"/>
									<stop  offset="1" style="stop-color:#CBABBD"/>
								</linearGradient>
								<path fill-rule="evenodd" clip-rule="evenodd" fill="url(#SVGID_24_)" d="M19.0042667,1.9086709l-0.0000248-0.000021
									c-0.4078007-0.493263-0.8661556-1.0476241-2.3684063-1.0476241c-1.7051554,0-2.5728264,0.714233-2.6615257,1.5165322
									c-0.0179691,0.1624281-0.0363369,0.304409-0.0551853,0.450135c-0.0742445,0.5740809-0.1559992,1.2063198-0.250473,3.3759761
									c-0.1184349,2.7204356-0.0097427,4.8829331,0.177454,5.5482879s0.6112614,0.8221226,1.0646105,0.8221226
									s0.8281937-0.186264,0.8281937-0.7437248c0-0.1559181-0.0061769-0.3156929-0.0122728-0.473341V11.356988
									c-0.0157061-0.4060707-0.0308275-0.7979784,0.0614929-1.0726767c0.1281996-0.38134,0.1871996-0.5187273,0.7292709-0.4015999
									c0.5420723,0.1171265,1.9606857,0.3522692,2.068924,0.2743521c0,0,0.0736332,0.1285763-0.2910156,0.2461329
									c-0.3646221,0.1175823-0.4076424,0.1598549-0.436924,0.3848534
									c-0.0292816,0.2250252-0.0496731,0.8661537,0.088726,1.1008682c0.138401,0.2346869,0.5615616,0.3227472,0.8476791,0.3033943
									c0.2861176-0.0193787,0.6405449-0.0687075,0.7492352-0.6948767
									c0.0302944-0.1745777,0.0704918-0.3720217,0.1140175-0.5857058v-0.0000534
									c0.1385193-0.616271,0.2354317-1.2411613,0.2900829-1.8704405c0.0594444-0.9101849,0.0984955-2.9841938,0-3.2778997
									c-0.4239063,0.1046071-0.8558559,0.1733966-1.2912865,0.2056432
									c-0.8477001,0.0783715-1.9517937,0.038733-2.5927887-0.4209781c-0.640996-0.4597111-0.6999903-1.1642504-0.6405458-1.810225
									c0.0594435-0.6459999,0.0989227-0.9612722,0.8428335-1.3650632
									c0.7833633-0.4258101,2.9028416-0.2690492,2.9028416-0.2690492
									C19.1135197,2.0407939,19.0593472,1.9752889,19.0042667,1.9086709z M16.5819283,2.6638858
									c-0.5667515,0.266475-0.5671787,0.8682752-0.5667515,1.2337761
									c0.0004253,0.3655269,0.0382252,1.3323872,1.2745914,1.4505293
									c1.2363415,0.1181417,1.9543762-0.0395322,2.6528473-0.4343681
									c0.6984692-0.3948102,0.7201385-1.1818213,0.3968334-1.5491004
									c-0.6611004-0.7501299-0.9963303-0.7847719-2.4548721-0.898468
									C17.885006,2.4662499,17.1487083,2.397409,16.5819283,2.6638858z M13.2121363,7.0415521
									c0.0010757-0.9084144,0.0481215-1.8161922,0.1409559-2.719851l-0.9069147,0.0387602
									c-0.4158726,0.0174885-0.4688597,0.3568745-0.5629911,0.9597511c-0.0091009,0.0583-0.0185833,0.1190472-0.0288162,0.1821918
									c-0.1160927,0.7164388-0.145772,2.5069132,0,3.5229931c0.145771,1.0160809,1.4550896,0.8806362,1.4550896,0.8806362
									S13.2121363,8.5223484,13.2121363,7.0415521z"/>
							</g>
							<g opacity="0.75">
								
									<radialGradient id="SVGID_25_" cx="15.0274181" cy="12.6424961" r="1.55" gradientTransform="matrix(1 0 0 -1 0 15.5184174)" gradientUnits="userSpaceOnUse">
									<stop  offset="0" style="stop-color:#E6EEFF"/>
									<stop  offset="1" style="stop-color:#E6EEFF;stop-opacity:0"/>
								</radialGradient>
								<circle fill="url(#SVGID_25_)" cx="15.0274181" cy="2.8759208" r="1.55"/>
							</g>
							<g opacity="0.37">
								
									<radialGradient id="SVGID_26_" cx="15.0274181" cy="12.6424961" r="2.45" gradientTransform="matrix(1 0 0 -1 0 15.5184174)" gradientUnits="userSpaceOnUse">
									<stop  offset="0" style="stop-color:#E6EEFF"/>
									<stop  offset="1" style="stop-color:#E6EEFF;stop-opacity:0"/>
								</radialGradient>
								<circle fill="url(#SVGID_26_)" cx="15.0274181" cy="2.8759208" r="2.45"/>
							</g>
						</g>
					</g>
				</g>
			</g>
		</g>
	</g>
</g>
</svg>
