<?xml version="1.0" encoding="utf-8"?>
<!-- Generator: Adobe Illustrator 24.3.0, SVG Export Plug-In . SVG Version: 6.00 Build 0)  -->
<svg version="1.1" id="Слой_1" xmlns="http://www.w3.org/2000/svg" xmlns:xlink="http://www.w3.org/1999/xlink" x="0px" y="0px"
	 width="32px" height="13px" viewBox="0 0 32 13" enable-background="new 0 0 32 13" xml:space="preserve">
<g>
	<g id="f0b3f7c2-c2ed-4908-b755-d313cba77104">
		<g id="a2abc2a9-249e-4dee-a255-3250747b3c39">
			<g id="a526426a-72c2-4cb2-938e-f9a0a88df0cd">
				<g id="ad6e0e0f-419c-4ce6-8988-0d09262bfbd2">
					<g id="e1c576af-f64a-4b50-bfc5-a3a2efdfbe07">
						<g id="eece2a56-4368-46f0-bf73-414f3049cb03">
							
								<linearGradient id="SVGID_1_" gradientUnits="userSpaceOnUse" x1="18.0070457" y1="14.5373659" x2="13.5669641" y2="1.6973032" gradientTransform="matrix(1 0 0 -1 0 15.5184174)">
								<stop  offset="0" style="stop-color:#0E0B16"/>
								<stop  offset="1" style="stop-color:#20213A"/>
							</linearGradient>
							
								<linearGradient id="SVGID_2_" gradientUnits="userSpaceOnUse" x1="15.9997339" y1="14.1832275" x2="15.9997339" y2="3.2817972" gradientTransform="matrix(1 0 0 -1 0 15.5184174)">
								<stop  offset="0" style="stop-color:#645C5E"/>
								<stop  offset="1" style="stop-color:#54474D"/>
							</linearGradient>
							
								<polygon opacity="0.4" fill="url(#SVGID_1_)" stroke="url(#SVGID_2_)" stroke-width="0.1070121" stroke-miterlimit="10" enable-background="new    " points="
								31.1566601,12.1831141 0.8428053,12.1831141 4.0678291,6.7858515 0.8428053,1.3886961 31.1566601,1.3886961 
								27.93153,6.7858515 							"/>
							
								<linearGradient id="SVGID_3_" gradientUnits="userSpaceOnUse" x1="30.3784103" y1="12.047883" x2="29.2245884" y2="5.1249409" gradientTransform="matrix(1 0 0 -1 0 15.5184174)">
								<stop  offset="0" style="stop-color:#29264E"/>
								<stop  offset="0.34637" style="stop-color:#8E6B98"/>
								<stop  offset="0.63128" style="stop-color:#D38B8B"/>
							</linearGradient>
							<polygon fill="url(#SVGID_3_)" points="28.4134045,11.1673555 29.3765125,11.1673555 31.9448032,6.833365 
								29.3765125,2.4993749 28.4134045,2.4993749 30.9816952,6.833365 							"/>
							
								<linearGradient id="SVGID_4_" gradientUnits="userSpaceOnUse" x1="28.4134045" y1="8.6850452" x2="31.9448032" y2="8.6850452" gradientTransform="matrix(1 0 0 -1 0 15.5184174)">
								<stop  offset="0.0838" style="stop-color:#54467F"/>
								<stop  offset="0.25419" style="stop-color:#81739D"/>
								<stop  offset="1" style="stop-color:#7A758E"/>
							</linearGradient>
							<path fill="url(#SVGID_4_)" d="M29.3155346,2.6063943l2.504858,4.2269783l-2.504858,4.2269778h-0.7143364
								l2.4725647-4.1724257l0.0323448-0.0545516l-0.0323448-0.0545506l-2.4725647-4.1724281H29.3155346 M29.3765125,2.4993823
								h-0.9631081l2.5682907,4.3339901l-2.5682907,4.3339906h0.9631081l2.5682907-4.3339906
								C31.9448032,6.8333726,29.3765125,2.4993825,29.3765125,2.4993823z"/>
							
								<linearGradient id="SVGID_5_" gradientUnits="userSpaceOnUse" x1="10382.7021484" y1="12.0478792" x2="10381.5488281" y2="5.1249371" gradientTransform="matrix(-1 0 0 -1 10384.3242188 15.5184174)">
								<stop  offset="0" style="stop-color:#29264E"/>
								<stop  offset="0.34637" style="stop-color:#8E6B98"/>
								<stop  offset="0.63128" style="stop-color:#D38B8B"/>
							</linearGradient>
							<polygon fill="url(#SVGID_5_)" points="3.5865958,11.1673555 2.6234868,11.1673555 0.0551962,6.833365 2.6234868,2.4993749 
								3.5865958,2.4993749 1.0183052,6.833365 							"/>
							
								<linearGradient id="SVGID_6_" gradientUnits="userSpaceOnUse" x1="3.5865958" y1="8.6850443" x2="0.0551962" y2="8.6850443" gradientTransform="matrix(1 0 0 -1 0 15.5184174)">
								<stop  offset="0.0838" style="stop-color:#54467F"/>
								<stop  offset="0.25419" style="stop-color:#81739D"/>
								<stop  offset="1" style="stop-color:#7A758E"/>
							</linearGradient>
							<path fill="url(#SVGID_6_)" d="M3.3988023,2.6063943L0.9262373,6.7788219L0.8938929,6.8333726l0.0323444,0.0545521
								l2.4725652,4.1724267H2.6844645L0.1796084,6.8333735l2.5048561-4.2269783h0.7143381 M3.5865958,2.4993832h-0.963109
								L0.0551962,6.8333735l2.5682905,4.3339906h0.963109L1.0183052,6.8333735L3.5865958,2.4993832z"/>
							<polygon opacity="0.44" fill="#171428" enable-background="new    " points="2.1696484,3.2346549 3.3574827,4.6616616 
								3.8496315,3.8288929 2.6039035,2.4993749 							"/>
							<polygon opacity="0.44" fill="#171428" enable-background="new    " points="2.1696484,10.3956909 3.3574827,8.9685774 
								3.8496315,9.8013458 2.6039035,11.1308641 							"/>
							<polygon opacity="0.44" fill="#171428" enable-background="new    " points="29.8336697,10.3956909 28.645834,8.9685774 
								28.1536865,9.8013458 29.3994122,11.1308641 							"/>
							<polygon opacity="0.44" fill="#171428" enable-background="new    " points="29.8121605,3.2346549 28.6243267,4.6616616 
								28.1320705,3.8288929 29.3779049,2.4993749 							"/>
							
								<linearGradient id="SVGID_7_" gradientUnits="userSpaceOnUse" x1="15.9996786" y1="14.2436523" x2="15.9996786" y2="2.7567997" gradientTransform="matrix(1 0 0 -1 0 15.5184174)">
								<stop  offset="0" style="stop-color:#151324"/>
								<stop  offset="0.49721" style="stop-color:#151324"/>
								<stop  offset="0.7904999" style="stop-color:#32304E"/>
								<stop  offset="1" style="stop-color:#111B39"/>
							</linearGradient>
							<polygon fill="url(#SVGID_7_)" points="29.9100742,11.5478907 2.0892823,11.5478907 4.9476829,6.7858515 2.0892823,2.023813 
								29.9100742,2.023813 27.0516739,6.7858515 							"/>
							
								<linearGradient id="SVGID_8_" gradientUnits="userSpaceOnUse" x1="6.5154634" y1="18.2167892" x2="25.4839611" y2="-0.751707" gradientTransform="matrix(1 0 0 -1 0 15.5184174)">
								<stop  offset="0" style="stop-color:#C0957E"/>
								<stop  offset="0.59777" style="stop-color:#776056"/>
								<stop  offset="1" style="stop-color:#705947"/>
							</linearGradient>
							<path fill="url(#SVGID_8_)" d="M29.9101105,2.0238376l-2.8584461,4.7620387l2.8584461,4.7620392H2.0893145
								l2.8583937-4.7620392L2.0893142,2.0238378h27.8207932 M30.0991554,1.9168257H1.9002668L1.99756,2.0789106
								l2.8253179,4.7069654l-2.8253179,4.7069654L1.900267,11.6549273h28.1988926l-0.0972939-0.1620855l-2.8253708-4.7069654
								l2.8253708-4.7069654l0.0972939-0.1620849H30.0991554z"/>
							<polygon opacity="0.4" fill="#0A0916" enable-background="new    " points="1.9394654,6.8991776 3.8538051,10.9354601 
								28.1217957,10.9354601 30.404686,6.918119 28.3595791,3.3912137 4.0559511,3.3912137 							"/>
							
								<linearGradient id="SVGID_9_" gradientUnits="userSpaceOnUse" x1="15.9996786" y1="12.1271906" x2="15.9996786" y2="4.2071142" gradientTransform="matrix(1 0 0 -1 0 15.5184174)">
								<stop  offset="0" style="stop-color:#4B3062"/>
								<stop  offset="0.62011" style="stop-color:#B57E96"/>
								<stop  offset="1" style="stop-color:#F69B90"/>
							</linearGradient>
							<polygon fill="url(#SVGID_9_)" points="27.8615417,10.3707571 4.1379223,10.3707571 1.9394654,6.7858515 
								4.1379223,3.2009461 27.8615417,3.2009461 30.0598907,6.7858515 							"/>
							
								<linearGradient id="SVGID_10_" gradientUnits="userSpaceOnUse" x1="1.8139956" y1="8.7325411" x2="30.1854267" y2="8.7325411" gradientTransform="matrix(1 0 0 -1 0 15.5184174)">
								<stop  offset="0.0838" style="stop-color:#54467F"/>
								<stop  offset="0.25419" style="stop-color:#81739D"/>
								<stop  offset="1" style="stop-color:#7A758E"/>
							</linearGradient>
							<path fill="url(#SVGID_10_)" d="M27.8615189,3.2009706l2.1983986,3.5849056l-2.1983986,3.5849056H4.1378546
								L1.9395051,6.7858763l2.1983495-3.5849054h23.7236633 M27.9214516,3.0939589H4.0779214L4.0466223,3.1450036
								L1.8482727,6.7299089L1.8139956,6.7858758l0.0342771,0.0559673l2.1983495,3.5849061l0.0312991,0.0510445h23.8435307
								l0.0312996-0.0510445l2.1983986-3.5849061l0.034277-0.0559673l-0.034277-0.0559669l-2.1983986-3.5849056
								C27.9527512,3.1450033,27.9214516,3.0939586,27.9214516,3.0939589z"/>
							
								<linearGradient id="SVGID_11_" gradientUnits="userSpaceOnUse" x1="-0.0893408" y1="-8882.8291016" x2="33.0806198" y2="-8882.8291016" gradientTransform="matrix(1 0 0 1 0 8890.5517578)">
								<stop  offset="0.00559" style="stop-color:#D1BBFF;stop-opacity:0"/>
								<stop  offset="1" style="stop-color:#EABDBD;stop-opacity:0.3"/>
							</linearGradient>
							<path opacity="0.67" fill="url(#SVGID_11_)" enable-background="new    " d="M29.5759144,7.7788768
								c-0.7490864-0.4408903-4.3117981-1.3642974-5.0627499-1.1000843
								c-0.9123459,0.3209872-3.0021648,0.6482439-4.6519966-0.7789702
								c-2.8613701-2.4752724-7.2170553,0.7292266-8.0824442,0.9929943
								C9.7776022,7.5027852,7.1236973,9.5146132,5.0369611,8.1769619C3.5419476,7.2186193,3.1502993,7.6718645,2.073751,7.2127829
								l2.0022058,3.2649393h23.845541L29.5759144,7.7788768z"/>
							
								<linearGradient id="SVGID_12_" gradientUnits="userSpaceOnUse" x1="15.9994621" y1="5.2286849" x2="16.0014629" y2="5.4675484" gradientTransform="matrix(1 0 0 -1 0 15.5184174)">
								<stop  offset="0" style="stop-color:#CDC8E2"/>
								<stop  offset="1" style="stop-color:#EFC8D6;stop-opacity:0"/>
							</linearGradient>
							<polygon opacity="0.57" fill="url(#SVGID_12_)" enable-background="new    " points="27.2894554,10.0497208 
								5.2449627,10.0497208 4.2818537,10.2637453 27.7175064,10.2637453 							"/>
							<polygon opacity="0.41" fill="#0C080F" enable-background="new    " points="25.0063534,9.9154205 26.8216,9.9154205 
								28.5456696,7.0795999 26.9286118,4.3507915 25.0063534,4.3507915 26.6234131,7.0795999 							"/>
							
								<linearGradient id="SVGID_13_" gradientUnits="userSpaceOnUse" x1="27.2434769" y1="11.0028286" x2="26.0663433" y2="3.9400294" gradientTransform="matrix(1 0 0 -1 0 15.5184174)">
								<stop  offset="0" style="stop-color:#FFF0E6"/>
								<stop  offset="0.09497" style="stop-color:#DCAC8E"/>
								<stop  offset="0.29609" style="stop-color:#DCAC92"/>
								<stop  offset="0.48324" style="stop-color:#A76166"/>
								<stop  offset="1" style="stop-color:#C9A7A2"/>
							</linearGradient>
							
								<linearGradient id="SVGID_14_" gradientUnits="userSpaceOnUse" x1="24.5253181" y1="7.7601757" x2="28.0201015" y2="9.7778902" gradientTransform="matrix(1 0 0 -1 0 15.5184174)">
								<stop  offset="0" style="stop-color:#DCAC8E"/>
								<stop  offset="0.03631" style="stop-color:#BE9791"/>
								<stop  offset="0.39106" style="stop-color:#DCA58E"/>
								<stop  offset="0.56145" style="stop-color:#83596F"/>
								<stop  offset="0.7904999" style="stop-color:#EAC9AB"/>
								<stop  offset="1" style="stop-color:#C9A794"/>
							</linearGradient>
							<polygon fill="url(#SVGID_13_)" stroke="url(#SVGID_14_)" stroke-width="0.1070121" stroke-miterlimit="10" points="
								25.6484261,9.4873724 26.9286118,9.4873724 28.5456696,6.7585635 26.9286118,4.0297551 25.6484261,4.0297551 
								27.2654858,6.7585635 							"/>
							<polygon opacity="0.41" fill="#0C080F" enable-background="new    " points="22.5533142,9.9154205 24.3685608,9.9154205 
								26.0926323,7.0795999 24.4755726,4.3507915 22.5533142,4.3507915 24.1703758,7.0795999 							"/>
							
								<linearGradient id="SVGID_15_" gradientUnits="userSpaceOnUse" x1="24.7904377" y1="11.0028305" x2="23.613306" y2="3.9400313" gradientTransform="matrix(1 0 0 -1 0 15.5184174)">
								<stop  offset="0" style="stop-color:#FFF0E6"/>
								<stop  offset="0.09497" style="stop-color:#DCAC8E"/>
								<stop  offset="0.29609" style="stop-color:#DCAC92"/>
								<stop  offset="0.48324" style="stop-color:#A76166"/>
								<stop  offset="1" style="stop-color:#C9A7A2"/>
							</linearGradient>
							
								<linearGradient id="SVGID_16_" gradientUnits="userSpaceOnUse" x1="22.072279" y1="7.7601757" x2="25.5670643" y2="9.7778912" gradientTransform="matrix(1 0 0 -1 0 15.5184174)">
								<stop  offset="0" style="stop-color:#DCAC8E"/>
								<stop  offset="0.03631" style="stop-color:#BE9791"/>
								<stop  offset="0.39106" style="stop-color:#DCA58E"/>
								<stop  offset="0.56145" style="stop-color:#83596F"/>
								<stop  offset="0.7904999" style="stop-color:#EAC9AB"/>
								<stop  offset="1" style="stop-color:#C9A794"/>
							</linearGradient>
							<polygon fill="url(#SVGID_15_)" stroke="url(#SVGID_16_)" stroke-width="0.1070121" stroke-miterlimit="10" points="
								23.1953869,9.4873724 24.4755726,9.4873724 26.0926323,6.7585635 24.4755726,4.0297551 23.1953869,4.0297551 
								24.8124485,6.7585635 							"/>
							<polygon opacity="0.41" fill="#0C080F" enable-background="new    " points="7.0877109,9.9154205 5.2724648,9.9154205 
								3.5483925,7.0795999 5.1654525,4.3507915 7.0877109,4.3507915 5.4706507,7.0795999 							"/>
							
								<linearGradient id="SVGID_17_" gradientUnits="userSpaceOnUse" x1="10830.9482422" y1="11.0028334" x2="10829.7714844" y2="3.9400342" gradientTransform="matrix(-1 0 0 -1 10835.7988281 15.5184174)">
								<stop  offset="0" style="stop-color:#FFF0E6"/>
								<stop  offset="0.09497" style="stop-color:#DCAC8E"/>
								<stop  offset="0.29609" style="stop-color:#DCAC92"/>
								<stop  offset="0.48324" style="stop-color:#A76166"/>
								<stop  offset="1" style="stop-color:#C9A7A2"/>
							</linearGradient>
							
								<linearGradient id="SVGID_18_" gradientUnits="userSpaceOnUse" x1="10828.2304688" y1="7.7601862" x2="10831.7246094" y2="9.7778854" gradientTransform="matrix(-1 0 0 -1 10835.7988281 15.5184174)">
								<stop  offset="0" style="stop-color:#DCAC8E"/>
								<stop  offset="0.03631" style="stop-color:#BE9791"/>
								<stop  offset="0.39106" style="stop-color:#DCA58E"/>
								<stop  offset="0.56145" style="stop-color:#83596F"/>
								<stop  offset="0.7904999" style="stop-color:#EAC9AB"/>
								<stop  offset="1" style="stop-color:#C9A794"/>
							</linearGradient>
							<polygon fill="url(#SVGID_17_)" stroke="url(#SVGID_18_)" stroke-width="0.1070121" stroke-miterlimit="10" points="
								6.4456382,9.4873724 5.1654525,9.4873724 3.5483925,6.7585635 5.1654525,4.0297551 6.4456382,4.0297551 4.828578,6.7585635 
															"/>
							<polygon opacity="0.41" fill="#0C080F" enable-background="new    " points="9.5407495,9.9154205 7.725503,9.9154205 
								6.0013237,7.0795999 7.6184912,4.3507915 9.5407495,4.3507915 7.9235826,7.0795999 							"/>
							
								<linearGradient id="SVGID_19_" gradientUnits="userSpaceOnUse" x1="10828.4951172" y1="11.0028267" x2="10827.3183594" y2="3.940028" gradientTransform="matrix(-1 0 0 -1 10835.7988281 15.5184174)">
								<stop  offset="0" style="stop-color:#FFF0E6"/>
								<stop  offset="0.09497" style="stop-color:#DCAC8E"/>
								<stop  offset="0.29609" style="stop-color:#DCAC92"/>
								<stop  offset="0.48324" style="stop-color:#A76166"/>
								<stop  offset="1" style="stop-color:#C9A7A2"/>
							</linearGradient>
							
								<linearGradient id="SVGID_20_" gradientUnits="userSpaceOnUse" x1="10825.7773438" y1="7.7601857" x2="10829.2714844" y2="9.7779341" gradientTransform="matrix(-1 0 0 -1 10835.7988281 15.5184174)">
								<stop  offset="0" style="stop-color:#DCAC8E"/>
								<stop  offset="0.03631" style="stop-color:#BE9791"/>
								<stop  offset="0.39106" style="stop-color:#DCA58E"/>
								<stop  offset="0.56145" style="stop-color:#83596F"/>
								<stop  offset="0.7904999" style="stop-color:#EAC9AB"/>
								<stop  offset="1" style="stop-color:#C9A794"/>
							</linearGradient>
							<polygon fill="url(#SVGID_19_)" stroke="url(#SVGID_20_)" stroke-width="0.1070121" stroke-miterlimit="10" points="
								8.8986769,9.4873724 7.6184912,9.4873724 6.0013237,6.7585635 7.6184912,4.0297551 8.8986769,4.0297551 7.2815099,6.7585635 
															"/>
						</g>
						<g id="f793348f-a51d-499e-a01b-03a920851aa2">
							
								<linearGradient id="SVGID_21_" gradientUnits="userSpaceOnUse" x1="15.8877659" y1="12.3104019" x2="15.8877659" y2="2.3395479" gradientTransform="matrix(1 0 0 -1 0 15.5184174)">
								<stop  offset="0" style="stop-color:#0A081C"/>
								<stop  offset="0.8392299" style="stop-color:#0A081C;stop-opacity:0.4"/>
								<stop  offset="1" style="stop-color:#0A081C;stop-opacity:0.2"/>
							</linearGradient>
							<path opacity="0.34" fill="url(#SVGID_21_)" enable-background="new    " d="M12.1472645,3.8800535
								c-1.4757566,0.0049002-1.6027946,1.7594705-1.5650625,2.7109728s0.1769209,2.0107889,0.1959019,2.7706776
								c0.01898,0.7598896,0.7672071,1.0995932,1.5726414,1.5098066c0.6480217,0.3300419,0.2049942,1.0631647,0.3181925,1.3636427
								c0.2263956,0,0.5501242-0.0027828,0.8694839-0.0027828c1.252408,0,5.6619167,0.0013914,5.6619167,0.0013914
								s0.3554897,0.0717173,0.919733-0.7998734c0.5488091-0.847743,0.4677601-2.4707603,0.4677601-3.1306686
								c0-0.5495872-0.0535049-1.4929857,0.081049-2.4612784c0.1357307-0.9767637,0.9510651-1.138123,0.2467213-2.4401777
								c-0.7043419-1.3020549-2.9151421-1.2761195-2.9151421-1.2761195S16.0421562,0.84415,14.0734816,1.2279745
								C13.1168623,1.4144861,12.7053328,3.8782001,12.1472645,3.8800535z"/>
							<g opacity="0.77">
								
									<radialGradient id="SVGID_22_" cx="14.0734816" cy="9.0292196" r="3.6919177" gradientTransform="matrix(1 0 0 -1 0 15.5184174)" gradientUnits="userSpaceOnUse">
									<stop  offset="0" style="stop-color:#0D1142"/>
									<stop  offset="1" style="stop-color:#0D1142;stop-opacity:0"/>
								</radialGradient>
								<circle fill="url(#SVGID_22_)" cx="14.0734816" cy="6.4891982" r="3.6919174"/>
							</g>
							<g opacity="0.77">
								
									<radialGradient id="SVGID_23_" cx="14.2458906" cy="6.6121602" r="3.6919177" gradientTransform="matrix(1 0 0 -1 0 15.5184174)" gradientUnits="userSpaceOnUse">
									<stop  offset="0" style="stop-color:#0D1142"/>
									<stop  offset="1" style="stop-color:#0D1142;stop-opacity:0"/>
								</radialGradient>
								<circle fill="url(#SVGID_23_)" cx="14.2458906" cy="8.9062567" r="3.6919177"/>
							</g>
							<g opacity="0.77">
								
									<radialGradient id="SVGID_24_" cx="17.6583881" cy="9.0584726" r="3.6919177" gradientTransform="matrix(1 0 0 -1 0 15.5184174)" gradientUnits="userSpaceOnUse">
									<stop  offset="0" style="stop-color:#0D1142"/>
									<stop  offset="1" style="stop-color:#0D1142;stop-opacity:0"/>
								</radialGradient>
								<circle fill="url(#SVGID_24_)" cx="17.6583881" cy="6.4599442" r="3.6919179"/>
							</g>
							
								<radialGradient id="SVGID_25_" cx="17.3908577" cy="6.6121602" r="3.6919177" gradientTransform="matrix(1 0 0 -1 0 15.5184174)" gradientUnits="userSpaceOnUse">
								<stop  offset="0" style="stop-color:#0D1142"/>
								<stop  offset="1" style="stop-color:#0D1142;stop-opacity:0"/>
							</radialGradient>
							<circle fill="url(#SVGID_25_)" cx="17.3908577" cy="8.9062567" r="3.6919177"/>
							<g id="a6435559-86b7-4dd5-b54c-973d32da1f26">
								
									<linearGradient id="SVGID_26_" gradientUnits="userSpaceOnUse" x1="13.899992" y1="14.8234615" x2="18.9295616" y2="1.2329234" gradientTransform="matrix(1 0 0 -1 0 15.5184174)">
									<stop  offset="0" style="stop-color:#C2AEB8"/>
									<stop  offset="0.26213" style="stop-color:#CEC7C5"/>
									<stop  offset="0.47762" style="stop-color:#9F8B8A"/>
									<stop  offset="0.50727" style="stop-color:#A48E8E"/>
									<stop  offset="0.70715" style="stop-color:#C2A1A4"/>
									<stop  offset="0.8783901" style="stop-color:#D4ADB1"/>
									<stop  offset="1" style="stop-color:#DBB1B6"/>
								</linearGradient>
								<path fill-rule="evenodd" clip-rule="evenodd" fill="url(#SVGID_26_)" d="M19.0247726,1.586722L19.024744,1.5866996
									c-0.4363956-0.5278511-0.9268894-1.1210846-2.5344791-1.1210846c-1.8247223,0-2.7532358,0.7643158-2.848155,1.6228728
									c-0.019228,0.1738179-0.0388861,0.3257546-0.0590544,0.481699
									c-0.0794506,0.6143363-0.1669388,1.2909086-0.2680359,3.6127031
									c-0.1267405,2.9111958-0.0104265,5.2253294,0.1898956,5.9373398S14.1590376,13,14.6441765,13
									s0.8862677-0.1993246,0.8862677-0.7958755c0-0.1668501-0.0066099-0.3378296-0.013133-0.5065317v-0.0000277
									c-0.0168076-0.4345446-0.0329895-0.8539333,0.0658045-1.1478939
									c0.1371889-0.4080791,0.200326-0.5551014,0.7804079-0.4297609s2.0981693,0.3769712,2.2139988,0.2935905
									c0,0,0.0787964,0.1375923-0.3114223,0.2633915c-0.3901901,0.1258278-0.436224,0.1710644-0.4675598,0.4118395
									c-0.0313358,0.2408047-0.0531578,0.9268894,0.0949459,1.1780624
									c0.1481056,0.2511435,0.6009407,0.3453789,0.9071198,0.3246689c0.306181-0.0207376,0.685461-0.0735254,0.8017731-0.7436018
									c0.0324173-0.18682,0.0754337-0.3981085,0.1220112-0.6267767v-0.0000563
									c0.1482353-0.6594849,0.2519436-1.3281937,0.3104267-2.0015984c0.063612-0.9740076,0.105402-3.1934485,0-3.5077496
									c-0.4536304,0.1119418-0.9158707,0.1855555-1.3818321,0.2200632
									c-0.9071484,0.0838671-2.0886574,0.0414486-2.7745991-0.4504976
									c-0.6859436-0.4919467-0.749074-1.2458887-0.685462-1.9371598c0.063612-0.6912982,0.1058598-1.0286775,0.9019346-1.4607828
									c0.838295-0.4556684,3.10639-0.2879152,3.10639-0.2879152C19.1416836,1.7281095,19.0837116,1.6580113,19.0247726,1.586722z
									 M16.4325771,2.3948934c-0.6064949,0.2851605-0.6069498,0.9291594-0.6064949,1.3202899
									c0.0004559,0.3911581,0.0409069,1.4258156,1.3639679,1.5522418c1.3230324,0.1264262,2.0914192-0.042304,2.8388691-0.4648266
									c0.747448-0.4224944,0.7706356-1.2646916,0.4246578-1.6577246
									c-0.7074585-0.8027301-1.0661926-0.8398011-2.6270084-0.9614697
									C17.8270264,2.183399,17.0390987,2.1097307,16.4325771,2.3948934z M12.8264904,7.0795259
									c0.001152-0.9721131,0.0514994-1.9435453,0.1508455-2.9105697l-0.9705095,0.0414782
									c-0.4450331,0.0187149-0.5017366,0.3818994-0.6024685,1.0270495
									c-0.0097389,0.0623884-0.019886,0.1273952-0.030838,0.1949677c-0.1242323,0.7666764-0.1559925,2.6827006,0,3.7700295
									s1.5571251,0.9423866,1.5571251,0.9423866S12.8264904,8.6641569,12.8264904,7.0795259z"/>
							</g>
							<g opacity="0.75">
								
									<radialGradient id="SVGID_27_" cx="14.7690601" cy="12.8966208" r="1.6586876" gradientTransform="matrix(1 0 0 -1 0 15.5184174)" gradientUnits="userSpaceOnUse">
									<stop  offset="0" style="stop-color:#E6EEFF"/>
									<stop  offset="1" style="stop-color:#E6EEFF;stop-opacity:0"/>
								</radialGradient>
								<circle fill="url(#SVGID_27_)" cx="14.7690601" cy="2.6217966" r="1.6586876"/>
							</g>
							<g opacity="0.37">
								
									<radialGradient id="SVGID_28_" cx="14.7690601" cy="12.8966208" r="2.6217966" gradientTransform="matrix(1 0 0 -1 0 15.5184174)" gradientUnits="userSpaceOnUse">
									<stop  offset="0" style="stop-color:#E6EEFF"/>
									<stop  offset="1" style="stop-color:#E6EEFF;stop-opacity:0"/>
								</radialGradient>
								<circle fill="url(#SVGID_28_)" cx="14.7690601" cy="2.6217966" r="2.6217966"/>
							</g>
						</g>
					</g>
				</g>
			</g>
		</g>
	</g>
</g>
</svg>
