<?xml version="1.0" encoding="utf-8"?>
<!-- Generator: Adobe Illustrator 24.3.0, SVG Export Plug-In . SVG Version: 6.00 Build 0)  -->
<svg version="1.1" id="Слой_1" xmlns="http://www.w3.org/2000/svg" xmlns:xlink="http://www.w3.org/1999/xlink" x="0px" y="0px"
	 width="32px" height="13px" viewBox="0 0 32 13" enable-background="new 0 0 32 13" xml:space="preserve">
<g>
	<g id="b77052d2-eb22-4c18-8589-1ae84784cc91">
		<g id="e9557ab7-d2aa-443a-9271-9cc68ecdee9e">
			<g id="b6db0dd3-fe3e-4e20-9297-8c61f2bccb9b">
				<g id="a38e48f7-d8b6-4451-887e-d11d10540e83">
					<g id="ade594bd-0da9-4b77-91e9-a024db6c9159">
						<g id="bdaf1341-c67b-4c8f-a470-1083432b3e84">
							
								<linearGradient id="SVGID_1_" gradientUnits="userSpaceOnUse" x1="17.7415619" y1="13.9349566" x2="13.7907572" y2="2.5098183" gradientTransform="matrix(1 0 0 -1 0 15.5184174)">
								<stop  offset="0" style="stop-color:#0E0B16"/>
								<stop  offset="1" style="stop-color:#20213A"/>
							</linearGradient>
							
								<linearGradient id="SVGID_2_" gradientUnits="userSpaceOnUse" x1="15.9499016" y1="13.8157587" x2="15.9499016" y2="3.6930957" gradientTransform="matrix(1 0 0 -1 0 15.5184174)">
								<stop  offset="0" style="stop-color:#5A5C7D"/>
								<stop  offset="1" style="stop-color:#404759"/>
							</linearGradient>
							
								<polygon opacity="0.4" fill="url(#SVGID_1_)" stroke="url(#SVGID_2_)" stroke-width="0.0993675" stroke-miterlimit="10" enable-background="new    " points="
								28.8815384,11.7756376 3.1180398,11.7756376 0.0513613,6.7639408 3.1180398,1.7523428 28.8815384,1.7523428 
								31.8489494,6.7639408 							"/>
							
								<linearGradient id="SVGID_3_" gradientUnits="userSpaceOnUse" x1="15.9997892" y1="13.8718624" x2="15.9997892" y2="3.2055993" gradientTransform="matrix(1 0 0 -1 0 15.5184174)">
								<stop  offset="0" style="stop-color:#151324"/>
								<stop  offset="0.49721" style="stop-color:#151324"/>
								<stop  offset="0.7904999" style="stop-color:#32304E"/>
								<stop  offset="1" style="stop-color:#111B39"/>
							</linearGradient>
							<polygon fill="url(#SVGID_3_)" points="28.5190449,11.1857929 3.4806316,11.1857929 0.768993,6.7639408 3.4806316,2.3420887 
								28.5190449,2.3420887 31.230587,6.7639408 							"/>
							
								<linearGradient id="SVGID_4_" gradientUnits="userSpaceOnUse" x1="15.999795" y1="13.2756348" x2="15.999795" y2="4.2332015" gradientTransform="matrix(1 0 0 -1 0 15.5184174)">
								<stop  offset="0" style="stop-color:#90909A"/>
								<stop  offset="0.59777" style="stop-color:#556080"/>
								<stop  offset="1" style="stop-color:#535972"/>
							</linearGradient>
							<path fill="url(#SVGID_4_)" d="M28.5190296,2.3421493l2.7115955,4.4218521l-2.7115955,4.4218526H3.4806128
								L0.7689681,6.7640018l2.7116446-4.4218521h25.038414 M28.5190258,2.2427821H3.4806128L3.3958981,2.2901804
								L0.6842535,6.7120323v0.1039281l2.7116446,4.4218516l0.0847147,0.0474033h25.038414l0.0847149-0.0474033l2.7115974-4.4218516
								V6.7120323l-2.7115974-4.4218521C28.6037407,2.2901802,28.5190258,2.2427821,28.5190258,2.2427821z"/>
							<polygon opacity="0.32" fill="#0A0916" enable-background="new    " points="4.4491663,6.8655934 6.3260193,10.6135359 
								25.5205326,10.6135359 27.5409718,6.8830824 25.6419621,3.6082289 6.4143567,3.6082289 							"/>
							
								<linearGradient id="SVGID_5_" gradientUnits="userSpaceOnUse" x1="15.9998388" y1="11.9065943" x2="15.9998388" y2="4.5523062" gradientTransform="matrix(1 0 0 -1 0 15.5184174)">
								<stop  offset="0" style="stop-color:#151B5A"/>
								<stop  offset="1" style="stop-color:#6E6BE5"/>
							</linearGradient>
							<polygon fill="url(#SVGID_5_)" points="25.4243469,10.0927505 6.5752325,10.0927505 4.5339265,6.7639408 
								6.5752325,3.4351308 25.4243469,3.4351308 27.4657516,6.7639408 							"/>
							
								<linearGradient id="SVGID_6_" gradientUnits="userSpaceOnUse" x1="4.4173665" y1="8.7544136" x2="27.5822639" y2="8.7544136" gradientTransform="matrix(1 0 0 -1 0 15.5184174)">
								<stop  offset="0" style="stop-color:#151B4A"/>
								<stop  offset="0.25419" style="stop-color:#6D739F"/>
								<stop  offset="1" style="stop-color:#37418B"/>
							</linearGradient>
							<path fill="url(#SVGID_6_)" d="M25.4243736,3.4351914l2.0413513,3.32881l-2.0413513,3.3288102H6.5752192L4.5339136,6.7640018
								l2.0413055-3.32881h18.8491554 M25.4800243,3.3358243H6.5196161L6.4905019,3.3832226l-2.041306,3.3288097
								L4.4173665,6.7640014l0.0318294,0.0519691l2.041306,3.3288097l0.0291142,0.0474033h18.9604073l0.0290623-0.0474033
								l2.0413513-3.3288097l0.0318279-0.0519691L27.550436,6.7120323l-2.0413513-3.32881L25.4800224,3.335824L25.4800243,3.3358243
								z"/>
							
								<linearGradient id="SVGID_7_" gradientUnits="userSpaceOnUse" x1="15.9997091" y1="5.5094833" x2="16.0014343" y2="5.7156501" gradientTransform="matrix(1 0 0 -1 0 15.5184174)">
								<stop  offset="0" style="stop-color:#CDC8E2"/>
								<stop  offset="1" style="stop-color:#EFC8D6;stop-opacity:0"/>
							</linearGradient>
							<polygon opacity="0.57" fill="url(#SVGID_7_)" enable-background="new    " points="24.8932266,9.7946482 
								7.6032882,9.7946482 6.708981,9.9933834 25.2906971,9.9933834 							"/>
							
								<linearGradient id="SVGID_8_" gradientUnits="userSpaceOnUse" x1="2.9659977" y1="-9222.4042969" x2="29.7958603" y2="-9222.4042969" gradientTransform="matrix(1 0 0 1 0 9229.9384766)">
								<stop  offset="0.00559" style="stop-color:#9DBBFF;stop-opacity:0.2"/>
								<stop  offset="1" style="stop-color:#7EA4E8;stop-opacity:0.2"/>
							</linearGradient>
							<path fill="url(#SVGID_8_)" d="M26.9610424,7.5867453c-0.6955719-0.4093943-1.4202194-1.2668357-2.117527-1.0214972
								c-0.8471699,0.2980566-1.7940235,0.6019359-3.3259945-0.7233229
								c-2.6569653-2.2984447-6.7014914,0.6771326-7.5050583,0.9220576
								c-1.8581667,0.5663943-3.3288097,2.4345026-5.2664757,1.1924095
								C7.3577724,7.0665112,5.7152796,7.4873776,4.7156372,7.0610914l1.8591738,3.0317011h18.8499985L26.9610424,7.5867453z"/>
							
								<linearGradient id="SVGID_9_" gradientUnits="userSpaceOnUse" x1="5.0776" y1="13.4955692" x2="3.7030156" y2="5.0658965" gradientTransform="matrix(1 0 0 -1 0 15.5184174)">
								<stop  offset="0" style="stop-color:#9AAAD0"/>
								<stop  offset="0.29609" style="stop-color:#9AAAD0"/>
								<stop  offset="0.48324" style="stop-color:#293563"/>
								<stop  offset="1" style="stop-color:#8695B6"/>
							</linearGradient>
							
								<linearGradient id="SVGID_10_" gradientUnits="userSpaceOnUse" x1="1.7822233" y1="8.7544765" x2="6.1999707" y2="8.7544765" gradientTransform="matrix(1 0 0 -1 0 15.5184174)">
								<stop  offset="0" style="stop-color:#9AAAD0"/>
								<stop  offset="0.29609" style="stop-color:#E0E8FB"/>
								<stop  offset="0.48324" style="stop-color:#293563"/>
								<stop  offset="1" style="stop-color:#8695B6"/>
							</linearGradient>
							<polygon fill="url(#SVGID_9_)" stroke="url(#SVGID_10_)" stroke-width="0.0993675" stroke-miterlimit="10" points="
								6.1127763,10.7883234 4.2247944,10.7883234 1.8399756,6.7639408 4.2247944,2.7395585 6.1127763,2.7395585 
								3.7279572,6.7639408 							"/>
							
								<linearGradient id="SVGID_11_" gradientUnits="userSpaceOnUse" x1="2.7887673" y1="12.2656126" x2="1.1823272" y2="6.9494534" gradientTransform="matrix(1 0 0 -1 0 15.5184174)">
								<stop  offset="0" style="stop-color:#9AAAD0"/>
								<stop  offset="0.29609" style="stop-color:#9AAAD0"/>
								<stop  offset="0.48324" style="stop-color:#293563"/>
								<stop  offset="1" style="stop-color:#8695B6"/>
							</linearGradient>
							
								<linearGradient id="SVGID_12_" gradientUnits="userSpaceOnUse" x1="-0.0579626" y1="8.7544765" x2="2.7772584" y2="8.7544765" gradientTransform="matrix(1 0 0 -1 0 15.5184174)">
								<stop  offset="0" style="stop-color:#9AAAD0"/>
								<stop  offset="0.29609" style="stop-color:#9AAAD0"/>
								<stop  offset="0.48324" style="stop-color:#293563"/>
								<stop  offset="1" style="stop-color:#8695B6"/>
							</linearGradient>
							<polygon fill="url(#SVGID_11_)" stroke="url(#SVGID_12_)" stroke-width="0.0993675" stroke-miterlimit="10" points="
								2.6900642,9.2978115 1.5013313,9.2978115 -0.0002105,6.7639408 1.5013313,4.2300706 2.6900642,4.2300706 
								1.1885225,6.7639408 							"/>
							
								<linearGradient id="SVGID_13_" gradientUnits="userSpaceOnUse" x1="28.2193451" y1="11.9429216" x2="27.1263027" y2="5.3846693" gradientTransform="matrix(1 0 0 -1 0 15.5184174)">
								<stop  offset="0" style="stop-color:#CBD5EE"/>
								<stop  offset="0.09497" style="stop-color:#9AAAD0"/>
								<stop  offset="0.29609" style="stop-color:#9AAAD0"/>
								<stop  offset="0.48324" style="stop-color:#293563"/>
								<stop  offset="1" style="stop-color:#8695B6"/>
							</linearGradient>
							
								<linearGradient id="SVGID_14_" gradientUnits="userSpaceOnUse" x1="25.7997074" y1="8.7544765" x2="30.2174549" y2="8.7544765" gradientTransform="matrix(1 0 0 -1 0 15.5184174)">
								<stop  offset="0" style="stop-color:#9AAAD0"/>
								<stop  offset="0.29609" style="stop-color:#9AAAD0"/>
								<stop  offset="0.48324" style="stop-color:#293563"/>
								<stop  offset="1" style="stop-color:#8695B6"/>
							</linearGradient>
							<polygon fill="url(#SVGID_13_)" stroke="url(#SVGID_14_)" stroke-width="0.0993675" stroke-miterlimit="10" points="
								25.8869019,10.7883234 27.7748833,10.7883234 30.1597023,6.7639408 27.7748833,2.7395585 25.8869019,2.7395585 
								28.2717209,6.7639408 							"/>
							
								<linearGradient id="SVGID_15_" gradientUnits="userSpaceOnUse" x1="30.790617" y1="10.8372049" x2="29.6975765" y2="4.2789531" gradientTransform="matrix(1 0 0 -1 0 15.5184174)">
								<stop  offset="0" style="stop-color:#E6EDFF"/>
								<stop  offset="0.09497" style="stop-color:#9AAAD0"/>
								<stop  offset="0.29609" style="stop-color:#9AAAD0"/>
								<stop  offset="0.48324" style="stop-color:#293563"/>
								<stop  offset="1" style="stop-color:#8695B6"/>
							</linearGradient>
							
								<linearGradient id="SVGID_16_" gradientUnits="userSpaceOnUse" x1="29.2223206" y1="8.7544765" x2="32.0575409" y2="8.7544765" gradientTransform="matrix(1 0 0 -1 0 15.5184174)">
								<stop  offset="0" style="stop-color:#9AAAD0"/>
								<stop  offset="0.03631" style="stop-color:#AFB6C3"/>
								<stop  offset="0.29609" style="stop-color:#9AAAD0"/>
								<stop  offset="0.48324" style="stop-color:#293563"/>
								<stop  offset="1" style="stop-color:#8695B6"/>
							</linearGradient>
							<polygon fill="url(#SVGID_15_)" stroke="url(#SVGID_16_)" stroke-width="0.0993675" stroke-miterlimit="10" points="
								29.309515,9.2978115 30.4982452,9.2978115 31.9997902,6.7639408 30.4982452,4.2300706 29.309515,4.2300706 
								30.8110561,6.7639408 							"/>
							<g opacity="0.15">
								
									<radialGradient id="SVGID_17_" cx="2.7839386" cy="10.3443174" r="1.1427258" gradientTransform="matrix(1 0 0 -1 0 15.5184174)" gradientUnits="userSpaceOnUse">
									<stop  offset="0" style="stop-color:#E6EEFF"/>
									<stop  offset="1" style="stop-color:#E6EEFF;stop-opacity:0"/>
								</radialGradient>
								<circle fill="url(#SVGID_17_)" cx="2.7839386" cy="5.1740999" r="1.1427258"/>
							</g>
							<g opacity="0.43">
								
									<radialGradient id="SVGID_18_" cx="27.6258049" cy="12.6297684" r="1.1427258" gradientTransform="matrix(1 0 0 -1 0 15.5184174)" gradientUnits="userSpaceOnUse">
									<stop  offset="0" style="stop-color:#E6EEFF"/>
									<stop  offset="1" style="stop-color:#E6EEFF;stop-opacity:0"/>
								</radialGradient>
								<circle fill="url(#SVGID_18_)" cx="27.6258049" cy="2.8886485" r="1.1427258"/>
							</g>
							<polygon opacity="0.62" fill="#959DC7" enable-background="new    " points="8.1651115,5.4146299 8.1651115,5.4146299 
								7.5904698,6.4911771 6.3055491,6.6637783 7.2353311,7.5017438 7.0158281,8.6850119 8.1651115,8.1263685 8.1651115,8.1263685 
								9.3143959,8.6850119 9.0948935,7.5017438 10.0247736,6.6637783 8.7397537,6.4911771 							"/>
							
								<linearGradient id="SVGID_19_" gradientUnits="userSpaceOnUse" x1="7.1084952" y1="9.2026958" x2="7.1986737" y2="8.6716461" gradientTransform="matrix(1 0 0 -1 0 15.5184174)">
								<stop  offset="0" style="stop-color:#DBDBDB"/>
								<stop  offset="1" style="stop-color:#9CA5E0"/>
							</linearGradient>
							<polygon fill="url(#SVGID_19_)" points="7.4977603,6.242063 6.3055491,6.4152603 8.0309658,6.9200473 							"/>
							
								<linearGradient id="SVGID_20_" gradientUnits="userSpaceOnUse" x1="7.4977603" y1="9.4775734" x2="8.0309658" y2="9.4775734" gradientTransform="matrix(1 0 0 -1 0 15.5184174)">
								<stop  offset="0" style="stop-color:#9CA5E0"/>
								<stop  offset="1" style="stop-color:#6468B3"/>
							</linearGradient>
							<polygon fill="url(#SVGID_20_)" points="8.0309658,5.1616402 7.4977603,6.242063 8.0309658,6.9200473 							"/>
							
								<linearGradient id="SVGID_21_" gradientUnits="userSpaceOnUse" x1="8.0309658" y1="9.4775734" x2="8.5641708" y2="9.4775734" gradientTransform="matrix(1 0 0 -1 0 15.5184174)">
								<stop  offset="0" style="stop-color:#DBDBDB"/>
								<stop  offset="1" style="stop-color:#9CA5E0"/>
							</linearGradient>
							<polygon fill="url(#SVGID_21_)" points="8.5641708,6.242063 8.0309658,5.1616402 8.0309658,5.1616402 8.0309658,6.9200473 
															"/>
							
								<linearGradient id="SVGID_22_" gradientUnits="userSpaceOnUse" x1="6.9667401" y1="8.3570452" x2="7.1671362" y2="8.8480158" gradientTransform="matrix(1 0 0 -1 0 15.5184174)">
								<stop  offset="0" style="stop-color:#9CA5E0"/>
								<stop  offset="1" style="stop-color:#6468B3"/>
							</linearGradient>
							<polygon fill="url(#SVGID_22_)" points="6.3055491,6.4152603 7.1682577,7.256207 8.0309658,6.9200473 							"/>
							
								<linearGradient id="SVGID_23_" gradientUnits="userSpaceOnUse" x1="9.0083332" y1="9.2327957" x2="8.858036" y2="8.7318039" gradientTransform="matrix(1 0 0 -1 0 15.5184174)">
								<stop  offset="0" style="stop-color:#DBDBDB"/>
								<stop  offset="1" style="stop-color:#9CA5E0"/>
							</linearGradient>
							<polygon fill="url(#SVGID_23_)" points="9.7564812,6.4152603 8.5641708,6.242063 8.0309658,6.9200473 							"/>
							
								<linearGradient id="SVGID_24_" gradientUnits="userSpaceOnUse" x1="7.4935956" y1="7.8398223" x2="8.0747452" y2="7.3789101" gradientTransform="matrix(1 0 0 -1 0 15.5184174)">
								<stop  offset="0" style="stop-color:#9CA5E0"/>
								<stop  offset="1" style="stop-color:#6468B3"/>
							</linearGradient>
							<polygon fill="url(#SVGID_24_)" points="6.9645538,8.4437475 8.0309658,7.8830166 8.0309658,6.9200473 							"/>
							
								<linearGradient id="SVGID_25_" gradientUnits="userSpaceOnUse" x1="9.0646505" y1="8.2450743" x2="8.5736799" y2="7.8442812" gradientTransform="matrix(1 0 0 -1 0 15.5184174)">
								<stop  offset="0" style="stop-color:#DBDBDB"/>
								<stop  offset="1" style="stop-color:#9CA5E0"/>
							</linearGradient>
							<polygon fill="url(#SVGID_25_)" points="9.0973778,8.4437475 8.8937731,7.256207 8.0309658,6.9200473 							"/>
							
								<linearGradient id="SVGID_26_" gradientUnits="userSpaceOnUse" x1="6.9645538" y1="7.8365197" x2="8.0309658" y2="7.8365197" gradientTransform="matrix(1 0 0 -1 0 15.5184174)">
								<stop  offset="0" style="stop-color:#DBDBDB"/>
								<stop  offset="1" style="stop-color:#9CA5E0"/>
							</linearGradient>
							<polygon fill="url(#SVGID_26_)" points="7.1682577,7.256207 6.9645538,8.4437475 8.0309658,6.9200473 							"/>
							
								<linearGradient id="SVGID_27_" gradientUnits="userSpaceOnUse" x1="9.1390772" y1="8.3805017" x2="8.8986025" y2="8.8414135" gradientTransform="matrix(1 0 0 -1 0 15.5184174)">
								<stop  offset="0" style="stop-color:#9CA5E0"/>
								<stop  offset="1" style="stop-color:#6468B3"/>
							</linearGradient>
							<polygon fill="url(#SVGID_27_)" points="8.0309658,6.9200473 8.8937731,7.256207 9.7564812,6.4152603 							"/>
							
								<linearGradient id="SVGID_28_" gradientUnits="userSpaceOnUse" x1="8.0688629" y1="7.4422951" x2="8.5598345" y2="7.8330679" gradientTransform="matrix(1 0 0 -1 0 15.5184174)">
								<stop  offset="0" style="stop-color:#9CA5E0"/>
								<stop  offset="1" style="stop-color:#6468B3"/>
							</linearGradient>
							<polygon fill="url(#SVGID_28_)" points="8.0309658,7.8830166 8.0309658,7.8830166 9.0973778,8.4437475 8.0309658,6.9200473 
															"/>
							<polygon opacity="0.62" fill="#959DC7" enable-background="new    " points="24.0287285,5.4146299 24.0287285,5.4146299 
								23.4540882,6.4911771 22.1691666,6.6637783 23.0989475,7.5017438 22.879446,8.6850119 24.0287285,8.1263685 
								24.0287285,8.1263685 25.1780148,8.6850119 24.9585114,7.5017438 25.8882942,6.6637783 24.6033707,6.4911771 							"/>
							
								<linearGradient id="SVGID_29_" gradientUnits="userSpaceOnUse" x1="22.9721127" y1="9.2026978" x2="23.0622902" y2="8.671648" gradientTransform="matrix(1 0 0 -1 0 15.5184174)">
								<stop  offset="0" style="stop-color:#DBDBDB"/>
								<stop  offset="1" style="stop-color:#9CA5E0"/>
							</linearGradient>
							<polygon fill="url(#SVGID_29_)" points="23.3613777,6.242063 22.1691666,6.4152603 23.8945827,6.9200473 							"/>
							
								<linearGradient id="SVGID_30_" gradientUnits="userSpaceOnUse" x1="23.3613777" y1="9.4775734" x2="23.8945827" y2="9.4775734" gradientTransform="matrix(1 0 0 -1 0 15.5184174)">
								<stop  offset="0" style="stop-color:#9CA5E0"/>
								<stop  offset="1" style="stop-color:#6468B3"/>
							</linearGradient>
							<polygon fill="url(#SVGID_30_)" points="23.8945827,5.1616402 23.3613777,6.242063 23.8945827,6.9200473 							"/>
							
								<linearGradient id="SVGID_31_" gradientUnits="userSpaceOnUse" x1="23.8945827" y1="9.4775734" x2="24.4277897" y2="9.4775734" gradientTransform="matrix(1 0 0 -1 0 15.5184174)">
								<stop  offset="0" style="stop-color:#DBDBDB"/>
								<stop  offset="1" style="stop-color:#9CA5E0"/>
							</linearGradient>
							<polygon fill="url(#SVGID_31_)" points="24.4277897,6.242063 23.8945827,5.1616402 23.8945827,5.1616402 
								23.8945827,6.9200473 							"/>
							
								<linearGradient id="SVGID_32_" gradientUnits="userSpaceOnUse" x1="22.8303566" y1="8.3570414" x2="23.0307522" y2="8.848012" gradientTransform="matrix(1 0 0 -1 0 15.5184174)">
								<stop  offset="0" style="stop-color:#9CA5E0"/>
								<stop  offset="1" style="stop-color:#6468B3"/>
							</linearGradient>
							<polygon fill="url(#SVGID_32_)" points="22.1691666,6.4152603 23.0318756,7.256207 23.8945827,6.9200473 							"/>
							
								<linearGradient id="SVGID_33_" gradientUnits="userSpaceOnUse" x1="24.8719501" y1="9.2327929" x2="24.721653" y2="8.731801" gradientTransform="matrix(1 0 0 -1 0 15.5184174)">
								<stop  offset="0" style="stop-color:#DBDBDB"/>
								<stop  offset="1" style="stop-color:#9CA5E0"/>
							</linearGradient>
							<polygon fill="url(#SVGID_33_)" points="25.6201,6.4152603 24.4277897,6.242063 23.8945827,6.9200473 							"/>
							
								<linearGradient id="SVGID_34_" gradientUnits="userSpaceOnUse" x1="23.3572083" y1="7.8398271" x2="23.9383564" y2="7.3789144" gradientTransform="matrix(1 0 0 -1 0 15.5184174)">
								<stop  offset="0" style="stop-color:#9CA5E0"/>
								<stop  offset="1" style="stop-color:#6468B3"/>
							</linearGradient>
							<polygon fill="url(#SVGID_34_)" points="22.8281708,8.4437475 23.8945827,7.8830166 23.8945827,6.9200473 							"/>
							
								<linearGradient id="SVGID_35_" gradientUnits="userSpaceOnUse" x1="24.9282627" y1="8.2450695" x2="24.4372921" y2="7.8442769" gradientTransform="matrix(1 0 0 -1 0 15.5184174)">
								<stop  offset="0" style="stop-color:#DBDBDB"/>
								<stop  offset="1" style="stop-color:#9CA5E0"/>
							</linearGradient>
							<polygon fill="url(#SVGID_35_)" points="24.9609947,8.4437475 24.7572918,7.256207 23.8945827,6.9200473 							"/>
							
								<linearGradient id="SVGID_36_" gradientUnits="userSpaceOnUse" x1="22.8281708" y1="7.8365197" x2="23.8945827" y2="7.8365197" gradientTransform="matrix(1 0 0 -1 0 15.5184174)">
								<stop  offset="0" style="stop-color:#DBDBDB"/>
								<stop  offset="1" style="stop-color:#9CA5E0"/>
							</linearGradient>
							<polygon fill="url(#SVGID_36_)" points="23.0318756,7.256207 22.8281708,8.4437475 23.8945827,6.9200473 							"/>
							
								<linearGradient id="SVGID_37_" gradientUnits="userSpaceOnUse" x1="25.0026932" y1="8.3805056" x2="24.7622185" y2="8.8414173" gradientTransform="matrix(1 0 0 -1 0 15.5184174)">
								<stop  offset="0" style="stop-color:#9CA5E0"/>
								<stop  offset="1" style="stop-color:#6468B3"/>
							</linearGradient>
							<polygon fill="url(#SVGID_37_)" points="23.8945827,6.9200473 24.7572918,7.256207 25.6201,6.4152603 							"/>
							
								<linearGradient id="SVGID_38_" gradientUnits="userSpaceOnUse" x1="23.9324741" y1="7.4422903" x2="24.4234467" y2="7.8330631" gradientTransform="matrix(1 0 0 -1 0 15.5184174)">
								<stop  offset="0" style="stop-color:#9CA5E0"/>
								<stop  offset="1" style="stop-color:#6468B3"/>
							</linearGradient>
							<polygon fill="url(#SVGID_38_)" points="23.8945827,7.8830166 23.8945827,7.8830166 24.9609947,8.4437475 
								23.8945827,6.9200473 							"/>
						</g>
						<g id="b284a2fa-1448-4f8a-b9e2-fa09114640f4">
							
								<linearGradient id="SVGID_39_" gradientUnits="userSpaceOnUse" x1="15.811779" y1="12.0752316" x2="15.811779" y2="2.8166678" gradientTransform="matrix(1 0 0 -1 0 15.5184174)">
								<stop  offset="0" style="stop-color:#0A081C"/>
								<stop  offset="0.8392299" style="stop-color:#0A081C;stop-opacity:0.4"/>
								<stop  offset="1" style="stop-color:#0A081C;stop-opacity:0.2"/>
							</linearGradient>
							<path opacity="0.34" fill="url(#SVGID_39_)" enable-background="new    " d="M12.3384867,4.067215
								c-1.3703318,0.0045505-1.4882956,1.633779-1.4532595,2.5173087c0.035037,0.8835297,0.1642828,1.8671432,0.1819077,2.5727487
								c0.0176249,0.7056046,0.7123995,1.0210409,1.4602976,1.4019499c0.6017275,0.3064642,0.1903486,0.987215,0.2954607,1.2662277
								c0.2102232,0,0.5108242-0.0025835,0.8073711-0.0025835c1.16294,0,5.2574482,0.0012913,5.2574482,0.0012913
								s0.3300915,0.0665941,0.8540306-0.742733c0.5096016-0.7871828,0.4343433-2.2942553,0.4343433-2.9070215
								c0-0.5103269-0.0496826-1.3863316,0.0752583-2.2854519c0.1260357-0.9069867,0.8831234-1.0568185,0.2290974-2.2658582
								s-2.7068939-1.1849568-2.7068939-1.1849568S15.9551382,1.2481881,14.1271,1.6045933
								C13.2388201,1.777781,12.8566885,4.0654941,12.3384867,4.067215z"/>
							<g opacity="0.77">
								
									<radialGradient id="SVGID_40_" cx="14.1271" cy="9.0284481" r="3.4281774" gradientTransform="matrix(1 0 0 -1 0 15.5184174)" gradientUnits="userSpaceOnUse">
									<stop  offset="0" style="stop-color:#0D1142"/>
									<stop  offset="1" style="stop-color:#0D1142;stop-opacity:0"/>
								</radialGradient>
								<circle fill="url(#SVGID_40_)" cx="14.1271" cy="6.4899697" r="3.4281774"/>
							</g>
							<g opacity="0.77">
								
									<radialGradient id="SVGID_41_" cx="14.0277328" cy="6.5442615" r="3.4281774" gradientTransform="matrix(1 0 0 -1 0 15.5184174)" gradientUnits="userSpaceOnUse">
									<stop  offset="0" style="stop-color:#0D1142"/>
									<stop  offset="1" style="stop-color:#0D1142;stop-opacity:0"/>
								</radialGradient>
								<circle fill="url(#SVGID_41_)" cx="14.0277328" cy="8.9741564" r="3.4281774"/>
							</g>
							<g opacity="0.77">
								
									<radialGradient id="SVGID_42_" cx="18.2011662" cy="9.0284481" r="3.4281774" gradientTransform="matrix(1 0 0 -1 0 15.5184174)" gradientUnits="userSpaceOnUse">
									<stop  offset="0" style="stop-color:#0D1142"/>
									<stop  offset="1" style="stop-color:#0D1142;stop-opacity:0"/>
								</radialGradient>
								<circle fill="url(#SVGID_42_)" cx="18.2011662" cy="6.4899697" r="3.4281774"/>
							</g>
							
								<radialGradient id="SVGID_43_" cx="17.7926559" cy="6.7568927" r="3.4281774" gradientTransform="matrix(1 0 0 -1 0 15.5184174)" gradientUnits="userSpaceOnUse">
								<stop  offset="0" style="stop-color:#0D1142"/>
								<stop  offset="1" style="stop-color:#0D1142;stop-opacity:0"/>
							</radialGradient>
							<circle fill="url(#SVGID_43_)" cx="17.7926559" cy="8.7615252" r="3.4281774"/>
							<g id="e0390ec3-be6a-45ca-a7f5-7a4db513adbd">
								
									<linearGradient id="SVGID_44_" gradientUnits="userSpaceOnUse" x1="13.9660025" y1="14.4087648" x2="18.6362724" y2="1.7890966" gradientTransform="matrix(1 0 0 -1 0 15.5184174)">
									<stop  offset="0" style="stop-color:#B2BAD1"/>
									<stop  offset="0.26213" style="stop-color:#C1C7DC"/>
									<stop  offset="0.47762" style="stop-color:#566291"/>
									<stop  offset="0.51781" style="stop-color:#5D6998"/>
									<stop  offset="0.7134001" style="stop-color:#7A86B6"/>
									<stop  offset="0.88098" style="stop-color:#8D99C8"/>
									<stop  offset="1" style="stop-color:#939FCF"/>
								</linearGradient>
								<path fill-rule="evenodd" clip-rule="evenodd" fill="url(#SVGID_44_)" d="M18.7246838,1.9377129L18.724659,1.937692
									c-0.4052219-0.4901429-0.8606758-1.0409974-2.353426-1.0409974c-1.6943684,0-2.556551,0.7097152-2.6446896,1.5069394
									c-0.0178556,0.1614006-0.036108,0.3024836-0.0548363,0.4472878
									c-0.0737753,0.5704496-0.1550131,1.1986892-0.248888,3.3546216c-0.1176853,2.703228-0.0096817,4.852046,0.1763306,5.5131931
									c0.1860123,0.6611462,0.6073961,0.8169212,1.0578766,0.8169212c0.4504795,0,0.8229551-0.1850853,0.8229551-0.7390203
									c0-0.1549311-0.0061378-0.3136959-0.0121956-0.4703465v-0.0000257
									c-0.0156059-0.4035025-0.030632-0.7929306,0.0611038-1.0658913c0.127389-0.3789272,0.1860161-0.5154467,0.724658-0.3990602
									c0.5386429,0.1163864,1.9482841,0.3500414,2.0558376,0.2726173c0,0,0.0731678,0.1277628-0.289175,0.2445755
									c-0.3623161,0.1168394-0.4050636,0.1588449-0.4341602,0.3824186
									c-0.0290966,0.2236023-0.0493584,0.8606758,0.0881653,1.0939054
									c0.1375237,0.233202,0.5580082,0.3207064,0.8423176,0.3014746c0.2843075-0.0192556,0.6364937-0.0682726,0.7444954-0.6904802
									c0.0301018-0.1734743,0.0700474-0.369669,0.1132965-0.5820017v-0.0000525
									c0.1376419-0.6123724,0.233942-1.2333107,0.2882481-1.8586092c0.0590668-0.9044275,0.0978775-2.9653177,0-3.2571659
									c-0.4212246,0.1039453-0.8504429,0.1722999-1.2831173,0.2043424
									c-0.8423443,0.0778761-1.9394474,0.0384879-2.5763912-0.4183154
									c-0.6369419-0.4568033-0.6955614-1.1568856-0.6364937-1.7987745
									c0.0590677-0.6419137,0.0982971-0.9551916,0.8375034-1.3564284
									c0.7784081-0.4231168,2.8844795-0.2673473,2.8844795-0.2673473C18.8332443,2.069,18.7794132,2.0039093,18.7246838,1.9377129
									z M16.317667,2.6881509c-0.5631666,0.2647893-0.5635881,0.8627827-0.5631666,1.2259719
									c0.0004225,0.3632147,0.0379839,1.3239591,1.26653,1.441354c1.2285194,0.1173944,1.9420147-0.0392823,2.6360664-0.4316206
									c0.6940517-0.392313,0.7155838-1.1743457,0.3943233-1.5393016c-0.6569176-0.7453852-0.9900265-0.779808-2.4393425-0.8927848
									C17.6125011,2.491765,16.8808613,2.4233594,16.317667,2.6881509z M12.9691906,7.0381265
									c0.0010691-0.902668,0.0478172-1.8047042,0.1400652-2.7026467l-0.9011793,0.0385146
									c-0.4132414,0.0173783-0.4658937,0.3546176-0.5594301,0.9536805
									c-0.0090427,0.0579309-0.018465,0.1182942-0.0286341,0.1810393c-0.1153584,0.7119074-0.1448498,2.491056,0,3.5007091
									s1.4458866,0.8750658,1.4458866,0.8750658S12.9691906,8.5095558,12.9691906,7.0381265z"/>
							</g>
							<g opacity="0.99">
								
									<radialGradient id="SVGID_45_" cx="14.7729883" cy="12.6195726" r="1.5401956" gradientTransform="matrix(1 0 0 -1 0 15.5184174)" gradientUnits="userSpaceOnUse">
									<stop  offset="0" style="stop-color:#E6EEFF"/>
									<stop  offset="1" style="stop-color:#E6EEFF;stop-opacity:0"/>
								</radialGradient>
								<circle fill="url(#SVGID_45_)" cx="14.7729883" cy="2.8988447" r="1.5401956"/>
							</g>
							<g opacity="0.43">
								
									<radialGradient id="SVGID_46_" cx="14.7729883" cy="12.6195726" r="2.4345028" gradientTransform="matrix(1 0 0 -1 0 15.5184174)" gradientUnits="userSpaceOnUse">
									<stop  offset="0" style="stop-color:#E6EEFF"/>
									<stop  offset="1" style="stop-color:#E6EEFF;stop-opacity:0"/>
								</radialGradient>
								<circle fill="url(#SVGID_46_)" cx="14.7729883" cy="2.8988447" r="2.4345028"/>
							</g>
						</g>
					</g>
				</g>
			</g>
		</g>
	</g>
</g>
</svg>
