<?xml version="1.0" encoding="utf-8"?>
<!-- Generator: Adobe Illustrator 24.3.0, SVG Export Plug-In . SVG Version: 6.00 Build 0)  -->
<svg version="1.1" id="Слой_1" xmlns="http://www.w3.org/2000/svg" xmlns:xlink="http://www.w3.org/1999/xlink" x="0px" y="0px"
	 width="32px" height="13px" viewBox="0 0 32 13" enable-background="new 0 0 32 13" xml:space="preserve">
<g id="fd8e1e04-538d-4982-8f28-158a736569ff">
	<g id="b0da5adb-0dd3-41fd-aa74-4b8ec1b897fd">
		<g id="a65f8f2a-911d-45eb-aca3-1cb5b0dfa9a1">
			<g id="f42435ff-dbc2-4b95-969d-3fbab664fa1d">
				<g id="adebc939-0d71-4524-97ab-0983455b4013">
					<g id="bf0f8207-9907-4730-88fa-fa2985a7f5c1">
						
							<linearGradient id="SVGID_1_" gradientUnits="userSpaceOnUse" x1="18.0070152" y1="14.5422964" x2="13.5669346" y2="1.7022336" gradientTransform="matrix(1 0 0 -1 0 15.5184174)">
							<stop  offset="0" style="stop-color:#0E0B16"/>
							<stop  offset="1" style="stop-color:#20213A"/>
						</linearGradient>
						
							<linearGradient id="SVGID_2_" gradientUnits="userSpaceOnUse" x1="15.9996996" y1="14.1881495" x2="15.9996996" y2="3.2867193" gradientTransform="matrix(1 0 0 -1 0 15.5184174)">
							<stop  offset="0" style="stop-color:#645C5E"/>
							<stop  offset="1" style="stop-color:#54474D"/>
						</linearGradient>
						
							<polygon opacity="0.4" fill="url(#SVGID_1_)" stroke="url(#SVGID_2_)" stroke-width="0.1070121" stroke-miterlimit="10" enable-background="new    " points="
							31.1566277,12.1781921 0.8427725,12.1781921 4.067903,6.7809291 0.8427725,1.3837736 31.1566277,1.3837736 
							27.9316025,6.7809291 						"/>
						
							<linearGradient id="SVGID_3_" gradientUnits="userSpaceOnUse" x1="15.999753" y1="14.24856" x2="15.999753" y2="2.7617083" gradientTransform="matrix(1 0 0 -1 0 15.5184174)">
							<stop  offset="0" style="stop-color:#151324"/>
							<stop  offset="0.49721" style="stop-color:#151324"/>
							<stop  offset="0.7904999" style="stop-color:#32304E"/>
							<stop  offset="1" style="stop-color:#111B39"/>
						</linearGradient>
						<polygon fill="url(#SVGID_3_)" points="29.9101486,11.5429678 2.0893564,11.5429678 4.9477572,6.7809291 2.0893564,2.0188904 
							29.9101486,2.0188904 27.0517483,6.7809291 						"/>
						
							<linearGradient id="SVGID_4_" gradientUnits="userSpaceOnUse" x1="6.5155001" y1="18.2216892" x2="25.4839973" y2="-0.7468073" gradientTransform="matrix(1 0 0 -1 0 15.5184174)">
							<stop  offset="0" style="stop-color:#C0957E"/>
							<stop  offset="0.59777" style="stop-color:#776056"/>
							<stop  offset="1" style="stop-color:#705947"/>
						</linearGradient>
						<path fill="url(#SVGID_4_)" d="M29.9101486,2.0189385l-2.8584461,4.7620382l2.8584461,4.7620387H2.089349l2.8583939-4.7620387
							L2.0893488,2.0189383h27.8208008 M30.0991974,1.9119262H1.9003016L1.9975947,2.074012l2.8253174,4.7069654
							l-2.8253174,4.7069645l-0.0972931,0.1620865h28.1988926l-0.0972939-0.1620865l-2.8253746-4.7069645l2.8253746-4.706965
							l0.0972939-0.1620859L30.0991974,1.9119262z"/>
						<polygon opacity="0.4" fill="#0A0916" enable-background="new    " points="3.0096605,6.8942552 4.9240003,10.9305372 
							27.0517483,10.9305372 29.3346386,6.9131956 27.2895298,3.386291 5.1261463,3.386291 						"/>
						
							<linearGradient id="SVGID_5_" gradientUnits="userSpaceOnUse" x1="15.999753" y1="12.1320992" x2="15.999753" y2="4.2120223" gradientTransform="matrix(1 0 0 -1 0 15.5184174)">
							<stop  offset="0" style="stop-color:#29264E"/>
							<stop  offset="0.88827" style="stop-color:#916B98"/>
						</linearGradient>
						<polygon fill="url(#SVGID_5_)" points="26.7914963,10.3658342 5.2080102,10.3658342 3.0096605,6.7809291 5.2080102,3.1960235 
							26.7914963,3.1960235 28.9898453,6.7809291 						"/>
						
							<linearGradient id="SVGID_6_" gradientUnits="userSpaceOnUse" x1="2.8841507" y1="8.7374382" x2="29.1153412" y2="8.7374382" gradientTransform="matrix(1 0 0 -1 0 15.5184174)">
							<stop  offset="0.0838" style="stop-color:#54467F"/>
							<stop  offset="0.25419" style="stop-color:#81739D"/>
							<stop  offset="1" style="stop-color:#7A758E"/>
						</linearGradient>
						<path fill="url(#SVGID_6_)" d="M26.7914314,3.1960716l2.1984005,3.5849051l-2.1983986,3.5849061H5.2080102
							L3.0096607,6.7809768l2.1983495-3.5849054h21.5834217 M26.8513641,3.0890594H5.1480775L5.1167784,3.1401041
							L2.9184287,6.7250094L2.8841507,6.7809768l0.0342779,0.0559669l2.1983497,3.5849056l0.0312991,0.0510502h21.7032871
							l0.0312996-0.0510502l2.1984005-3.5849056l0.034277-0.0559669l-0.034277-0.0559673l-2.1983986-3.5849056L26.851366,3.0890591
							L26.8513641,3.0890594z"/>
						
							<linearGradient id="SVGID_7_" gradientUnits="userSpaceOnUse" x1="1.1491482" y1="-9929.765625" x2="31.7377949" y2="-9929.765625" gradientTransform="matrix(1 0 0 1 0 9937.4833984)">
							<stop  offset="0.00559" style="stop-color:#D1BBFF;stop-opacity:0"/>
							<stop  offset="1" style="stop-color:#DBBFAC;stop-opacity:0.3"/>
						</linearGradient>
						<path opacity="0.52" fill="url(#SVGID_7_)" enable-background="new    " d="M28.5058308,7.7739692
							c-0.7490845-0.4408903-4.3117962-1.3642974-5.062748-1.1000843c-0.9123478,0.3209872-1.932045,0.6482449-3.5818748-0.7789702
							c-2.861372-2.4752712-7.2170572,0.7292266-8.0824451,0.9929943C9.7776413,7.4978776,8.1938572,9.5097055,6.107121,8.1720543
							c-1.4950137-0.9583426-1.886662-0.5050974-2.9632103-0.964179l2.0022051,3.2649393h21.7052956L28.5058308,7.7739692z"/>
						
							<linearGradient id="SVGID_8_" gradientUnits="userSpaceOnUse" x1="15.9995842" y1="5.2393703" x2="16.0014954" y2="5.4677114" gradientTransform="matrix(1 0 0 -1 0 15.5184174)">
							<stop  offset="0" style="stop-color:#CDC8E2"/>
							<stop  offset="1" style="stop-color:#EFC8D6;stop-opacity:0"/>
						</linearGradient>
						<polygon opacity="0.57" fill="url(#SVGID_8_)" enable-background="new    " points="26.2194099,10.0447979 
							6.3151579,10.0447979 5.3520489,10.2588224 26.6474571,10.2588224 						"/>
					</g>
					<g id="abcc823e-ade5-4b4d-b805-89ad4c529149">
						
							<linearGradient id="SVGID_9_" gradientUnits="userSpaceOnUse" x1="15.8878012" y1="12.3104019" x2="15.8878012" y2="2.3395479" gradientTransform="matrix(1 0 0 -1 0 15.5184174)">
							<stop  offset="0" style="stop-color:#0A081C"/>
							<stop  offset="0.8392299" style="stop-color:#0A081C;stop-opacity:0.4"/>
							<stop  offset="1" style="stop-color:#0A081C;stop-opacity:0.2"/>
						</linearGradient>
						<path opacity="0.34" fill="url(#SVGID_9_)" enable-background="new    " d="M12.1472988,3.8800535
							c-1.4757566,0.0049002-1.6027956,1.7594705-1.5650625,2.7109728s0.1769199,2.0107889,0.1959019,2.7706785
							c0.0189819,0.7598906,0.7672071,1.0995941,1.5726414,1.5098066c0.6480207,0.3300419,0.2049952,1.0631647,0.3181934,1.3636427
							c0.2263956,0,0.5501232-0.0027828,0.8694839-0.0027828c1.2524071,0,5.6619177,0.0013914,5.6619177,0.0013914
							s0.3554878,0.0717163,0.919733-0.7998734c0.5488071-0.847744,0.4677601-2.4707603,0.4677601-3.1306686
							c0-0.5495872-0.0535069-1.4929857,0.0810471-2.4612784c0.1357307-0.9767637,0.9510651-1.138123,0.2467232-2.4401777
							s-2.9151421-1.2761197-2.9151421-1.2761197S16.0421906,0.84415,14.0735168,1.2279745
							C13.1168976,1.4144861,12.705368,3.8782001,12.1472988,3.8800535z"/>
						<g opacity="0.77">
							
								<radialGradient id="SVGID_10_" cx="14.0735168" cy="9.0292196" r="3.6919177" gradientTransform="matrix(1 0 0 -1 0 15.5184174)" gradientUnits="userSpaceOnUse">
								<stop  offset="0" style="stop-color:#0D1142"/>
								<stop  offset="1" style="stop-color:#0D1142;stop-opacity:0"/>
							</radialGradient>
							<circle fill="url(#SVGID_10_)" cx="14.0735168" cy="6.4891982" r="3.6919174"/>
						</g>
						<g opacity="0.77">
							
								<radialGradient id="SVGID_11_" cx="13.9665051" cy="6.3539171" r="3.6919177" gradientTransform="matrix(1 0 0 -1 0 15.5184174)" gradientUnits="userSpaceOnUse">
								<stop  offset="0" style="stop-color:#0D1142"/>
								<stop  offset="1" style="stop-color:#0D1142;stop-opacity:0"/>
							</radialGradient>
							<circle fill="url(#SVGID_11_)" cx="13.9665051" cy="9.1645002" r="3.6919177"/>
						</g>
						<g opacity="0.77">
							
								<radialGradient id="SVGID_12_" cx="17.9378433" cy="9.0584726" r="3.6919177" gradientTransform="matrix(1 0 0 -1 0 15.5184174)" gradientUnits="userSpaceOnUse">
								<stop  offset="0" style="stop-color:#0D1142"/>
								<stop  offset="1" style="stop-color:#0D1142;stop-opacity:0"/>
							</radialGradient>
							<circle fill="url(#SVGID_12_)" cx="17.9378433" cy="6.4599442" r="3.6919179"/>
						</g>
						
							<radialGradient id="SVGID_13_" cx="17.7654343" cy="6.6121602" r="3.6919177" gradientTransform="matrix(1 0 0 -1 0 15.5184174)" gradientUnits="userSpaceOnUse">
							<stop  offset="0" style="stop-color:#0D1142"/>
							<stop  offset="1" style="stop-color:#0D1142;stop-opacity:0"/>
						</radialGradient>
						<circle fill="url(#SVGID_13_)" cx="17.7654343" cy="8.9062567" r="3.6919177"/>
						<g id="e38f197f-4415-4cc5-9dae-6ac15f6dbeb2">
							
								<linearGradient id="SVGID_14_" gradientUnits="userSpaceOnUse" x1="13.9000225" y1="14.8234606" x2="18.9295921" y2="1.2329226" gradientTransform="matrix(1 0 0 -1 0 15.5184174)">
								<stop  offset="0" style="stop-color:#C2AEB8"/>
								<stop  offset="0.26213" style="stop-color:#C5C2DB"/>
								<stop  offset="0.47762" style="stop-color:#767097"/>
								<stop  offset="0.56301" style="stop-color:#877FA4"/>
								<stop  offset="0.74022" style="stop-color:#A59ABA"/>
								<stop  offset="0.8921301" style="stop-color:#B7ABC7"/>
								<stop  offset="1" style="stop-color:#BEB1CC"/>
							</linearGradient>
							<path fill-rule="evenodd" clip-rule="evenodd" fill="url(#SVGID_14_)" d="M19.0248051,1.586722l-0.0000267-0.0000224
								c-0.4363956-0.5278511-0.9268894-1.1210846-2.534483-1.1210846c-1.8247204,0-2.7532339,0.7643158-2.8481541,1.6228728
								c-0.019228,0.1738179-0.0388851,0.3257546-0.0590534,0.481699c-0.0794506,0.6143363-0.1669388,1.2909086-0.2680368,3.6127031
								c-0.1267395,2.9111958-0.0104256,5.2253294,0.1898966,5.9373398S14.159071,13,14.6442089,13
								s0.8862658-0.1993246,0.8862658-0.7958755c0-0.1668501-0.006609-0.3378296-0.0131321-0.5065317v-0.0000277
								c-0.0168085-0.4345446-0.0329885-0.8539333,0.0658054-1.1478939c0.1371889-0.4080791,0.200326-0.5551014,0.7804079-0.4297609
								s2.0981693,0.3769712,2.2139988,0.2935905c0,0,0.0787964,0.1375923-0.3114223,0.2633915
								c-0.3901901,0.1258278-0.4362259,0.1710644-0.4675598,0.4118395
								c-0.0313377,0.2408047-0.0531578,0.9268894,0.0949459,1.1780624
								c0.1481056,0.2511435,0.6009388,0.3453789,0.9071198,0.3246689c0.306181-0.0207376,0.6854591-0.0735254,0.8017731-0.7436018
								c0.0324173-0.18682,0.0754337-0.3981085,0.1220112-0.6267767v-0.0000563
								c0.1482334-0.6594849,0.2519436-1.3281937,0.3104248-2.0015984c0.063612-0.9740076,0.1054058-3.1934485,0-3.5077496
								c-0.4536304,0.1119423-0.9158688,0.1855555-1.3818302,0.2200632
								c-0.9071484,0.0838671-2.0886574,0.0414486-2.7746019-0.4504976S15.129344,4.2353573,15.192956,3.5440862
								c0.063612-0.6912982,0.1058588-1.0286775,0.9019346-1.4607828c0.8382931-0.4556684,3.10639-0.2879152,3.10639-0.2879152
								C19.1417179,1.7281095,19.083746,1.6580113,19.0248051,1.586722z M16.4326096,2.3948934
								c-0.606493,0.2851605-0.6069489,0.9291594-0.606493,1.3202899c0.0004549,0.3911581,0.0409069,1.4258156,1.3639679,1.5522418
								c1.3230324,0.1264262,2.0914192-0.042304,2.8388672-0.4648266c0.747448-0.4224944,0.7706356-1.2646916,0.4246597-1.6577246
								c-0.7074566-0.8027301-1.0661926-0.8398011-2.6270084-0.9614697
								C17.8270607,2.183399,17.0391312,2.1097307,16.4326096,2.3948934z M12.8265228,7.0795259
								c0.0011501-0.9721127,0.0514956-1.9435453,0.1508398-2.9105697l-0.9705086,0.0414782
								c-0.445034,0.0187149-0.5017385,0.3818994-0.6024694,1.0270495c-0.009738,0.0623884-0.019886,0.1273952-0.0308371,0.1949677
								c-0.1242323,0.7666764-0.1559925,2.6827006,0,3.7700295s1.5571232,0.9423866,1.5571232,0.9423866
								S12.8265228,8.6641569,12.8265228,7.0795259z"/>
						</g>
						<g opacity="0.75">
							
								<radialGradient id="SVGID_15_" cx="14.7690954" cy="12.8966208" r="1.6586876" gradientTransform="matrix(1 0 0 -1 0 15.5184174)" gradientUnits="userSpaceOnUse">
								<stop  offset="0" style="stop-color:#E6EEFF"/>
								<stop  offset="1" style="stop-color:#E6EEFF;stop-opacity:0"/>
							</radialGradient>
							<circle fill="url(#SVGID_15_)" cx="14.7690954" cy="2.6217966" r="1.6586876"/>
						</g>
						<g opacity="0.37">
							
								<radialGradient id="SVGID_16_" cx="14.7690954" cy="12.8966208" r="2.6217966" gradientTransform="matrix(1 0 0 -1 0 15.5184174)" gradientUnits="userSpaceOnUse">
								<stop  offset="0" style="stop-color:#E6EEFF"/>
								<stop  offset="1" style="stop-color:#E6EEFF;stop-opacity:0"/>
							</radialGradient>
							<circle fill="url(#SVGID_16_)" cx="14.7690954" cy="2.6217966" r="2.6217966"/>
						</g>
					</g>
				</g>
			</g>
		</g>
	</g>
</g>
</svg>
