<?xml version="1.0" encoding="utf-8"?>
<!-- Generator: Adobe Illustrator 24.3.0, SVG Export Plug-In . SVG Version: 6.00 Build 0)  -->
<svg version="1.1" id="Слой_1" xmlns="http://www.w3.org/2000/svg" xmlns:xlink="http://www.w3.org/1999/xlink" x="0px" y="0px"
	 width="32px" height="13px" viewBox="0 0 32 13" enable-background="new 0 0 32 13" xml:space="preserve">
<g>
	<g id="f5b688db-863e-4875-aa5e-9a03388bd534">
		<g id="e3d5d07f-6fc7-41c2-b08f-b8ef2a69e742">
			<g id="fd1b9727-93ad-4cfd-a11c-6216fa46fcb7">
				<g id="e46c34dc-5de6-489d-89f4-fbf7aff392fb">
					<g id="b3de6a6a-de78-4b62-9547-eac35f9d9db0">
						<g id="f992b887-8878-476c-a8b7-6edf1a6f58d9">
							
								<linearGradient id="SVGID_1_" gradientUnits="userSpaceOnUse" x1="17.6995659" y1="13.8150616" x2="13.8445301" y2="2.6668673" gradientTransform="matrix(1 0 0 -1 0 15.5184174)">
								<stop  offset="0" style="stop-color:#0E0B16"/>
								<stop  offset="1" style="stop-color:#20213A"/>
							</linearGradient>
							
								<linearGradient id="SVGID_2_" gradientUnits="userSpaceOnUse" x1="15.9513168" y1="13.6987925" x2="15.9513168" y2="3.8215032" gradientTransform="matrix(1 0 0 -1 0 15.5184174)">
								<stop  offset="0" style="stop-color:#5A5C7D"/>
								<stop  offset="1" style="stop-color:#404759"/>
							</linearGradient>
							
								<polygon opacity="0.4" fill="url(#SVGID_1_)" stroke="url(#SVGID_2_)" stroke-width="0.0969588" stroke-miterlimit="10" enable-background="new    " points="
								28.5694904,11.6484346 3.4304991,11.6484346 0.4381568,6.7583184 3.4304991,1.8681047 28.5694904,1.8681047 
								31.4649715,6.7583184 							"/>
							
								<linearGradient id="SVGID_3_" gradientUnits="userSpaceOnUse" x1="15.9999943" y1="13.7535048" x2="15.9999943" y2="3.3457909" gradientTransform="matrix(1 0 0 -1 0 15.5184174)">
								<stop  offset="0" style="stop-color:#151324"/>
								<stop  offset="0.49721" style="stop-color:#151324"/>
								<stop  offset="0.7904999" style="stop-color:#32304E"/>
								<stop  offset="1" style="stop-color:#111B39"/>
							</linearGradient>
							<polygon fill="url(#SVGID_3_)" points="28.2157841,11.0729847 3.7843015,11.0729847 1.1383932,6.7583184 
								3.7843015,2.4436522 28.2157841,2.4436522 30.8615952,6.7583184 							"/>
							
								<linearGradient id="SVGID_4_" gradientUnits="userSpaceOnUse" x1="15.9999981" y1="13.171731" x2="15.9999981" y2="4.3484859" gradientTransform="matrix(1 0 0 -1 0 15.5184174)">
								<stop  offset="0" style="stop-color:#90909A"/>
								<stop  offset="0.59777" style="stop-color:#556080"/>
								<stop  offset="1" style="stop-color:#535972"/>
							</linearGradient>
							<path fill="url(#SVGID_4_)" d="M28.2157669,2.4436455l2.6458664,4.3146663l-2.6458664,4.3146663H3.7842813
								L1.138366,6.7583117l2.6459153-4.3146663h24.4314823 M28.2157631,2.3466866H3.7842813L3.7016201,2.3929417
								L1.0557048,6.7076077v0.1014085l2.6459153,4.3146667l0.0826612,0.0462484h24.4314823l0.0826607-0.0462484
								l2.6458683-4.3146667V6.7076092l-2.6458683-4.3146667C28.2984238,2.3929427,28.2157631,2.3466876,28.2157631,2.3466866z"/>
							<polygon opacity="0.32" fill="#0A0916" enable-background="new    " points="4.7702756,6.8732142 6.5047712,10.5303059 
								25.2340107,10.5303059 27.3024349,6.8903761 25.4494514,3.6948085 6.6879263,3.6948085 							"/>
							
								<linearGradient id="SVGID_5_" gradientUnits="userSpaceOnUse" x1="16.000042" y1="11.8358755" x2="16.000042" y2="4.6598549" gradientTransform="matrix(1 0 0 -1 0 15.5184174)">
								<stop  offset="0" style="stop-color:#151B5A"/>
								<stop  offset="1" style="stop-color:#6E6BE5"/>
							</linearGradient>
							<polygon fill="url(#SVGID_5_)" points="25.1961021,10.0064383 6.8038893,10.0064383 4.8120651,6.7583184 
								6.8038893,3.5101988 25.1961021,3.5101988 27.1880207,6.7583184 							"/>
							
								<linearGradient id="SVGID_6_" gradientUnits="userSpaceOnUse" x1="4.6983299" y1="8.7601061" x2="27.3017082" y2="8.7601061" gradientTransform="matrix(1 0 0 -1 0 15.5184174)">
								<stop  offset="0" style="stop-color:#151B4A"/>
								<stop  offset="0.25419" style="stop-color:#6D739F"/>
								<stop  offset="1" style="stop-color:#37418B"/>
							</linearGradient>
							<path fill="url(#SVGID_6_)" d="M25.196125,3.5101922l1.991869,3.2481196l-1.991869,3.2481198H6.803875L4.8120508,6.7583117
								L6.803875,3.5101922H25.196125 M25.2504272,3.4132333H6.74962L6.721211,3.4594884L4.7293863,6.7076077l-0.0310564,0.050704
								L4.7293863,6.809021l1.9918246,3.2481203l0.028409,0.0462484h18.5008049l0.0283585-0.0462484l1.991869-3.2481198
								l0.0310555-0.0507092l-0.0310555-0.050704l-1.991869-3.2481196l-0.0283585-0.0462551L25.2504272,3.4132333z"/>
							
								<linearGradient id="SVGID_7_" gradientUnits="userSpaceOnUse" x1="15.999917" y1="5.5938287" x2="16.0016003" y2="5.7949986" gradientTransform="matrix(1 0 0 -1 0 15.5184174)">
								<stop  offset="0" style="stop-color:#CDC8E2"/>
								<stop  offset="1" style="stop-color:#EFC8D6;stop-opacity:0"/>
							</linearGradient>
							<polygon opacity="0.57" fill="url(#SVGID_7_)" enable-background="new    " points="24.6778545,9.7155619 
								7.807025,9.7155619 6.9343958,9.9094791 25.065691,9.9094791 							"/>
							
								<linearGradient id="SVGID_8_" gradientUnits="userSpaceOnUse" x1="15.9447565" y1="5.7380443" x2="15.7831583" y2="9.648716" gradientTransform="matrix(1 0 0 -1 0 15.5184174)">
								<stop  offset="0.00559" style="stop-color:#D1BBFF;stop-opacity:0"/>
								<stop  offset="1" style="stop-color:#DBBFAC;stop-opacity:0.3"/>
							</linearGradient>
							<path fill="url(#SVGID_8_)" d="M26.6955414,7.5611119c-0.6787109-0.3994703-1.3857937-1.2361279-2.0661964-0.9967365
								c-0.8266354,0.290833-1.7505379,0.5873456-3.2453747-0.7057881
								c-2.5925579-2.2427313-6.5390453,0.6607189-7.3231344,0.8997059
								C12.2477112,7.3109579,10.8127165,9.1337833,8.92202,7.9217987c-1.3545642-0.86831-2.9572434-0.4576454-3.9326539-0.8735991
								l1.8141065,2.9582129h18.3930836L26.6955414,7.5611119z"/>
							
								<linearGradient id="SVGID_9_" gradientUnits="userSpaceOnUse" x1="5.1486506" y1="13.3863316" x2="3.8073881" y2="5.1609921" gradientTransform="matrix(1 0 0 -1 0 15.5184174)">
								<stop  offset="0" style="stop-color:#A9B2E4"/>
								<stop  offset="0.29609" style="stop-color:#A9B2E4"/>
								<stop  offset="0.48324" style="stop-color:#353C80"/>
								<stop  offset="1" style="stop-color:#9BA4D3"/>
							</linearGradient>
							
								<linearGradient id="SVGID_10_" gradientUnits="userSpaceOnUse" x1="1.9331452" y1="8.7600985" x2="6.2438064" y2="8.7600985" gradientTransform="matrix(1 0 0 -1 0 15.5184174)">
								<stop  offset="0" style="stop-color:#A9B2E4"/>
								<stop  offset="0.29609" style="stop-color:#E4E8FF"/>
								<stop  offset="0.48324" style="stop-color:#353C80"/>
								<stop  offset="1" style="stop-color:#9BA4D3"/>
							</linearGradient>
							<polygon fill="url(#SVGID_9_)" stroke="url(#SVGID_10_)" stroke-width="0.0969588" stroke-miterlimit="10" points="
								6.1587257,10.6851492 4.3165088,10.6851492 1.9894974,6.7583184 4.3165088,2.8314874 6.1587257,2.8314874 
								3.8317146,6.7583184 							"/>
							
								<linearGradient id="SVGID_11_" gradientUnits="userSpaceOnUse" x1="3.3384535" y1="13.2471313" x2="1.4068184" y2="6.8548141" gradientTransform="matrix(1 0 0 -1 0 15.5184174)">
								<stop  offset="0" style="stop-color:#9AA2D0"/>
								<stop  offset="0.29609" style="stop-color:#9AA2D0"/>
								<stop  offset="0.48324" style="stop-color:#2C3163"/>
								<stop  offset="1" style="stop-color:#868EB6"/>
							</linearGradient>
							<polygon fill="url(#SVGID_11_)" points="3.0128975,9.9094791 1.6590619,9.2307673 0,6.7583184 1.6590619,4.2858691 
								3.1098564,3.4132402 1.3538357,6.7583184 							"/>
							
								<linearGradient id="SVGID_12_" gradientUnits="userSpaceOnUse" x1="0" y1="8.8570642" x2="3.1098776" y2="8.8570642" gradientTransform="matrix(1 0 0 -1 0 15.5184174)">
								<stop  offset="0" style="stop-color:#9AA2D0"/>
								<stop  offset="0.29609" style="stop-color:#9AA2D0"/>
								<stop  offset="0.48324" style="stop-color:#2C3163"/>
								<stop  offset="1" style="stop-color:#868EB6"/>
							</linearGradient>
							<path fill="url(#SVGID_12_)" d="M2.8630304,3.6748524L1.2680387,6.7132416L1.2443206,6.758359l0.0237656,0.0451188
								L2.7864764,9.68748L1.725374,9.1555338l-1.6086259-2.397222l1.6108037-2.4004874l1.1354786-0.6829717 M3.1098776,3.4132335
								L1.6590937,4.2858624L0,6.7583117l1.659094,2.4724488l1.3538247,0.6787119L1.3538724,6.7583117
								C1.3538724,6.7583117,3.1098776,3.4132333,3.1098776,3.4132335z"/>
							
								<linearGradient id="SVGID_13_" gradientUnits="userSpaceOnUse" x1="28.1172771" y1="11.8713188" x2="27.0507298" y2="5.4720383" gradientTransform="matrix(1 0 0 -1 0 15.5184174)">
								<stop  offset="0" style="stop-color:#D2D8F7"/>
								<stop  offset="0.09497" style="stop-color:#A9B2E4"/>
								<stop  offset="0.29609" style="stop-color:#A9B2E4"/>
								<stop  offset="0.48324" style="stop-color:#353C80"/>
								<stop  offset="1" style="stop-color:#9BA4D3"/>
							</linearGradient>
							
								<linearGradient id="SVGID_14_" gradientUnits="userSpaceOnUse" x1="25.7562809" y1="8.7600985" x2="30.0669422" y2="8.7600985" gradientTransform="matrix(1 0 0 -1 0 15.5184174)">
								<stop  offset="0" style="stop-color:#A9B2E4"/>
								<stop  offset="0.29609" style="stop-color:#A9B2E4"/>
								<stop  offset="0.48324" style="stop-color:#353C80"/>
								<stop  offset="1" style="stop-color:#9BA4D3"/>
							</linearGradient>
							<polygon fill="url(#SVGID_13_)" stroke="url(#SVGID_14_)" stroke-width="0.0969588" stroke-miterlimit="10" points="
								25.841362,10.6851492 27.6835785,10.6851492 30.0105896,6.7583184 27.6835785,2.8314874 25.841362,2.8314874 
								28.1683731,6.7583184 							"/>
							<polygon opacity="0.39" fill="#130E21" enable-background="new    " points="23.8343143,10.7821083 24.5130253,10.7821083 
								26.8400364,6.8552771 24.5130253,2.9284463 23.8343143,2.9284463 26.1613255,6.8552771 							"/>
							
								<linearGradient id="SVGID_15_" gradientUnits="userSpaceOnUse" x1="26.019804" y1="11.7941675" x2="24.9785995" y2="5.5469489" gradientTransform="matrix(1 0 0 -1 0 15.5184174)">
								<stop  offset="0" style="stop-color:#D2D8F7"/>
								<stop  offset="0.09497" style="stop-color:#A9B2E4"/>
								<stop  offset="0.29609" style="stop-color:#A9B2E4"/>
								<stop  offset="0.48324" style="stop-color:#353C80"/>
								<stop  offset="1" style="stop-color:#9BA4D3"/>
							</linearGradient>
							
								<linearGradient id="SVGID_16_" gradientUnits="userSpaceOnUse" x1="24.253418" y1="8.7600985" x2="27.4005756" y2="8.7600985" gradientTransform="matrix(1 0 0 -1 0 15.5184174)">
								<stop  offset="0" style="stop-color:#A9B2E4"/>
								<stop  offset="0.29609" style="stop-color:#A9B2E4"/>
								<stop  offset="0.48324" style="stop-color:#353C80"/>
								<stop  offset="1" style="stop-color:#9BA4D3"/>
							</linearGradient>
							<polygon fill="url(#SVGID_15_)" stroke="url(#SVGID_16_)" stroke-width="0.0969588" stroke-miterlimit="10" points="
								24.3384991,10.6851492 25.0172119,10.6851492 27.344223,6.7583184 25.0172119,2.8314874 24.3384991,2.8314874 
								26.6655121,6.7583184 							"/>
							<polygon opacity="0.39" fill="#130E21" enable-background="new    " points="8.2056227,10.7821083 7.5269108,10.7821083 
								5.1999002,6.8552771 7.5269108,2.9284463 8.2056227,2.9284463 5.8786116,6.8552771 							"/>
							
								<linearGradient id="SVGID_17_" gradientUnits="userSpaceOnUse" x1="10880.2841797" y1="11.7941799" x2="10879.2431641" y2="5.5469608" gradientTransform="matrix(-1 0 0 -1 10886.3242188 15.5184174)">
								<stop  offset="0" style="stop-color:#D2D8F7"/>
								<stop  offset="0.09497" style="stop-color:#A9B2E4"/>
								<stop  offset="0.29609" style="stop-color:#A9B2E4"/>
								<stop  offset="0.48324" style="stop-color:#353C80"/>
								<stop  offset="1" style="stop-color:#9BA4D3"/>
							</linearGradient>
							
								<linearGradient id="SVGID_18_" gradientUnits="userSpaceOnUse" x1="10878.5185547" y1="8.7600985" x2="10881.6650391" y2="8.7600985" gradientTransform="matrix(-1 0 0 -1 10886.3242188 15.5184174)">
								<stop  offset="0" style="stop-color:#A9B2E4"/>
								<stop  offset="0.29609" style="stop-color:#A9B2E4"/>
								<stop  offset="0.48324" style="stop-color:#353C80"/>
								<stop  offset="1" style="stop-color:#9BA4D3"/>
							</linearGradient>
							<polygon fill="url(#SVGID_17_)" stroke="url(#SVGID_18_)" stroke-width="0.0969588" stroke-miterlimit="10" points="
								7.7208285,10.6851492 7.0421171,10.6851492 4.715106,6.7583184 7.0421171,2.8314874 7.7208285,2.8314874 
								5.3938179,6.7583184 							"/>
							
								<linearGradient id="SVGID_19_" gradientUnits="userSpaceOnUse" x1="30.6302376" y1="11.1558571" x2="29.3220539" y2="3.3067689" gradientTransform="matrix(1 0 0 -1 0 15.5184174)">
								<stop  offset="0" style="stop-color:#E6EAFF"/>
								<stop  offset="0.09497" style="stop-color:#9AA2D0"/>
								<stop  offset="0.29609" style="stop-color:#9AA2D0"/>
								<stop  offset="0.48324" style="stop-color:#2C3163"/>
								<stop  offset="1" style="stop-color:#868EB6"/>
							</linearGradient>
							<polygon fill="url(#SVGID_19_)" points="28.987093,9.9094791 30.3409271,9.2307673 31.9999886,6.7583184 
								30.3409271,4.2858691 28.987093,3.6071577 30.6461544,6.7583184 							"/>
							
								<linearGradient id="SVGID_20_" gradientUnits="userSpaceOnUse" x1="28.9871292" y1="8.7601061" x2="32" y2="8.7601061" gradientTransform="matrix(1 0 0 -1 0 15.5184174)">
								<stop  offset="0" style="stop-color:#9AA2D0"/>
								<stop  offset="0.03631" style="stop-color:#AFB3C3"/>
								<stop  offset="0.29609" style="stop-color:#9AA2D0"/>
								<stop  offset="0.48324" style="stop-color:#2C3163"/>
								<stop  offset="1" style="stop-color:#868EB6"/>
							</linearGradient>
							<path fill="url(#SVGID_20_)" d="M29.2135715,3.8291438l1.0611019,0.5319469l1.6085777,2.3972211l-1.6085777,2.397222
								L29.2135715,9.68748l1.5183926-2.8840017l0.0238132-0.0451665l-0.0238132-0.0451655L29.2135715,3.8291438
								 M28.9871292,3.6071508l1.6590462,3.151161l-1.6590462,3.1511607l1.3538246-0.6787119L32,6.7583117l-1.6590462-2.4724493
								C30.3409538,4.2858624,28.9871292,3.6071508,28.9871292,3.6071508z"/>
							<g opacity="0.15">
								
									<radialGradient id="SVGID_21_" cx="3.1044934" cy="10.3114681" r="1.1150261" gradientTransform="matrix(1 0 0 -1 0 15.5184174)" gradientUnits="userSpaceOnUse">
									<stop  offset="0" style="stop-color:#E6EEFF"/>
									<stop  offset="1" style="stop-color:#E6EEFF;stop-opacity:0"/>
								</radialGradient>
								<circle fill="url(#SVGID_21_)" cx="3.1044934" cy="5.2069497" r="1.1150261"/>
							</g>
							<g opacity="0.43">
								
									<radialGradient id="SVGID_22_" cx="27.3441906" cy="12.5415201" r="1.1150261" gradientTransform="matrix(1 0 0 -1 0 15.5184174)" gradientUnits="userSpaceOnUse">
									<stop  offset="0" style="stop-color:#E6EEFF"/>
									<stop  offset="1" style="stop-color:#E6EEFF;stop-opacity:0"/>
								</radialGradient>
								<circle fill="url(#SVGID_22_)" cx="27.3441906" cy="2.9768975" r="1.1150261"/>
							</g>
							<polygon opacity="0.62" fill="#959DC7" enable-background="new    " points="8.8847227,5.5560293 8.8847227,5.5560293 
								8.404582,6.4557099 7.3307638,6.5998878 8.1077919,7.3002214 7.924345,8.2890072 8.8847227,7.8221502 8.8847227,7.8221502 
								9.8451958,8.2890072 9.6617498,7.3002214 10.4387779,6.5998878 9.3649588,6.4557099 							"/>
							
								<linearGradient id="SVGID_23_" gradientUnits="userSpaceOnUse" x1="8.0017567" y1="9.2093487" x2="8.0771151" y2="8.7655716" gradientTransform="matrix(1 0 0 -1 0 15.5184174)">
								<stop  offset="0" style="stop-color:#F5EABA"/>
								<stop  offset="1" style="stop-color:#CFA16D"/>
							</linearGradient>
							<polygon fill="url(#SVGID_23_)" points="8.3271122,6.2475395 7.3307638,6.3922992 8.7726374,6.8140697 							"/>
							
								<linearGradient id="SVGID_24_" gradientUnits="userSpaceOnUse" x1="8.3271122" y1="9.4390526" x2="8.7726374" y2="9.4390526" gradientTransform="matrix(1 0 0 -1 0 15.5184174)">
								<stop  offset="0" style="stop-color:#CFA16D"/>
								<stop  offset="1" style="stop-color:#9C7949"/>
							</linearGradient>
							<polygon fill="url(#SVGID_24_)" points="8.7726374,5.3446593 8.3271122,6.2475395 8.7726374,6.8140697 							"/>
							
								<linearGradient id="SVGID_25_" gradientUnits="userSpaceOnUse" x1="8.7726374" y1="9.4390526" x2="9.2182598" y2="9.4390526" gradientTransform="matrix(1 0 0 -1 0 15.5184174)">
								<stop  offset="0" style="stop-color:#F5EABA"/>
								<stop  offset="1" style="stop-color:#CFA16D"/>
							</linearGradient>
							<polygon fill="url(#SVGID_25_)" points="9.2182598,6.2475395 8.7726374,5.3446593 8.7726374,5.3446593 8.7726374,6.8140697 
															"/>
							
								<linearGradient id="SVGID_26_" gradientUnits="userSpaceOnUse" x1="7.8833113" y1="8.5026789" x2="8.0507736" y2="8.912962" gradientTransform="matrix(1 0 0 -1 0 15.5184174)">
								<stop  offset="0" style="stop-color:#CFA16D"/>
								<stop  offset="1" style="stop-color:#9C7949"/>
							</linearGradient>
							<polygon fill="url(#SVGID_26_)" points="7.3307638,6.3922992 8.0517492,7.0950561 8.7726374,6.8140697 							"/>
							
								<linearGradient id="SVGID_27_" gradientUnits="userSpaceOnUse" x1="9.5894032" y1="9.2344999" x2="9.4638062" y2="8.8158426" gradientTransform="matrix(1 0 0 -1 0 15.5184174)">
								<stop  offset="0" style="stop-color:#F5EABA"/>
								<stop  offset="1" style="stop-color:#CFA16D"/>
							</linearGradient>
							<polygon fill="url(#SVGID_27_)" points="10.2146091,6.3922992 9.2182598,6.2475395 8.7726374,6.8140697 							"/>
							
								<linearGradient id="SVGID_28_" gradientUnits="userSpaceOnUse" x1="8.323597" y1="8.070466" x2="8.8092384" y2="7.6853018" gradientTransform="matrix(1 0 0 -1 0 15.5184174)">
								<stop  offset="0" style="stop-color:#CFA16D"/>
								<stop  offset="1" style="stop-color:#9C7949"/>
							</linearGradient>
							<polygon fill="url(#SVGID_28_)" points="7.8814898,8.0873327 8.7726374,7.6188278 8.7726374,6.8140697 							"/>
							
								<linearGradient id="SVGID_29_" gradientUnits="userSpaceOnUse" x1="9.6364374" y1="8.4091244" x2="9.2261534" y2="8.0741987" gradientTransform="matrix(1 0 0 -1 0 15.5184174)">
								<stop  offset="0" style="stop-color:#F5EABA"/>
								<stop  offset="1" style="stop-color:#CFA16D"/>
							</linearGradient>
							<polygon fill="url(#SVGID_29_)" points="9.6637859,8.0873327 9.4936237,7.0950561 8.7726374,6.8140697 							"/>
							
								<linearGradient id="SVGID_30_" gradientUnits="userSpaceOnUse" x1="7.8814898" y1="8.0677166" x2="8.7726374" y2="8.0677166" gradientTransform="matrix(1 0 0 -1 0 15.5184174)">
								<stop  offset="0" style="stop-color:#F5EABA"/>
								<stop  offset="1" style="stop-color:#CFA16D"/>
							</linearGradient>
							<polygon fill="url(#SVGID_30_)" points="8.0517492,7.0950561 7.8814898,8.0873327 8.7726374,6.8140697 							"/>
							
								<linearGradient id="SVGID_31_" gradientUnits="userSpaceOnUse" x1="9.6986427" y1="8.5222759" x2="9.4976883" y2="8.9074411" gradientTransform="matrix(1 0 0 -1 0 15.5184174)">
								<stop  offset="0" style="stop-color:#CFA16D"/>
								<stop  offset="1" style="stop-color:#9C7949"/>
							</linearGradient>
							<polygon fill="url(#SVGID_31_)" points="8.7726374,6.8140697 9.4936237,7.0950561 10.2146091,6.3922992 							"/>
							
								<linearGradient id="SVGID_32_" gradientUnits="userSpaceOnUse" x1="8.8043003" y1="7.7382765" x2="9.2145834" y2="8.0648289" gradientTransform="matrix(1 0 0 -1 0 15.5184174)">
								<stop  offset="0" style="stop-color:#CFA16D"/>
								<stop  offset="1" style="stop-color:#9C7949"/>
							</linearGradient>
							<polygon fill="url(#SVGID_32_)" points="8.7726374,7.6188278 8.7726374,7.6188278 9.6637859,8.0873327 8.7726374,6.8140697 
															"/>
							<polygon opacity="0.62" fill="#959DC7" enable-background="new    " points="23.304821,5.5560293 23.304821,5.5560293 
								22.824585,6.4557099 21.7507668,6.5998878 22.5277939,7.3002214 22.344347,8.2890072 23.304821,7.8221502 
								23.304821,7.8221502 24.2651978,8.2890072 24.0817528,7.3002214 24.8587818,6.5998878 23.785059,6.4557099 							"/>
							
								<linearGradient id="SVGID_33_" gradientUnits="userSpaceOnUse" x1="22.4218082" y1="9.2093496" x2="22.4971657" y2="8.7655725" gradientTransform="matrix(1 0 0 -1 0 15.5184174)">
								<stop  offset="0" style="stop-color:#F5EABA"/>
								<stop  offset="1" style="stop-color:#CFA16D"/>
							</linearGradient>
							<polygon fill="url(#SVGID_33_)" points="22.7471142,6.2475395 21.7507668,6.3922992 23.1927376,6.8140697 							"/>
							
								<linearGradient id="SVGID_34_" gradientUnits="userSpaceOnUse" x1="22.7471142" y1="9.4390526" x2="23.1927376" y2="9.4390526" gradientTransform="matrix(1 0 0 -1 0 15.5184174)">
								<stop  offset="0" style="stop-color:#CFA16D"/>
								<stop  offset="1" style="stop-color:#9C7949"/>
							</linearGradient>
							<polygon fill="url(#SVGID_34_)" points="23.1927376,5.3446593 22.7471142,6.2475395 23.1927376,6.8140697 							"/>
							
								<linearGradient id="SVGID_35_" gradientUnits="userSpaceOnUse" x1="23.1927376" y1="9.4390526" x2="23.6382618" y2="9.4390526" gradientTransform="matrix(1 0 0 -1 0 15.5184174)">
								<stop  offset="0" style="stop-color:#F5EABA"/>
								<stop  offset="1" style="stop-color:#CFA16D"/>
							</linearGradient>
							<polygon fill="url(#SVGID_35_)" points="23.6382618,6.2475395 23.1927376,5.3446593 23.1927376,5.3446593 
								23.1927376,6.8140697 							"/>
							
								<linearGradient id="SVGID_36_" gradientUnits="userSpaceOnUse" x1="22.3033619" y1="8.502676" x2="22.4708233" y2="8.9129591" gradientTransform="matrix(1 0 0 -1 0 15.5184174)">
								<stop  offset="0" style="stop-color:#CFA16D"/>
								<stop  offset="1" style="stop-color:#9C7949"/>
							</linearGradient>
							<polygon fill="url(#SVGID_36_)" points="21.7507668,6.3922992 22.4717522,7.0950561 23.1927376,6.8140697 							"/>
							
								<linearGradient id="SVGID_37_" gradientUnits="userSpaceOnUse" x1="24.0094528" y1="9.2344971" x2="23.8838558" y2="8.8158407" gradientTransform="matrix(1 0 0 -1 0 15.5184174)">
								<stop  offset="0" style="stop-color:#F5EABA"/>
								<stop  offset="1" style="stop-color:#CFA16D"/>
							</linearGradient>
							<polygon fill="url(#SVGID_37_)" points="24.6346111,6.3922992 23.6382618,6.2475395 23.1927376,6.8140697 							"/>
							
								<linearGradient id="SVGID_38_" gradientUnits="userSpaceOnUse" x1="22.7436619" y1="8.0704937" x2="23.2293034" y2="7.6853294" gradientTransform="matrix(1 0 0 -1 0 15.5184174)">
								<stop  offset="0" style="stop-color:#CFA16D"/>
								<stop  offset="1" style="stop-color:#9C7949"/>
							</linearGradient>
							<polygon fill="url(#SVGID_38_)" points="22.30159,8.0873327 23.1927376,7.6188278 23.1927376,6.8140697 							"/>
							
								<linearGradient id="SVGID_39_" gradientUnits="userSpaceOnUse" x1="24.0565014" y1="8.4090967" x2="23.6462193" y2="8.0741711" gradientTransform="matrix(1 0 0 -1 0 15.5184174)">
								<stop  offset="0" style="stop-color:#F5EABA"/>
								<stop  offset="1" style="stop-color:#CFA16D"/>
							</linearGradient>
							<polygon fill="url(#SVGID_39_)" points="24.0838871,8.0873327 23.9136257,7.0950561 23.1927376,6.8140697 							"/>
							
								<linearGradient id="SVGID_40_" gradientUnits="userSpaceOnUse" x1="22.30159" y1="8.0677166" x2="23.1927376" y2="8.0677166" gradientTransform="matrix(1 0 0 -1 0 15.5184174)">
								<stop  offset="0" style="stop-color:#F5EABA"/>
								<stop  offset="1" style="stop-color:#CFA16D"/>
							</linearGradient>
							<polygon fill="url(#SVGID_40_)" points="22.4717522,7.0950561 22.30159,8.0873327 23.1927376,6.8140697 							"/>
							
								<linearGradient id="SVGID_41_" gradientUnits="userSpaceOnUse" x1="24.1186924" y1="8.5222797" x2="23.917738" y2="8.907445" gradientTransform="matrix(1 0 0 -1 0 15.5184174)">
								<stop  offset="0" style="stop-color:#CFA16D"/>
								<stop  offset="1" style="stop-color:#9C7949"/>
							</linearGradient>
							<polygon fill="url(#SVGID_41_)" points="23.1927376,6.8140697 23.9136257,7.0950561 24.6346111,6.3922992 							"/>
							
								<linearGradient id="SVGID_42_" gradientUnits="userSpaceOnUse" x1="23.2243652" y1="7.7382488" x2="23.6346493" y2="8.0648012" gradientTransform="matrix(1 0 0 -1 0 15.5184174)">
								<stop  offset="0" style="stop-color:#CFA16D"/>
								<stop  offset="1" style="stop-color:#9C7949"/>
							</linearGradient>
							<polygon fill="url(#SVGID_42_)" points="23.1927376,7.6188278 23.1927376,7.6188278 24.0838871,8.0873327 
								23.1927376,6.8140697 							"/>
						</g>
						<g id="aeed638e-d50e-4670-a477-82c2ef376882">
							
								<linearGradient id="SVGID_43_" gradientUnits="userSpaceOnUse" x1="15.8165398" y1="12.0011349" x2="15.8165398" y2="2.9669981" gradientTransform="matrix(1 0 0 -1 0 15.5184174)">
								<stop  offset="0" style="stop-color:#0A081C"/>
								<stop  offset="0.8392299" style="stop-color:#0A081C;stop-opacity:0.4"/>
								<stop  offset="1" style="stop-color:#0A081C;stop-opacity:0.2"/>
							</linearGradient>
							<path opacity="0.34" fill="url(#SVGID_43_)" enable-background="new    " d="M12.4274406,4.1261859
								c-1.3371162,0.0044398-1.45222,1.5941758-1.4180317,2.4562888c0.0341873,0.862113,0.1603003,1.8218842,0.1774979,2.5103855
								c0.0171967,0.6885014,0.6951313,0.9962902,1.4248981,1.3679667c0.5871429,0.2990351,0.1857367,0.9632854,0.2883005,1.2355337
								c0.2051277,0,0.4984426-0.0025206,0.7878008-0.0025206c1.1347504,0,5.1300068,0.0012608,5.1300068,0.0012608
								s0.3220901,0.0649786,0.8333282-0.7247295c0.4972496-0.7681017,0.4238148-2.2386427,0.4238148-2.8365555
								c0-0.4979563-0.0484791-1.3527269,0.0734348-2.2300525c0.1229801-0.8850012,0.8617153-1.0312014,0.2235432-2.2109342
								s-2.6412773-1.1562335-2.6412773-1.1562335s-1.774332-1.1611036-3.5580578-0.8133377
								C13.3059464,1.8922476,12.9330807,4.1245065,12.4274406,4.1261859z"/>
							<g opacity="0.77">
								
									<radialGradient id="SVGID_44_" cx="14.172699" cy="9.0282049" r="3.3450782" gradientTransform="matrix(1 0 0 -1 0 15.5184174)" gradientUnits="userSpaceOnUse">
									<stop  offset="0" style="stop-color:#0D1142"/>
									<stop  offset="1" style="stop-color:#0D1142;stop-opacity:0"/>
								</radialGradient>
								<circle fill="url(#SVGID_44_)" cx="14.172699" cy="6.4902129" r="3.3450782"/>
							</g>
							<g opacity="0.77">
								
									<radialGradient id="SVGID_45_" cx="14.0757399" cy="6.6042352" r="3.3450785" gradientTransform="matrix(1 0 0 -1 0 15.5184174)" gradientUnits="userSpaceOnUse">
									<stop  offset="0" style="stop-color:#0D1142"/>
									<stop  offset="1" style="stop-color:#0D1142;stop-opacity:0"/>
								</radialGradient>
								<circle fill="url(#SVGID_45_)" cx="14.0757399" cy="8.9141827" r="3.3450785"/>
							</g>
							<g opacity="0.77">
								
									<radialGradient id="SVGID_46_" cx="18.1480103" cy="9.0282049" r="3.3450782" gradientTransform="matrix(1 0 0 -1 0 15.5184174)" gradientUnits="userSpaceOnUse">
									<stop  offset="0" style="stop-color:#0D1142"/>
									<stop  offset="1" style="stop-color:#0D1142;stop-opacity:0"/>
								</radialGradient>
								<circle fill="url(#SVGID_46_)" cx="18.1480103" cy="6.4902129" r="3.3450782"/>
							</g>
							
								<radialGradient id="SVGID_47_" cx="17.7494011" cy="6.8117118" r="3.3450785" gradientTransform="matrix(1 0 0 -1 0 15.5184174)" gradientUnits="userSpaceOnUse">
								<stop  offset="0" style="stop-color:#0D1142"/>
								<stop  offset="1" style="stop-color:#0D1142;stop-opacity:0"/>
							</radialGradient>
							<circle fill="url(#SVGID_47_)" cx="17.7494011" cy="8.7067051" r="3.3450785"/>
							<g id="ba44e6df-62d8-4eb0-833d-f0a18e580419">
								
									<linearGradient id="SVGID_48_" gradientUnits="userSpaceOnUse" x1="14.0155058" y1="14.2781029" x2="18.5725689" y2="1.9643357" gradientTransform="matrix(1 0 0 -1 0 15.5184174)">
									<stop  offset="0" style="stop-color:#C2AEB8"/>
									<stop  offset="0.26213" style="stop-color:#C1C2DB"/>
									<stop  offset="0.47762" style="stop-color:#767097"/>
									<stop  offset="0.66585" style="stop-color:#8E87A5"/>
									<stop  offset="0.86103" style="stop-color:#A099AF"/>
									<stop  offset="1" style="stop-color:#A79FB3"/>
								</linearGradient>
								<path fill-rule="evenodd" clip-rule="evenodd" fill="url(#SVGID_48_)" d="M18.6588364,2.0483027l-0.0000248-0.0000203
									c-0.3953991-0.4782618-0.8398132-1.0157636-2.2963791-1.0157636c-1.6532974,0-2.4945803,0.6925117-2.5805826,1.4704112
									c-0.0174217,0.1574883-0.0352316,0.2951512-0.0535069,0.4364455
									c-0.0719862,0.556622-0.1512547,1.1696334-0.2428551,3.2733054
									c-0.1148338,2.637702-0.0094461,4.7344332,0.1720572,5.3795528
									c0.1815033,0.6451206,0.5926704,0.7971201,1.0322332,0.7971201c0.4395618,0,0.8030052-0.1805992,0.8030052-0.7211065
									c0-0.1511755-0.0059881-0.3060923-0.011898-0.4589453v-0.0000248
									c-0.0152283-0.3937216-0.0298901-0.7737103,0.0596228-1.0400553
									c0.124301-0.3697414,0.1815062-0.5029516,0.7070923-0.3893862c0.5255852,0.1135654,1.9010563,0.3415565,2.0060043,0.2660084
									c0,0,0.0713921,0.1246672-0.2821655,0.2386475c-0.3535347,0.114007-0.3952446,0.154994-0.4236355,0.3731489
									c-0.0283928,0.2181826-0.0481644,0.8398123,0.0860271,1.0673885
									c0.1341896,0.2275505,0.5444832,0.312933,0.8218994,0.2941675c0.2774162-0.0187893,0.6210632-0.066617,0.7264481-0.6737432
									c0.0293732-0.1692686,0.0683479-0.3607082,0.1105499-0.567894v-0.0000505
									c0.1343079-0.5975294,0.2282734-1.2034159,0.2812614-1.8135567c0.0576363-0.8825045,0.0955048-2.8934388,0-3.1782126
									c-0.4110146,0.1014261-0.8298264,0.1681237-1.2520142,0.1993895
									c-0.8219261,0.0759883-1.8924351,0.0375547-2.513937-0.4081755s-0.6787004-1.1288428-0.6210642-1.7551723
									c0.0576353-0.6263537,0.0959139-0.9320378,0.8172026-1.3235488c0.7595387-0.4128602,2.814558-0.2608666,2.814558-0.2608666
									C18.7647648,2.1764076,18.7122402,2.1128948,18.6588364,2.0483027z M16.3101654,2.78055
									c-0.5495129,0.2583709-0.5499287,0.8418691-0.5495129,1.1962545
									c0.000412,0.3544104,0.0370636,1.2918665,1.2358284,1.4064152c1.19874,0.1145492,1.8949413-0.0383296,2.5721703-0.4211578
									c0.6772289-0.382803,0.6982365-1.1458795,0.3847637-1.5019889c-0.640995-0.7273171-0.9660282-0.7609055-2.3802128-0.8711436
									C17.5736141,2.5889244,16.8597069,2.5221772,16.3101654,2.78055z M13.0428562,7.0250821
									c0.0010424-0.8807874,0.0466576-1.7609577,0.1366692-2.6371346L12.3001909,4.425529
									c-0.403224,0.0169568-0.4546003,0.3460212-0.5458698,0.930563c-0.0088234,0.0565271-0.0180178,0.1154265-0.0279398,0.176651
									c-0.1125612,0.6946507-0.1413383,2.4306726,0,3.4158521c0.1413374,0.9851789,1.41084,0.8538542,1.41084,0.8538542
									S13.0428562,8.460844,13.0428562,7.0250821z"/>
							</g>
							<g opacity="0.99">
								
									<radialGradient id="SVGID_49_" cx="14.8029308" cy="12.5322809" r="1.5028613" gradientTransform="matrix(1 0 0 -1 0 15.5184174)" gradientUnits="userSpaceOnUse">
									<stop  offset="0" style="stop-color:#E6EEFF"/>
									<stop  offset="1" style="stop-color:#E6EEFF;stop-opacity:0"/>
								</radialGradient>
								<circle fill="url(#SVGID_49_)" cx="14.8029308" cy="2.9861367" r="1.5028613"/>
							</g>
							<g opacity="0.43">
								
									<radialGradient id="SVGID_50_" cx="14.8029308" cy="12.5322809" r="2.3754904" gradientTransform="matrix(1 0 0 -1 0 15.5184174)" gradientUnits="userSpaceOnUse">
									<stop  offset="0" style="stop-color:#E6EEFF"/>
									<stop  offset="1" style="stop-color:#E6EEFF;stop-opacity:0"/>
								</radialGradient>
								<circle fill="url(#SVGID_50_)" cx="14.8029308" cy="2.9861367" r="2.3754904"/>
							</g>
						</g>
					</g>
				</g>
			</g>
		</g>
	</g>
</g>
</svg>
