<?xml version="1.0" encoding="utf-8"?>
<!-- Generator: Adobe Illustrator 24.3.0, SVG Export Plug-In . SVG Version: 6.00 Build 0)  -->
<svg version="1.1" id="Слой_1" xmlns="http://www.w3.org/2000/svg" xmlns:xlink="http://www.w3.org/1999/xlink" x="0px" y="0px"
	 width="32px" height="13px" viewBox="0 0 32 13" enable-background="new 0 0 32 13" xml:space="preserve">
<g id="ecb449c0-550f-40b6-ae68-5c79ec99dda3">
	<g id="b3b93711-d934-48fd-93be-e1a1b73897cd">
		<g id="bdbdf535-6681-4f25-b856-a0679caaece9">
			<g id="be65cb7a-7823-4b64-92f6-ee41d5cd24c1">
				<g id="a55c6f14-acd7-4d2f-bd62-4f4748f796ae">
					<g id="a158fe5f-d23c-4a42-b423-a563cc24c8b4">
						
							<linearGradient id="SVGID_1_" gradientUnits="userSpaceOnUse" x1="18.0070553" y1="14.520484" x2="13.5669727" y2="1.6804196" gradientTransform="matrix(1 0 0 -1 0 15.5184174)">
							<stop  offset="0" style="stop-color:#0E0B16"/>
							<stop  offset="1" style="stop-color:#20213A"/>
						</linearGradient>
						
							<linearGradient id="SVGID_2_" gradientUnits="userSpaceOnUse" x1="15.9997339" y1="14.1663198" x2="15.9997339" y2="3.2648895" gradientTransform="matrix(1 0 0 -1 0 15.5184174)">
							<stop  offset="0" style="stop-color:#645C5E"/>
							<stop  offset="1" style="stop-color:#54474D"/>
						</linearGradient>
						
							<polygon opacity="0.4" fill="url(#SVGID_1_)" stroke="url(#SVGID_2_)" stroke-width="0.1070121" stroke-miterlimit="10" enable-background="new    " points="
							31.1566601,12.2000217 0.8428053,12.2000217 4.0678291,6.8027596 0.8428053,1.405604 31.1566601,1.405604 27.93153,6.8027596 
													"/>
						
							<linearGradient id="SVGID_3_" gradientUnits="userSpaceOnUse" x1="29.8551807" y1="12.1019611" x2="28.6780472" y2="5.0391622" gradientTransform="matrix(1 0 0 -1 0 15.5184174)">
							<stop  offset="0" style="stop-color:#29264E"/>
							<stop  offset="0.34637" style="stop-color:#8E6B98"/>
							<stop  offset="0.63128" style="stop-color:#D38B8B"/>
						</linearGradient>
						<polygon fill="url(#SVGID_3_)" points="27.3432827,11.1842632 29.3765125,11.1842632 31.9448032,6.8502731 
							29.3765125,2.5162826 27.3432827,2.5162826 29.9115734,6.8502731 						"/>
						
							<linearGradient id="SVGID_4_" gradientUnits="userSpaceOnUse" x1="27.3432827" y1="8.6681719" x2="31.9448032" y2="8.6681719" gradientTransform="matrix(1 0 0 -1 0 15.5184174)">
							<stop  offset="0.0838" style="stop-color:#54467F"/>
							<stop  offset="0.25419" style="stop-color:#81739D"/>
							<stop  offset="1" style="stop-color:#7A758E"/>
						</linearGradient>
						<path fill="url(#SVGID_4_)" d="M29.3155346,2.6232669l2.504858,4.2269783l-2.504858,4.2269788h-1.7844582l2.4725647-4.1724281
							l0.0323448-0.0545506l-0.0323448-0.0545511l-2.4725647-4.1724272H29.3155346 M29.3765125,2.5162549h-2.0332298
							l2.5682907,4.3339901l-2.5682907,4.3339906h2.0332298l2.5682907-4.3339906L29.3765125,2.5162549z"/>
						
							<linearGradient id="SVGID_5_" gradientUnits="userSpaceOnUse" x1="10382.1796875" y1="12.1019554" x2="10381.0019531" y2="5.0391564" gradientTransform="matrix(-1 0 0 -1 10384.3242188 15.5184174)">
							<stop  offset="0" style="stop-color:#29264E"/>
							<stop  offset="0.34637" style="stop-color:#8E6B98"/>
							<stop  offset="0.63128" style="stop-color:#D38B8B"/>
						</linearGradient>
						<polygon fill="url(#SVGID_5_)" points="4.6567168,11.1842632 2.6234868,11.1842632 0.0551962,6.8502731 2.6234868,2.5162826 
							4.6567168,2.5162826 2.0884261,6.8502731 						"/>
						
							<linearGradient id="SVGID_6_" gradientUnits="userSpaceOnUse" x1="2.3559566" y1="4.3341794" x2="2.3559566" y2="13.0021601" gradientTransform="matrix(1 0 0 -1 0 15.5184174)">
							<stop  offset="0.0838" style="stop-color:#54467F"/>
							<stop  offset="0.25419" style="stop-color:#81739D"/>
							<stop  offset="1" style="stop-color:#7A758E"/>
						</linearGradient>
						<path fill="url(#SVGID_6_)" d="M4.4689236,2.6232669l-2.4725652,4.17243L1.9640139,6.8502483l0.0323445,0.0545502
							l2.4725652,4.1724272H2.6844645L0.1796084,6.8502479l2.5048561-4.2269783h1.7844591 M4.6567168,2.5162573H2.6234868
							L0.0551962,6.8502479l2.5682905,4.3339896h2.0332301L2.0884261,6.8502479L4.6567168,2.5162573z"/>
						<polygon opacity="0.44" fill="#171428" enable-background="new    " points="2.1696484,3.251456 3.3574827,4.6785693 
							3.8496315,3.8458011 2.6039035,2.5162826 						"/>
						<polygon opacity="0.44" fill="#171428" enable-background="new    " points="2.1696484,10.4125996 3.3574827,8.985486 
							3.8496315,9.8182535 2.6039035,11.1477718 						"/>
						<polygon opacity="0.44" fill="#171428" enable-background="new    " points="29.8336697,10.4125996 28.645834,8.985486 
							28.1536865,9.8182535 29.3994122,11.1477718 						"/>
						<polygon opacity="0.44" fill="#171428" enable-background="new    " points="29.8121605,3.251456 28.6243267,4.6785693 
							28.1320705,3.8458011 29.3779049,2.5162826 						"/>
						
							<linearGradient id="SVGID_7_" gradientUnits="userSpaceOnUse" x1="15.9996786" y1="14.2267723" x2="15.9996786" y2="2.7399206" gradientTransform="matrix(1 0 0 -1 0 15.5184174)">
							<stop  offset="0" style="stop-color:#151324"/>
							<stop  offset="0.49721" style="stop-color:#151324"/>
							<stop  offset="0.7904999" style="stop-color:#32304E"/>
							<stop  offset="1" style="stop-color:#111B39"/>
						</linearGradient>
						<polygon fill="url(#SVGID_7_)" points="29.9100742,11.5647984 2.0892823,11.5647984 4.9476829,6.8027596 2.0892823,2.0407209 
							29.9100742,2.0407209 27.0516739,6.8027596 						"/>
						
							<linearGradient id="SVGID_8_" gradientUnits="userSpaceOnUse" x1="6.5154643" y1="18.1999187" x2="25.4839611" y2="-0.7685783" gradientTransform="matrix(1 0 0 -1 0 15.5184174)">
							<stop  offset="0" style="stop-color:#C0957E"/>
							<stop  offset="0.59777" style="stop-color:#776056"/>
							<stop  offset="1" style="stop-color:#705947"/>
						</linearGradient>
						<path fill="url(#SVGID_8_)" d="M29.9101105,2.040709l-2.8584461,4.7620387l2.8584461,4.7620382H2.0893145l2.8583937-4.7620387
							L2.0893142,2.0407085h27.8207932 M30.0991554,1.9336965H1.9002668L1.99756,2.0957825l2.8253179,4.7069654
							l-2.8253179,4.7069645L1.900267,11.6717978h28.1988926l-0.0972939-0.1620855l-2.8253708-4.7069645l2.8253708-4.7069654
							l0.0972939-0.1620859L30.0991554,1.9336965z"/>
						<polygon opacity="0.4" fill="#0A0916" enable-background="new    " points="3.0095863,6.9160852 4.9239264,10.9523678 
							27.0516739,10.9523678 29.3345642,6.9349194 27.2894554,3.4081216 5.1260719,3.4081216 						"/>
						
							<linearGradient id="SVGID_9_" gradientUnits="userSpaceOnUse" x1="15.9996786" y1="12.1103115" x2="15.9996786" y2="4.1902351" gradientTransform="matrix(1 0 0 -1 0 15.5184174)">
							<stop  offset="0" style="stop-color:#29264E"/>
							<stop  offset="0.72067" style="stop-color:#8E6B98"/>
							<stop  offset="1" style="stop-color:#D38B8B"/>
						</linearGradient>
						<polygon fill="url(#SVGID_9_)" points="26.7914219,10.3876648 5.2080431,10.3876648 3.0095863,6.8027596 5.2080431,3.217854 
							26.7914219,3.217854 28.9897709,6.8027596 						"/>
						
							<linearGradient id="SVGID_10_" gradientUnits="userSpaceOnUse" x1="2.8841166" y1="8.7156696" x2="29.1153049" y2="8.7156696" gradientTransform="matrix(1 0 0 -1 0 15.5184174)">
							<stop  offset="0.0838" style="stop-color:#54467F"/>
							<stop  offset="0.25419" style="stop-color:#81739D"/>
							<stop  offset="1" style="stop-color:#7A758E"/>
						</linearGradient>
						<path fill="url(#SVGID_10_)" d="M26.7913971,3.2178421l2.1983986,3.5849056l-2.1983986,3.5849047H5.2079759
							L3.0096262,6.8027472l2.1983497-3.5849054h21.5834217 M26.8513298,3.1108296H5.1480422L5.1167436,3.1618743
							L2.9183939,6.7467799L2.8841166,6.8027468l0.0342772,0.0559626l2.1983497,3.5849056l0.0312986,0.0510502h21.7032871
							l0.0312996-0.0510502l2.1983986-3.5849056l0.034277-0.0559621l-0.034277-0.0559673l-2.1983986-3.5849054
							C26.8826294,3.1618745,26.8513298,3.1108298,26.8513298,3.1108296z"/>
						
							<linearGradient id="SVGID_11_" gradientUnits="userSpaceOnUse" x1="1.1491146" y1="-9559.8183594" x2="31.7377586" y2="-9559.8183594" gradientTransform="matrix(1 0 0 1 0 9567.5576172)">
							<stop  offset="0.00559" style="stop-color:#D1BBFF;stop-opacity:0"/>
							<stop  offset="1" style="stop-color:#DBBFAC;stop-opacity:0.3"/>
						</linearGradient>
						<path fill="url(#SVGID_11_)" d="M28.5057926,7.7957568c-0.7490845-0.4408903-4.3117962-1.3642974-5.0627499-1.1000843
							c-0.9123459,0.3209872-1.9320431,0.6482449-3.5818748-0.7789702
							c-2.8613701-2.4752712-7.2170553,0.7292266-8.0824442,0.9929943C9.7776022,7.5196652,8.1938181,9.5314932,6.1070824,8.1938419
							C4.6120687,7.2354994,4.2204204,7.6887445,3.143872,7.2296624l2.0022061,3.2649398h21.7052975L28.5057926,7.7957568z"/>
						
							<linearGradient id="SVGID_12_" gradientUnits="userSpaceOnUse" x1="15.9995098" y1="5.2175832" x2="16.0014191" y2="5.4459243" gradientTransform="matrix(1 0 0 -1 0 15.5184174)">
							<stop  offset="0" style="stop-color:#CDC8E2"/>
							<stop  offset="1" style="stop-color:#EFC8D6;stop-opacity:0"/>
						</linearGradient>
						<polygon opacity="0.57" fill="url(#SVGID_12_)" enable-background="new    " points="26.2193336,10.0666285 
							6.3150835,10.0666285 5.3519745,10.280653 26.6473827,10.280653 						"/>
					</g>
					<g id="a91282d3-8705-489f-a22e-3612a68fd1d5">
						
							<linearGradient id="SVGID_13_" gradientUnits="userSpaceOnUse" x1="15.8877659" y1="12.3104019" x2="15.8877659" y2="2.3395479" gradientTransform="matrix(1 0 0 -1 0 15.5184174)">
							<stop  offset="0" style="stop-color:#0A081C"/>
							<stop  offset="0.8392299" style="stop-color:#0A081C;stop-opacity:0.4"/>
							<stop  offset="1" style="stop-color:#0A081C;stop-opacity:0.2"/>
						</linearGradient>
						<path opacity="0.34" fill="url(#SVGID_13_)" enable-background="new    " d="M12.1472645,3.8800535
							c-1.4757566,0.0049002-1.6027946,1.7594705-1.5650625,2.7109728s0.1769209,2.0107889,0.1959019,2.7706776
							c0.01898,0.7598896,0.7672071,1.0995932,1.5726414,1.5098066c0.6480217,0.3300419,0.2049942,1.0631647,0.3181925,1.3636427
							c0.2263956,0,0.5501242-0.0027828,0.8694839-0.0027828c1.252408,0,5.6619167,0.0013914,5.6619167,0.0013914
							s0.3554897,0.0717173,0.919733-0.7998734c0.5488091-0.847743,0.4677601-2.4707603,0.4677601-3.1306686
							c0-0.5495872-0.0535049-1.4929857,0.081049-2.4612784c0.1357307-0.9767637,0.9510651-1.138123,0.2467213-2.4401777
							c-0.7043419-1.3020549-2.9151421-1.2761195-2.9151421-1.2761195S16.0421562,0.84415,14.0734816,1.2279745
							C13.1168623,1.4144861,12.7053328,3.8782001,12.1472645,3.8800535z"/>
						<g opacity="0.77">
							
								<radialGradient id="SVGID_14_" cx="14.0734816" cy="9.0292196" r="3.6919177" gradientTransform="matrix(1 0 0 -1 0 15.5184174)" gradientUnits="userSpaceOnUse">
								<stop  offset="0" style="stop-color:#0D1142"/>
								<stop  offset="1" style="stop-color:#0D1142;stop-opacity:0"/>
							</radialGradient>
							<circle fill="url(#SVGID_14_)" cx="14.0734816" cy="6.4891982" r="3.6919174"/>
						</g>
						<g opacity="0.77">
							
								<radialGradient id="SVGID_15_" cx="13.9664698" cy="6.3539171" r="3.6919177" gradientTransform="matrix(1 0 0 -1 0 15.5184174)" gradientUnits="userSpaceOnUse">
								<stop  offset="0" style="stop-color:#0D1142"/>
								<stop  offset="1" style="stop-color:#0D1142;stop-opacity:0"/>
							</radialGradient>
							<circle fill="url(#SVGID_15_)" cx="13.9664698" cy="9.1645002" r="3.6919177"/>
						</g>
						<g opacity="0.77">
							
								<radialGradient id="SVGID_16_" cx="17.937809" cy="9.0584726" r="3.6919177" gradientTransform="matrix(1 0 0 -1 0 15.5184174)" gradientUnits="userSpaceOnUse">
								<stop  offset="0" style="stop-color:#0D1142"/>
								<stop  offset="1" style="stop-color:#0D1142;stop-opacity:0"/>
							</radialGradient>
							<circle fill="url(#SVGID_16_)" cx="17.937809" cy="6.4599442" r="3.6919179"/>
						</g>
						
							<radialGradient id="SVGID_17_" cx="17.7653999" cy="6.6121602" r="3.6919177" gradientTransform="matrix(1 0 0 -1 0 15.5184174)" gradientUnits="userSpaceOnUse">
							<stop  offset="0" style="stop-color:#0D1142"/>
							<stop  offset="1" style="stop-color:#0D1142;stop-opacity:0"/>
						</radialGradient>
						<circle fill="url(#SVGID_17_)" cx="17.7653999" cy="8.9062567" r="3.6919177"/>
						<g id="af9d7cfd-03ae-4484-b0ae-4b42485a7713">
							
								<linearGradient id="SVGID_18_" gradientUnits="userSpaceOnUse" x1="13.899992" y1="14.8234615" x2="18.9295616" y2="1.2329234" gradientTransform="matrix(1 0 0 -1 0 15.5184174)">
								<stop  offset="0" style="stop-color:#C2AEB8"/>
								<stop  offset="0.26213" style="stop-color:#C5C2DB"/>
								<stop  offset="0.47762" style="stop-color:#767097"/>
								<stop  offset="0.56301" style="stop-color:#877FA4"/>
								<stop  offset="0.74022" style="stop-color:#A59ABA"/>
								<stop  offset="0.8921301" style="stop-color:#B7ABC7"/>
								<stop  offset="1" style="stop-color:#BEB1CC"/>
							</linearGradient>
							<path fill-rule="evenodd" clip-rule="evenodd" fill="url(#SVGID_18_)" d="M19.0247726,1.586722L19.024744,1.5866996
								c-0.4363956-0.5278511-0.9268894-1.1210846-2.5344791-1.1210846c-1.8247223,0-2.7532358,0.7643158-2.848155,1.6228728
								c-0.019228,0.1738179-0.0388861,0.3257546-0.0590544,0.481699c-0.0794506,0.6143363-0.1669388,1.2909086-0.2680359,3.6127031
								c-0.1267405,2.9111958-0.0104265,5.2253294,0.1898956,5.9373398S14.1590376,13,14.6441765,13
								s0.8862677-0.1993246,0.8862677-0.7958755c0-0.1668501-0.0066099-0.3378296-0.013133-0.5065317v-0.0000277
								c-0.0168076-0.4345446-0.0329895-0.8539333,0.0658045-1.1478939c0.1371889-0.4080791,0.200326-0.5551014,0.7804079-0.4297609
								s2.0981693,0.3769712,2.2139988,0.2935905c0,0,0.0787964,0.1375923-0.3114223,0.2633915
								c-0.3901901,0.1258278-0.436224,0.1710644-0.4675598,0.4118395
								c-0.0313358,0.2408047-0.0531578,0.9268894,0.0949459,1.1780624
								c0.1481056,0.2511435,0.6009407,0.3453789,0.9071198,0.3246689c0.306181-0.0207376,0.685461-0.0735254,0.8017731-0.7436018
								c0.0324173-0.18682,0.0754337-0.3981085,0.1220112-0.6267767v-0.0000563
								c0.1482353-0.6594849,0.2519436-1.3281937,0.3104267-2.0015984c0.063612-0.9740076,0.105402-3.1934485,0-3.5077496
								c-0.4536304,0.1119418-0.9158707,0.1855555-1.3818321,0.2200632
								c-0.9071484,0.0838671-2.0886574,0.0414486-2.7745991-0.4504976c-0.6859436-0.4919467-0.749074-1.2458887-0.685462-1.9371598
								c0.063612-0.6912982,0.1058598-1.0286775,0.9019346-1.4607828c0.838295-0.4556684,3.10639-0.2879152,3.10639-0.2879152
								C19.1416836,1.7281095,19.0837116,1.6580113,19.0247726,1.586722z M16.4325771,2.3948934
								c-0.6064949,0.2851605-0.6069498,0.9291594-0.6064949,1.3202899
								c0.0004559,0.3911581,0.0409069,1.4258156,1.3639679,1.5522418c1.3230324,0.1264262,2.0914192-0.042304,2.8388691-0.4648266
								c0.747448-0.4224944,0.7706356-1.2646916,0.4246578-1.6577246c-0.7074585-0.8027301-1.0661926-0.8398011-2.6270084-0.9614697
								C17.8270264,2.183399,17.0390987,2.1097307,16.4325771,2.3948934z M12.8264904,7.0795259
								c0.001152-0.9721131,0.0514994-1.9435453,0.1508455-2.9105697l-0.9705095,0.0414782
								c-0.4450331,0.0187149-0.5017366,0.3818994-0.6024685,1.0270495c-0.0097389,0.0623884-0.019886,0.1273952-0.030838,0.1949677
								c-0.1242323,0.7666764-0.1559925,2.6827006,0,3.7700295s1.5571251,0.9423866,1.5571251,0.9423866
								S12.8264904,8.6641569,12.8264904,7.0795259z"/>
						</g>
						<g opacity="0.75">
							
								<radialGradient id="SVGID_19_" cx="14.7690601" cy="12.8966208" r="1.6586876" gradientTransform="matrix(1 0 0 -1 0 15.5184174)" gradientUnits="userSpaceOnUse">
								<stop  offset="0" style="stop-color:#E6EEFF"/>
								<stop  offset="1" style="stop-color:#E6EEFF;stop-opacity:0"/>
							</radialGradient>
							<circle fill="url(#SVGID_19_)" cx="14.7690601" cy="2.6217966" r="1.6586876"/>
						</g>
						<g opacity="0.37">
							
								<radialGradient id="SVGID_20_" cx="14.7690601" cy="12.8966208" r="2.6217966" gradientTransform="matrix(1 0 0 -1 0 15.5184174)" gradientUnits="userSpaceOnUse">
								<stop  offset="0" style="stop-color:#E6EEFF"/>
								<stop  offset="1" style="stop-color:#E6EEFF;stop-opacity:0"/>
							</radialGradient>
							<circle fill="url(#SVGID_20_)" cx="14.7690601" cy="2.6217966" r="2.6217966"/>
						</g>
					</g>
				</g>
			</g>
		</g>
	</g>
</g>
</svg>
