<?xml version="1.0" encoding="utf-8"?>
<!-- Generator: Adobe Illustrator 24.3.0, SVG Export Plug-In . SVG Version: 6.00 Build 0)  -->
<svg version="1.1" id="Слой_1" xmlns="http://www.w3.org/2000/svg" xmlns:xlink="http://www.w3.org/1999/xlink" x="0px" y="0px"
	 width="32px" height="13px" viewBox="0 0 32 13" enable-background="new 0 0 32 13" xml:space="preserve">
<g>
	<g id="bb62afb9-712d-4935-8b73-59ee32447b01">
		<g id="bb60abff-0287-4589-a068-dced1e888338">
			<g id="acecd15d-59ba-4642-9417-212a69bd2ec6">
				<g id="f90fa951-f677-44e4-b0cc-2c3e9c04fd35">
					<g id="bec10d69-ba4b-4e80-8602-5359a5e000c1">
						<g id="af2592eb-b3b3-463c-8f09-cb6ec984374c">
							
								<linearGradient id="b2d6e4c8-192c-4fbd-a33a-127cb148df70_1_" gradientUnits="userSpaceOnUse" x1="17.7179661" y1="13.8836794" x2="13.8050356" y2="2.5680633" gradientTransform="matrix(1 0 0 -1 0 15.5184174)">
								<stop  offset="0" style="stop-color:#0E0B16"/>
								<stop  offset="1" style="stop-color:#20213A"/>
							</linearGradient>
							
								<linearGradient id="b2d6e4c8-192c-4fbd-a33a-127cb148df70_2_" gradientUnits="userSpaceOnUse" x1="15.9434519" y1="13.7656364" x2="15.9434519" y2="3.7400117" gradientTransform="matrix(1 0 0 -1 0 15.5184174)">
								<stop  offset="0" style="stop-color:#645C5E"/>
								<stop  offset="1" style="stop-color:#54474D"/>
							</linearGradient>
							
								<polygon id="b2d6e4c8-192c-4fbd-a33a-127cb148df70" opacity="0.73" fill="url(#b2d6e4c8-192c-4fbd-a33a-127cb148df70_1_)" stroke="url(#b2d6e4c8-192c-4fbd-a33a-127cb148df70_2_)" stroke-width="0.0984149" stroke-miterlimit="10" enable-background="new    " points="
								28.7512226,11.7291985 3.2346978,11.7291985 0.1973187,6.7656422 3.2346978,1.8019881 28.7512226,1.8019881 
								31.6900883,6.7656422 							"/>
							<g id="e893487c-84a7-4830-a531-8ae5fd505e16">
								
									<linearGradient id="SVGID_1_" gradientUnits="userSpaceOnUse" x1="15.9929609" y1="13.8211775" x2="15.9929609" y2="3.2571614" gradientTransform="matrix(1 0 0 -1 0 15.5184174)">
									<stop  offset="0" style="stop-color:#231324"/>
									<stop  offset="0.49721" style="stop-color:#2C1324"/>
									<stop  offset="0.85754" style="stop-color:#452231"/>
								</linearGradient>
								<polygon fill="url(#SVGID_1_)" points="28.392107,11.1451063 3.5937157,11.1451063 0.9081696,6.7656422 3.5937157,2.386179 
									28.392107,2.386179 31.0777512,6.7656422 								"/>
								
									<linearGradient id="SVGID_2_" gradientUnits="userSpaceOnUse" x1="15.9929552" y1="13.2306862" x2="15.9929552" y2="4.2749195" gradientTransform="matrix(1 0 0 -1 0 15.5184174)">
									<stop  offset="0" style="stop-color:#C0957E"/>
									<stop  offset="0.59777" style="stop-color:#776056"/>
									<stop  offset="1" style="stop-color:#705947"/>
								</linearGradient>
								<path fill="url(#SVGID_2_)" d="M28.3921528,2.3861465l2.6856022,4.3794632l-2.6856022,4.3794632H3.5937588
									L0.9081568,6.7656097l2.6856019-4.3794632H28.392149 M28.4472198,2.2877312H3.5386407L3.5098565,2.3346801
									L0.8242542,6.7141438L0.79273,6.7656145l0.0315242,0.0514708l2.6856022,4.3794632l0.0287843,0.0469494h24.9085789
									l0.0288353-0.0469494l2.6856022-4.3794632l0.0315228-0.0514708l-0.0315228-0.0514708l-2.6856022-4.3794637
									L28.4472198,2.2877312z"/>
							</g>
							<g id="bcd88b56-4b4a-4ff0-b8c6-86d7cf102b34">
								<polygon opacity="0.4" fill="#0A0916" enable-background="new    " points="6.0148206,6.8697653 3.8386703,10.5818777 
									28.1253052,10.5818777 26.28829,6.8871851 28.3439808,3.6436262 4.0245762,3.6436262 								"/>
								
									<linearGradient id="SVGID_3_" gradientUnits="userSpaceOnUse" x1="15.99296" y1="11.8747492" x2="15.99296" y2="4.59096" gradientTransform="matrix(1 0 0 -1 0 15.5184174)">
									<stop  offset="0" style="stop-color:#652533"/>
									<stop  offset="1" style="stop-color:#FF9292"/>
								</linearGradient>
								<polygon fill="url(#SVGID_3_)" points="27.8859596,10.062542 4.0999618,10.062542 6.0148206,6.7656422 4.0999618,3.4687431 
									27.8859596,3.4687431 25.9710999,6.7656422 								"/>
								
									<linearGradient id="SVGID_4_" gradientUnits="userSpaceOnUse" x1="3.9289362" y1="8.7528076" x2="28.0569267" y2="8.7528076" gradientTransform="matrix(1 0 0 -1 0 15.5184174)">
									<stop  offset="0" style="stop-color:#241B3B"/>
									<stop  offset="0.25419" style="stop-color:#9C7393"/>
									<stop  offset="1" style="stop-color:#59415E"/>
								</linearGradient>
								<path fill="url(#SVGID_4_)" d="M27.8859501,3.4687107l-1.914814,3.2968991l1.914814,3.2968988H4.0999136
									l1.9148588-3.2968988L4.0999136,3.4687102h23.7860374 M28.0569267,3.3702953H3.9289362l0.0858729,0.1478624
									l1.8861742,3.247452l-1.8861737,3.2474527l-0.0858729,0.1478624h24.1279907l-0.0858727-0.1478624l-1.8861237-3.2474523
									l1.8861237-3.2474515C27.9710541,3.5181587,28.0569267,3.3702962,28.0569267,3.3702953z"/>
								
									<linearGradient id="SVGID_5_" gradientUnits="userSpaceOnUse" x1="15.8679905" y1="3.6925468" x2="16.2522945" y2="9.1154795" gradientTransform="matrix(1 0 0 -1 0 15.5184174)">
									<stop  offset="0.00559" style="stop-color:#F1CAD1;stop-opacity:0"/>
									<stop  offset="1" style="stop-color:#FFBFB3;stop-opacity:0.3"/>
								</linearGradient>
								<path opacity="0.91" fill="url(#SVGID_5_)" enable-background="new    " d="M26.5365505,7.7391281
									c-0.6889038-0.4054694-2.4371758-1.3751369-3.1277962-1.1321564
									c-0.8390503,0.2951994-2.1184311,0.6107631-3.6357174-0.7017889
									c-2.6314945-2.2764122-4.9525185,0.6178489-5.7483845,0.8604255
									c-1.840354,0.5609646-3.2968988,2.4111648-5.2159901,1.1809788c-1.3749051-0.88135-1.9950771-0.4294915-2.9851356-0.8516955
									l-1.7240138,2.9676161h23.7868805L26.5365505,7.7391281z"/>
								
									<linearGradient id="SVGID_6_" gradientUnits="userSpaceOnUse" x1="15.9926672" y1="5.5251451" x2="15.994586" y2="5.7544956" gradientTransform="matrix(1 0 0 -1 0 15.5184174)">
									<stop  offset="0" style="stop-color:#FFDBE8"/>
									<stop  offset="1" style="stop-color:#EFC8D6;stop-opacity:0"/>
								</linearGradient>
								<polygon opacity="0.81" fill="url(#SVGID_6_)" enable-background="new    " points="27.3598328,9.7672977 
									5.1180639,9.7672977 4.2323298,9.9641275 27.7534924,9.9641275 								"/>
							</g>
							<g id="f4eba7f8-ef01-4e08-ad7b-b946b24aab4b">
								<polygon opacity="0.41" fill="#0C080F" enable-background="new    " points="31.0281506,12.0988445 30.2571678,12.0988445 
									27.2334671,7.0825386 29.5934582,2.7298439 30.423687,2.7298439 27.9428425,7.0825386 								"/>
								
									<linearGradient id="SVGID_7_" gradientUnits="userSpaceOnUse" x1="10468.7548828" y1="12.3874006" x2="10466.8349609" y2="0.869909" gradientTransform="matrix(-1 0 0 -1 10497.0585938 15.5184174)">
									<stop  offset="0" style="stop-color:#FFF0E6"/>
									<stop  offset="0.09497" style="stop-color:#DCAC8E"/>
									<stop  offset="0.29609" style="stop-color:#DCAC92"/>
									<stop  offset="0.48324" style="stop-color:#A76166"/>
									<stop  offset="1" style="stop-color:#C9A7A2"/>
								</linearGradient>
								
									<linearGradient id="SVGID_8_" gradientUnits="userSpaceOnUse" x1="10464.9521484" y1="7.4724336" x2="10469.3779297" y2="10.0275326" gradientTransform="matrix(-1 0 0 -1 10497.0585938 15.5184174)">
									<stop  offset="0" style="stop-color:#DCAC8E"/>
									<stop  offset="0.03631" style="stop-color:#BE9791"/>
									<stop  offset="0.39106" style="stop-color:#DCA58E"/>
									<stop  offset="0.56145" style="stop-color:#83596F"/>
									<stop  offset="0.7904999" style="stop-color:#EAC9AB"/>
									<stop  offset="1" style="stop-color:#C9A794"/>
								</linearGradient>
								<polygon fill="url(#SVGID_7_)" stroke="url(#SVGID_8_)" stroke-width="0.0984149" stroke-miterlimit="10" points="
									30.0680141,11.3781519 29.7143116,11.3781519 26.9917622,6.7837505 29.7143116,2.1893492 30.0680141,2.1893492 
									27.3453655,6.7837505 								"/>
							</g>
							<g id="b61c9f62-c747-41de-a428-99f6ae7d0e24">
								<polygon opacity="0.41" fill="#0C080F" enable-background="new    " points="31.9997997,12.0988445 31.2288189,12.0988445 
									28.2051201,7.0825386 30.5651073,2.7298439 31.3953362,2.7298439 28.9144917,7.0825386 								"/>
								
									<linearGradient id="SVGID_9_" gradientUnits="userSpaceOnUse" x1="10467.7832031" y1="12.3873997" x2="10465.8632812" y2="0.8699085" gradientTransform="matrix(-1 0 0 -1 10497.0585938 15.5184174)">
									<stop  offset="0" style="stop-color:#FFF0E6"/>
									<stop  offset="0.09497" style="stop-color:#DCAC8E"/>
									<stop  offset="0.29609" style="stop-color:#DCAC92"/>
									<stop  offset="0.48324" style="stop-color:#A76166"/>
									<stop  offset="1" style="stop-color:#C9A7A2"/>
								</linearGradient>
								
									<linearGradient id="SVGID_10_" gradientUnits="userSpaceOnUse" x1="10463.9804688" y1="7.4724331" x2="10468.40625" y2="10.0275326" gradientTransform="matrix(-1 0 0 -1 10497.0585938 15.5184174)">
									<stop  offset="0" style="stop-color:#DCAC8E"/>
									<stop  offset="0.03631" style="stop-color:#BE9791"/>
									<stop  offset="0.39106" style="stop-color:#DCA58E"/>
									<stop  offset="0.56145" style="stop-color:#83596F"/>
									<stop  offset="0.7904999" style="stop-color:#EAC9AB"/>
									<stop  offset="1" style="stop-color:#C9A794"/>
								</linearGradient>
								<polygon fill="url(#SVGID_9_)" stroke="url(#SVGID_10_)" stroke-width="0.0984149" stroke-miterlimit="10" points="
									31.0396652,11.3781519 30.6859608,11.3781519 27.9634132,6.7837505 30.6859608,2.1893492 31.0396652,2.1893492 
									28.3170166,6.7837505 								"/>
							</g>
							<g id="aabb8203-528e-444e-a272-f5d0ce4f79a2">
								<polygon opacity="0.41" fill="#0C080F" enable-background="new    " points="0.9714504,12.0988445 1.7424328,12.0988445 
									4.7661324,7.0825386 2.406143,2.7298439 1.5759147,2.7298439 4.0567575,7.0825386 								"/>
								
									<linearGradient id="SVGID_11_" gradientUnits="userSpaceOnUse" x1="-354.0774536" y1="12.3873873" x2="-355.9970398" y2="0.8698965" gradientTransform="matrix(1 0 0 -1 357.7731323 15.5184174)">
									<stop  offset="0" style="stop-color:#FFF0E6"/>
									<stop  offset="0.09497" style="stop-color:#DCAC8E"/>
									<stop  offset="0.29609" style="stop-color:#DCAC92"/>
									<stop  offset="0.48324" style="stop-color:#A76166"/>
									<stop  offset="1" style="stop-color:#C9A7A2"/>
								</linearGradient>
								
									<linearGradient id="SVGID_12_" gradientUnits="userSpaceOnUse" x1="-357.880127" y1="7.4724169" x2="-353.4544678" y2="10.0275822" gradientTransform="matrix(1 0 0 -1 357.7731323 15.5184174)">
									<stop  offset="0" style="stop-color:#DCAC8E"/>
									<stop  offset="0.03631" style="stop-color:#BE9791"/>
									<stop  offset="0.39106" style="stop-color:#DCA58E"/>
									<stop  offset="0.56145" style="stop-color:#83596F"/>
									<stop  offset="0.7904999" style="stop-color:#EAC9AB"/>
									<stop  offset="1" style="stop-color:#C9A794"/>
								</linearGradient>
								<polygon fill="url(#SVGID_11_)" stroke="url(#SVGID_12_)" stroke-width="0.0984149" stroke-miterlimit="10" points="
									1.9315861,11.3781519 2.2852893,11.3781519 5.0079379,6.7837505 2.2852893,2.1893492 1.9315861,2.1893492 
									4.6542344,6.7837505 								"/>
							</g>
							<g id="f63ec52a-c676-4433-b0e3-f1f845bd1fca">
								<polygon opacity="0.41" fill="#0C080F" enable-background="new    " points="-0.0002,12.0988445 0.7707824,12.0988445 
									3.7944818,7.0825386 1.4344925,2.7298439 0.6042644,2.7298439 3.0851073,7.0825386 								"/>
								
									<linearGradient id="SVGID_13_" gradientUnits="userSpaceOnUse" x1="-355.0491028" y1="12.3873873" x2="-356.968689" y2="0.8698958" gradientTransform="matrix(1 0 0 -1 357.7731323 15.5184174)">
									<stop  offset="0" style="stop-color:#FFF0E6"/>
									<stop  offset="0.09497" style="stop-color:#DCAC8E"/>
									<stop  offset="0.29609" style="stop-color:#DCAC92"/>
									<stop  offset="0.48324" style="stop-color:#A76166"/>
									<stop  offset="1" style="stop-color:#C9A7A2"/>
								</linearGradient>
								
									<linearGradient id="SVGID_14_" gradientUnits="userSpaceOnUse" x1="-358.8517761" y1="7.4724178" x2="-354.4261169" y2="10.0275812" gradientTransform="matrix(1 0 0 -1 357.7731323 15.5184174)">
									<stop  offset="0" style="stop-color:#DCAC8E"/>
									<stop  offset="0.03631" style="stop-color:#BE9791"/>
									<stop  offset="0.39106" style="stop-color:#DCA58E"/>
									<stop  offset="0.56145" style="stop-color:#83596F"/>
									<stop  offset="0.7904999" style="stop-color:#EAC9AB"/>
									<stop  offset="1" style="stop-color:#C9A794"/>
								</linearGradient>
								<polygon fill="url(#SVGID_13_)" stroke="url(#SVGID_14_)" stroke-width="0.0984149" stroke-miterlimit="10" points="
									0.9599358,11.3781519 1.313639,11.3781519 4.0362873,6.7837505 1.313639,2.1893492 0.9599358,2.1893492 
									3.6825843,6.7837505 								"/>
							</g>
							<g id="a29313bf-d8a7-4c70-bfed-3e2a12c6c155">
								<path opacity="0.31" fill="#160B0E" enable-background="new    " d="M25.0553436,7.2111382l-1.1171303,0.5841403
									l-0.5841351,1.1171246V8.8305635c0,0.0306892,0,0.0531921-0.0010242,0.0664921c0-0.016366,0-0.0470543-0.0010242-0.0910425
									c0,0.0439911,0,0.0736532,0.0010242,0.0910425c0.0010242,0.0010242,0.0010242,0.0010242,0,0.0020475v0.0112514
									L22.768919,7.7952785l-1.116106-0.5841408l1.116106-0.5841408l0.5851612-1.1171241l0.5841331,1.1171241
									L25.0553436,7.2111382z"/>
								
									<linearGradient id="SVGID_15_" gradientUnits="userSpaceOnUse" x1="23.0078773" y1="8.7346668" x2="23.0078773" y2="10.3714046" gradientTransform="matrix(1 0 0 -1 0 15.5184174)">
									<stop  offset="0" style="stop-color:#BA6744"/>
									<stop  offset="0.28858" style="stop-color:#D88B62"/>
									<stop  offset="0.56233" style="stop-color:#EDA578"/>
									<stop  offset="0.80752" style="stop-color:#FAB485"/>
									<stop  offset="1" style="stop-color:#FFBA8A"/>
								</linearGradient>
								<polygon fill="url(#SVGID_15_)" points="23.2889996,5.1470122 23.2889996,6.7837505 22.7267532,6.2215061 								"/>
								
									<linearGradient id="SVGID_16_" gradientUnits="userSpaceOnUse" x1="23.5701694" y1="8.7346668" x2="23.5701694" y2="10.3714046" gradientTransform="matrix(1 0 0 -1 0 15.5184174)">
									<stop  offset="0" style="stop-color:#FFBA8A"/>
									<stop  offset="0.19248" style="stop-color:#FAB485"/>
									<stop  offset="0.43767" style="stop-color:#EDA578"/>
									<stop  offset="0.71142" style="stop-color:#D88B62"/>
									<stop  offset="1" style="stop-color:#BA6744"/>
								</linearGradient>
								<polygon fill="url(#SVGID_16_)" points="23.8513412,6.2215061 23.2889996,6.7837505 23.2889996,5.1470122 								"/>
								<path fill="#FFBA8A" d="M23.2993946,6.7837505h-0.0207367C23.2923946,4.6146436,23.2854805,4.588131,23.2993946,6.7837505z"
									/>
								
									<linearGradient id="SVGID_17_" gradientUnits="userSpaceOnUse" x1="22.988903" y1="8.5534754" x2="23.3989658" y2="6.3938141" gradientTransform="matrix(1 0 0 -1 0 15.5184174)">
									<stop  offset="0" style="stop-color:#BA6744"/>
									<stop  offset="0.02497" style="stop-color:#BF6C49"/>
									<stop  offset="0.1741" style="stop-color:#D68960"/>
									<stop  offset="0.33473" style="stop-color:#E89E73"/>
									<stop  offset="0.5104" style="stop-color:#F5AE80"/>
									<stop  offset="0.71234" style="stop-color:#FDB788"/>
									<stop  offset="1" style="stop-color:#FFBA8A"/>
								</linearGradient>
								<polygon fill="url(#SVGID_17_)" points="23.2889996,8.4204884 23.2889996,6.7837505 22.7267532,7.3459949 								"/>
								
									<linearGradient id="SVGID_18_" gradientUnits="userSpaceOnUse" x1="23.5701694" y1="-9544.0966797" x2="23.5701694" y2="-9542.4599609" gradientTransform="matrix(1 0 0 1 0 9550.8808594)">
									<stop  offset="0" style="stop-color:#FFBA8A"/>
									<stop  offset="0.19248" style="stop-color:#FAB485"/>
									<stop  offset="0.43767" style="stop-color:#EDA578"/>
									<stop  offset="0.71142" style="stop-color:#D88B62"/>
									<stop  offset="1" style="stop-color:#BA6744"/>
								</linearGradient>
								<polygon fill="url(#SVGID_18_)" points="23.8513412,7.3459949 23.2889996,6.7837505 23.2889996,8.4204884 								"/>
								<path fill="#FFBA8A" d="M23.2993946,6.7837505h-0.0207367C23.2923946,8.9528599,23.2854805,8.9793711,23.2993946,6.7837505z
									"/>
								
									<linearGradient id="SVGID_19_" gradientUnits="userSpaceOnUse" x1="2035.6918945" y1="-11556.7822266" x2="2035.6918945" y2="-11555.1445312" gradientTransform="matrix(6.123234e-17 1 1 -6.123234e-17 11580.0712891 -2029.1893311)">
									<stop  offset="0" style="stop-color:#FFDFB0"/>
									<stop  offset="0.37684" style="stop-color:#F7E7CE"/>
									<stop  offset="0.76261" style="stop-color:#F1EDE6"/>
									<stop  offset="1" style="stop-color:#EFEFEF"/>
								</linearGradient>
								<polygon fill="url(#SVGID_19_)" points="24.9258347,6.7836523 23.2890968,6.7836523 23.8513412,6.2215061 								"/>
								
									<linearGradient id="SVGID_20_" gradientUnits="userSpaceOnUse" x1="2036.2541504" y1="-11556.7822266" x2="2036.2541504" y2="-11555.1445312" gradientTransform="matrix(6.123234e-17 1 1 -6.123234e-17 11580.0712891 -2029.1893311)">
									<stop  offset="0" style="stop-color:#BA6744"/>
									<stop  offset="0.28858" style="stop-color:#D88B62"/>
									<stop  offset="0.56233" style="stop-color:#EDA578"/>
									<stop  offset="0.80752" style="stop-color:#FAB485"/>
									<stop  offset="1" style="stop-color:#FFBA8A"/>
								</linearGradient>
								<polygon fill="url(#SVGID_20_)" points="23.8513412,7.3459949 23.2890968,6.7836523 24.9258347,6.7836523 								"/>
								<path fill="#FFBA8A" d="M23.2890911,6.7940526V6.7733188C25.4003887,6.7866893,25.5425415,6.7797756,23.2890911,6.7940526z"
									/>
								
									<linearGradient id="SVGID_21_" gradientUnits="userSpaceOnUse" x1="2035.6918945" y1="2021.4187012" x2="2035.6918945" y2="2023.0554199" gradientTransform="matrix(0 1 -1 0 2044.7077637 -2029.1893311)">
									<stop  offset="0" style="stop-color:#FFDFB0"/>
									<stop  offset="0.37684" style="stop-color:#F7E7CE"/>
									<stop  offset="0.76261" style="stop-color:#F1EDE6"/>
									<stop  offset="1" style="stop-color:#EFEFEF"/>
								</linearGradient>
								<polygon fill="url(#SVGID_21_)" points="21.652359,6.7836523 23.2890968,6.7836523 22.7267532,6.2215061 								"/>
								
									<linearGradient id="SVGID_22_" gradientUnits="userSpaceOnUse" x1="2036.2541504" y1="2021.4187012" x2="2036.2541504" y2="2023.0554199" gradientTransform="matrix(0 1 -1 0 2044.7077637 -2029.1893311)">
									<stop  offset="0" style="stop-color:#FFBA8A"/>
									<stop  offset="0.19248" style="stop-color:#FAB485"/>
									<stop  offset="0.43767" style="stop-color:#EDA578"/>
									<stop  offset="0.71142" style="stop-color:#D88B62"/>
									<stop  offset="1" style="stop-color:#BA6744"/>
								</linearGradient>
								<polygon fill="url(#SVGID_22_)" points="22.7267532,7.3459949 23.2890968,6.7836523 21.652359,6.7836523 								"/>
								<path fill="#FFBA8A" d="M23.2890911,6.7940526V6.7733188C21.1777935,6.7866893,21.0356407,6.7797756,23.2890911,6.7940526z"
									/>
								<path fill="#FFBA8A" d="M23.2993946,6.7837505h-0.0207367C23.2923946,4.6146436,23.2854805,4.588131,23.2993946,6.7837505z"
									/>
								<path fill="#FFBA8A" d="M23.2890224,6.7733827v0.0207362C21.1777363,6.7807441,21.0355606,6.7876568,23.2890224,6.7733827z"
									/>
								<path fill="#FFBA8A" d="M23.278656,6.7837505h0.0207367C23.2856522,8.9528599,23.2925625,8.9793711,23.278656,6.7837505z"/>
								<path fill="#FFBA8A" d="M23.2890224,6.7941189V6.7733827C25.4581165,6.7871222,25.4846687,6.7802081,23.2890224,6.7941189z"
									/>
							</g>
							<g id="afe00138-161e-41ad-a641-80379ef04605">
								<path opacity="0.31" fill="#160B0E" enable-background="new    " d="M10.3986149,7.2111382L9.2814827,7.7952785
									L8.6973495,8.9124031V8.8305635c0,0.0306892,0,0.0531921-0.0010242,0.0664921c0-0.016366,0-0.0470543-0.0010233-0.0910425
									c0,0.0439911,0,0.0736532,0.0010233,0.0910425c0.0010242,0.0010242,0.0010242,0.0010242,0,0.0020475v0.0112514
									L8.1121912,7.7952785L6.9960847,7.2111382l1.1161065-0.5841403l0.5851583-1.1171246l0.5841331,1.1171246
									L10.3986149,7.2111382z"/>
								
									<linearGradient id="SVGID_23_" gradientUnits="userSpaceOnUse" x1="8.351141" y1="8.7346668" x2="8.351141" y2="10.3714046" gradientTransform="matrix(1 0 0 -1 0 15.5184174)">
									<stop  offset="0" style="stop-color:#BA6744"/>
									<stop  offset="0.28858" style="stop-color:#D88B62"/>
									<stop  offset="0.56233" style="stop-color:#EDA578"/>
									<stop  offset="0.80752" style="stop-color:#FAB485"/>
									<stop  offset="1" style="stop-color:#FFBA8A"/>
								</linearGradient>
								<polygon fill="url(#SVGID_23_)" points="8.6322632,5.1470122 8.6322632,6.7837505 8.0700188,6.2215061 								"/>
								
									<linearGradient id="SVGID_24_" gradientUnits="userSpaceOnUse" x1="8.913435" y1="8.7346668" x2="8.913435" y2="10.3714046" gradientTransform="matrix(1 0 0 -1 0 15.5184174)">
									<stop  offset="0" style="stop-color:#FFBA8A"/>
									<stop  offset="0.19248" style="stop-color:#FAB485"/>
									<stop  offset="0.43767" style="stop-color:#EDA578"/>
									<stop  offset="0.71142" style="stop-color:#D88B62"/>
									<stop  offset="1" style="stop-color:#BA6744"/>
								</linearGradient>
								<polygon fill="url(#SVGID_24_)" points="9.1946068,6.2215061 8.6322632,6.7837505 8.6322632,5.1470122 								"/>
								<path fill="#FFBA8A" d="M8.642664,6.7837505H8.6219301C8.6356659,4.6146436,8.6287527,4.588131,8.642664,6.7837505z"/>
								
									<linearGradient id="SVGID_25_" gradientUnits="userSpaceOnUse" x1="8.3321676" y1="8.5534735" x2="8.7422295" y2="6.3938127" gradientTransform="matrix(1 0 0 -1 0 15.5184174)">
									<stop  offset="0" style="stop-color:#BA6744"/>
									<stop  offset="0.02497" style="stop-color:#BF6C49"/>
									<stop  offset="0.1741" style="stop-color:#D68960"/>
									<stop  offset="0.33473" style="stop-color:#E89E73"/>
									<stop  offset="0.5104" style="stop-color:#F5AE80"/>
									<stop  offset="0.71234" style="stop-color:#FDB788"/>
									<stop  offset="1" style="stop-color:#FFBA8A"/>
								</linearGradient>
								<polygon fill="url(#SVGID_25_)" points="8.6322632,8.4204884 8.6322632,6.7837505 8.0700188,7.3459949 								"/>
								
									<linearGradient id="SVGID_26_" gradientUnits="userSpaceOnUse" x1="8.913435" y1="-9544.0966797" x2="8.913435" y2="-9542.4599609" gradientTransform="matrix(1 0 0 1 0 9550.8808594)">
									<stop  offset="0" style="stop-color:#FFBA8A"/>
									<stop  offset="0.19248" style="stop-color:#FAB485"/>
									<stop  offset="0.43767" style="stop-color:#EDA578"/>
									<stop  offset="0.71142" style="stop-color:#D88B62"/>
									<stop  offset="1" style="stop-color:#BA6744"/>
								</linearGradient>
								<polygon fill="url(#SVGID_26_)" points="9.1946068,7.3459949 8.6322632,6.7837505 8.6322632,8.4204884 								"/>
								<path fill="#FFBA8A" d="M8.642664,6.7837505H8.6219301C8.6356659,8.9528599,8.6287527,8.9793711,8.642664,6.7837505z"/>
								
									<linearGradient id="SVGID_27_" gradientUnits="userSpaceOnUse" x1="2035.6918945" y1="-11571.4384766" x2="2035.6918945" y2="-11569.8017578" gradientTransform="matrix(6.123234e-17 1 1 -6.123234e-17 11580.0712891 -2029.1893311)">
									<stop  offset="0" style="stop-color:#FFDFB0"/>
									<stop  offset="0.37684" style="stop-color:#F7E7CE"/>
									<stop  offset="0.76261" style="stop-color:#F1EDE6"/>
									<stop  offset="1" style="stop-color:#EFEFEF"/>
								</linearGradient>
								<polygon fill="url(#SVGID_27_)" points="10.2691002,6.7836523 8.6323624,6.7836523 9.1946068,6.2215061 								"/>
								
									<linearGradient id="SVGID_28_" gradientUnits="userSpaceOnUse" x1="2036.2541504" y1="-11571.4384766" x2="2036.2541504" y2="-11569.8017578" gradientTransform="matrix(6.123234e-17 1 1 -6.123234e-17 11580.0712891 -2029.1893311)">
									<stop  offset="0" style="stop-color:#BA6744"/>
									<stop  offset="0.28858" style="stop-color:#D88B62"/>
									<stop  offset="0.56233" style="stop-color:#EDA578"/>
									<stop  offset="0.80752" style="stop-color:#FAB485"/>
									<stop  offset="1" style="stop-color:#FFBA8A"/>
								</linearGradient>
								<polygon fill="url(#SVGID_28_)" points="9.1946068,7.3459949 8.6323624,6.7836523 10.2691002,6.7836523 								"/>
								<path fill="#FFBA8A" d="M8.6323624,6.7940526V6.7733188C10.7436571,6.7866893,10.8858118,6.7797756,8.6323624,6.7940526z"/>
								
									<linearGradient id="SVGID_29_" gradientUnits="userSpaceOnUse" x1="2035.6918945" y1="2036.0754395" x2="2035.6918945" y2="2037.7121582" gradientTransform="matrix(0 1 -1 0 2044.7077637 -2029.1893311)">
									<stop  offset="0" style="stop-color:#FFDFB0"/>
									<stop  offset="0.37684" style="stop-color:#F7E7CE"/>
									<stop  offset="0.76261" style="stop-color:#F1EDE6"/>
									<stop  offset="1" style="stop-color:#EFEFEF"/>
								</linearGradient>
								<polygon fill="url(#SVGID_29_)" points="6.9956236,6.7836523 8.6323624,6.7836523 8.0700188,6.2215061 								"/>
								
									<linearGradient id="SVGID_30_" gradientUnits="userSpaceOnUse" x1="2036.2541504" y1="2036.0754395" x2="2036.2541504" y2="2037.7121582" gradientTransform="matrix(0 1 -1 0 2044.7077637 -2029.1893311)">
									<stop  offset="0" style="stop-color:#FFBA8A"/>
									<stop  offset="0.19248" style="stop-color:#FAB485"/>
									<stop  offset="0.43767" style="stop-color:#EDA578"/>
									<stop  offset="0.71142" style="stop-color:#D88B62"/>
									<stop  offset="1" style="stop-color:#BA6744"/>
								</linearGradient>
								<polygon fill="url(#SVGID_30_)" points="8.0700188,7.3459949 8.6323624,6.7836523 6.9956236,6.7836523 								"/>
								<path fill="#FFBA8A" d="M8.6323624,6.7940526V6.7733188C6.5210671,6.7866893,6.3789115,6.7797756,8.6323624,6.7940526z"/>
								<path fill="#FFBA8A" d="M8.642664,6.7837505H8.6219301C8.6356659,4.6146436,8.6287527,4.588131,8.642664,6.7837505z"/>
								<path fill="#FFBA8A" d="M8.6322937,6.7733827v0.0207362C6.5210075,6.7807441,6.3788328,6.7876568,8.6322937,6.7733827z"/>
								<path fill="#FFBA8A" d="M8.6219301,6.7837505h0.0207367C8.6289177,8.9528599,8.6358347,8.9793711,8.6219301,6.7837505z"/>
								<path fill="#FFBA8A" d="M8.6322937,6.7941189V6.7733827C10.8013868,6.7871222,10.827939,6.7802081,8.6322937,6.7941189z"/>
							</g>
						</g>
						<g id="fbb7a61f-5558-4b8b-a80f-558de557e5b6">
							
								<linearGradient id="SVGID_31_" gradientUnits="userSpaceOnUse" x1="16.0130291" y1="12.045929" x2="16.0130291" y2="2.8761187" gradientTransform="matrix(1 0 0 -1 0 15.5184174)">
								<stop  offset="0" style="stop-color:#0A081C"/>
								<stop  offset="0.8392299" style="stop-color:#0A081C;stop-opacity:0.4"/>
								<stop  offset="1" style="stop-color:#0A081C;stop-opacity:0.2"/>
							</linearGradient>
							<path opacity="0.34" fill="url(#SVGID_31_)" enable-background="new    " d="M12.5730333,4.0905361
								c-1.3571959,0.0045066-1.4740295,1.6181169-1.4393272,2.4931774
								c0.0347013,0.8750601,0.1627073,1.8492441,0.1801624,2.5480852c0.0174561,0.6988411,0.7055712,1.0112534,1.4462976,1.3885107
								c0.5959587,0.3035269,0.1885252,0.9777517,0.2926302,1.2540894c0.2082081,0,0.505928-0.0025587,0.7996321-0.0025587
								c1.1517916,0,5.2070465,0.0012798,5.2070465,0.0012798s0.3269291,0.0659552,0.8458443-0.7356129
								c0.5047169-0.7796373,0.4301796-2.2722626,0.4301796-2.8791552c0-0.5054345-0.0492058-1.3730416,0.0745373-2.2635431
								c0.1248264-0.8982921,0.8746586-1.0466876,0.226902-2.2441373s-2.6809444-1.1735978-2.6809444-1.1735978
								s-1.8009796-1.1785408-3.6114912-0.8255521C13.464736,1.8230489,13.0862675,4.0888319,12.5730333,4.0905361z"/>
							<g opacity="0.77">
								
									<radialGradient id="SVGID_32_" cx="14.3445024" cy="9.0283518" r="3.3953142" gradientTransform="matrix(1 0 0 -1 0 15.5184174)" gradientUnits="userSpaceOnUse">
									<stop  offset="0" style="stop-color:#0D1142"/>
									<stop  offset="1" style="stop-color:#0D1142;stop-opacity:0"/>
								</radialGradient>
								<circle fill="url(#SVGID_32_)" cx="14.3445024" cy="6.4900661" r="3.3953142"/>
							</g>
							<g opacity="0.77">
								
									<radialGradient id="SVGID_33_" cx="14.5030584" cy="6.8054757" r="3.3953142" gradientTransform="matrix(1 0 0 -1 0 15.5184174)" gradientUnits="userSpaceOnUse">
									<stop  offset="0" style="stop-color:#3B1142"/>
									<stop  offset="1" style="stop-color:#0D1142;stop-opacity:0"/>
								</radialGradient>
								<circle fill="url(#SVGID_33_)" cx="14.5030584" cy="8.7129421" r="3.3953142"/>
							</g>
							<g opacity="0.77">
								
									<radialGradient id="SVGID_34_" cx="17.6414013" cy="9.0552549" r="3.3953145" gradientTransform="matrix(1 0 0 -1 0 15.5184174)" gradientUnits="userSpaceOnUse">
									<stop  offset="0" style="stop-color:#3B1142"/>
									<stop  offset="1" style="stop-color:#0D1142;stop-opacity:0"/>
								</radialGradient>
								<circle fill="url(#SVGID_34_)" cx="17.6414013" cy="6.4631624" r="3.3953145"/>
							</g>
							<g opacity="0.77">
								
									<radialGradient id="SVGID_35_" cx="17.3953648" cy="6.8054757" r="3.3953142" gradientTransform="matrix(1 0 0 -1 0 15.5184174)" gradientUnits="userSpaceOnUse">
									<stop  offset="0" style="stop-color:#3B1142"/>
									<stop  offset="1" style="stop-color:#0D1142;stop-opacity:0"/>
								</radialGradient>
								<circle fill="url(#SVGID_35_)" cx="17.3953648" cy="8.7129421" r="3.3953142"/>
							</g>
							<g id="e44f9d0d-e743-403b-98c7-783ea79cd460">
								
									<linearGradient id="SVGID_36_" gradientUnits="userSpaceOnUse" x1="14.184947" y1="14.3570919" x2="18.8104477" y2="1.8583984" gradientTransform="matrix(1 0 0 -1 0 15.5184174)">
									<stop  offset="0" style="stop-color:#E5ACA9"/>
									<stop  offset="0.26213" style="stop-color:#F4D8E0"/>
									<stop  offset="0.47762" style="stop-color:#BD9396"/>
									<stop  offset="0.79829" style="stop-color:#D2A4B1"/>
									<stop  offset="1" style="stop-color:#DBABBD"/>
								</linearGradient>
								<path fill-rule="evenodd" clip-rule="evenodd" fill="url(#SVGID_36_)" d="M18.8980122,1.9814477l-0.0000248-0.0000206
									c-0.4013367-0.4854443-0.8524265-1.0310183-2.3308659-1.0310183c-1.6781263,0-2.5320444,0.7029118-2.6193371,1.4924936
									c-0.017684,0.1598535-0.0357618,0.2995837-0.0543108,0.4429998
									c-0.0730677,0.5649815-0.1535273,1.1871986-0.2465029,3.3224635
									c-0.1165581,2.6773152-0.0095882,4.8055339,0.1746407,5.4603429c0.1842299,0.654808,0.601572,0.8090906,1.0477352,0.8090906
									c0.4461641,0,0.8150654-0.1833115,0.8150654-0.7319365c0-0.1534452-0.0060778-0.310689-0.0120773-0.4658375v-0.0000257
									c-0.0154581-0.3996334-0.0303383-0.7853289,0.0605183-1.0556736
									c0.1261683-0.3752947,0.1842327-0.5105047,0.7177124-0.3952341c0.5334778,0.1152706,1.9296055,0.3466854,2.036129,0.2700033
									c0,0,0.0724659,0.1265383-0.2864037,0.2422314c-0.3588428,0.1157188-0.4011803,0.1573219-0.4299965,0.3787527
									c-0.02882,0.2214584-0.0488873,0.8524246,0.0873184,1.0834188c0.1362057,0.2309666,0.55266,0.3176317,0.8342419,0.2985849
									c0.2815838-0.0190716,0.6303921-0.0676184,0.73736-0.6838617c0.0298138-0.1718102,0.0693741-0.3661251,0.1122093-0.5764217
									v-0.0000525c0.1363239-0.6065025,0.2317028-1.221488,0.2854862-1.8407917
									c0.0585003-0.8957586,0.0969391-2.9368925,0-3.2259426c-0.4171867,0.1029491-0.842289,0.1706481-1.2708168,0.2023835
									c-0.8342705,0.0771294-1.9208565,0.0381188-2.551693-0.4143052
									c-0.6308346-0.4524245-0.6888914-1.1457958-0.6303902-1.7815313
									c0.0585012-0.6357601,0.0973549-0.9460349,0.8294754-1.3434255
									c0.7709465-0.4190607,2.8568268-0.2647843,2.8568268-0.2647843
									C19.0055313,2.1114764,18.9522171,2.0470097,18.8980122,1.9814477z M16.5140686,2.7246919
									c-0.5577679,0.2622509-0.5581875,0.854512-0.5577679,1.2142196c0.0004187,0.3597331,0.0376205,1.3112674,1.2543888,1.427537
									c1.2167416,0.1162691,1.9233971-0.0389056,2.6107979-0.4274831
									c0.6873989-0.3885522,0.7087231-1.1630881,0.3905411-1.5245454
									c-0.6506195-0.7382398-0.9805355-0.7723327-2.4159584-0.8842266
									C17.7964916,2.5301886,17.0718651,2.4624388,16.5140686,2.7246919z M13.1976919,7.032968
									c0.0010586-0.8940148,0.0473585-1.7874041,0.1387215-2.6767387l-0.89254,0.0381455
									c-0.4092798,0.0172114-0.4614277,0.3512177-0.5540667,0.9445381
									c-0.0089569,0.0573759-0.0182896,0.1171603-0.0283604,0.1793036c-0.1142521,0.7050829-0.1434603,2.4671764,0,3.4671512
									s1.4320278,0.8666763,1.4320278,0.8666763S13.1976919,8.4902916,13.1976919,7.032968z"/>
							</g>
							<g opacity="0.75">
								
									<radialGradient id="SVGID_37_" cx="14.9841995" cy="12.5850515" r="1.525431" gradientTransform="matrix(1 0 0 -1 0 15.5184174)" gradientUnits="userSpaceOnUse">
									<stop  offset="0" style="stop-color:#E6EEFF"/>
									<stop  offset="1" style="stop-color:#E6EEFF;stop-opacity:0"/>
								</radialGradient>
								<circle fill="url(#SVGID_37_)" cx="14.9841995" cy="2.9333658" r="1.525431"/>
							</g>
							<g opacity="0.37">
								
									<radialGradient id="SVGID_38_" cx="14.9841995" cy="12.5850515" r="2.4111652" gradientTransform="matrix(1 0 0 -1 0 15.5184174)" gradientUnits="userSpaceOnUse">
									<stop  offset="0" style="stop-color:#E6EEFF"/>
									<stop  offset="1" style="stop-color:#E6EEFF;stop-opacity:0"/>
								</radialGradient>
								<circle fill="url(#SVGID_38_)" cx="14.9841995" cy="2.9333658" r="2.4111652"/>
							</g>
						</g>
					</g>
				</g>
			</g>
		</g>
	</g>
</g>
</svg>
