<?xml version="1.0" encoding="utf-8"?>
<!-- Generator: Adobe Illustrator 24.3.0, SVG Export Plug-In . SVG Version: 6.00 Build 0)  -->
<svg version="1.1" id="Слой_1" xmlns="http://www.w3.org/2000/svg" xmlns:xlink="http://www.w3.org/1999/xlink" x="0px" y="0px"
	 width="32px" height="13px" viewBox="0 0 32 13" enable-background="new 0 0 32 13" xml:space="preserve">
<g>
	<g id="e4eeb7cd-de2a-410a-b88d-324d804e7f3f">
		<g id="e52f1eda-34f8-4d63-abc1-2ac087c78653">
			<g id="f8822d6e-0921-4947-9c6c-4abf2812e173">
				<g id="a8c6fc1c-0129-41b0-905e-c6f58a72bba2">
					<g id="a095af71-9e6f-4d1d-98e8-7c1d9fc01866">
						<g id="e52d7ea8-9442-4215-9cef-0ea581996abd">
							
								<linearGradient id="e69d4f7d-5b4f-449b-9453-bea9cafa5bab_1_" gradientUnits="userSpaceOnUse" x1="17.7277412" y1="13.9214392" x2="13.7917271" y2="2.5390682" gradientTransform="matrix(1 0 0 -1 0 15.5184174)">
								<stop  offset="0" style="stop-color:#0E0B16"/>
								<stop  offset="1" style="stop-color:#20213A"/>
							</linearGradient>
							
								<linearGradient id="e69d4f7d-5b4f-449b-9453-bea9cafa5bab_2_" gradientUnits="userSpaceOnUse" x1="15.9427757" y1="13.8026514" x2="15.9427757" y2="3.7178807" gradientTransform="matrix(1 0 0 -1 0 15.5184174)">
								<stop  offset="0" style="stop-color:#645C5E"/>
								<stop  offset="1" style="stop-color:#54474D"/>
							</linearGradient>
							
								<polygon id="e69d4f7d-5b4f-449b-9453-bea9cafa5bab" opacity="0.73" fill="url(#e69d4f7d-5b4f-449b-9453-bea9cafa5bab_1_)" stroke="url(#e69d4f7d-5b4f-449b-9453-bea9cafa5bab_2_)" stroke-width="0.0989955" stroke-miterlimit="10" enable-background="new    " points="
								28.8261051,11.7510386 3.1589477,11.7510386 0.1037483,6.7581019 3.1589477,1.7652637 28.8261051,1.7652637 
								31.7823086,6.7581019 							"/>
							<g id="b77cb3ec-47c1-4782-8cb7-932f91ef1ebc">
								
									<linearGradient id="SVGID_1_" gradientUnits="userSpaceOnUse" x1="15.992527" y1="13.858573" x2="15.992527" y2="3.2322359" gradientTransform="matrix(1 0 0 -1 0 15.5184174)">
									<stop  offset="0" style="stop-color:#231324"/>
									<stop  offset="0.49721" style="stop-color:#2C1324"/>
									<stop  offset="0.85754" style="stop-color:#452231"/>
								</linearGradient>
								<polygon fill="url(#SVGID_1_)" points="28.4648724,11.1634016 3.5201821,11.1634016 0.8186939,6.7581019 
									3.5201821,2.352802 28.4648724,2.352802 31.1663609,6.7581019 								"/>
								
									<linearGradient id="SVGID_2_" gradientUnits="userSpaceOnUse" x1="15.9925404" y1="13.2646112" x2="15.9925404" y2="4.2560086" gradientTransform="matrix(1 0 0 -1 0 15.5184174)">
									<stop  offset="0" style="stop-color:#C0957E"/>
									<stop  offset="0.59777" style="stop-color:#776056"/>
									<stop  offset="1" style="stop-color:#705947"/>
								</linearGradient>
								<path fill="url(#SVGID_2_)" d="M28.4648838,2.352802l2.7014465,4.4053001l-2.7014465,4.4052997H3.5201931
									L0.8187473,6.7581019L3.5201931,2.352802H28.46488 M28.5202751,2.2538064H3.4647493L3.4357951,2.3010273
									L0.7343497,6.7063341L0.7026404,6.7581086l0.0317093,0.0517745l2.7014458,4.4052992l0.0289543,0.047226h25.0555286
									l0.0290051-0.047226l2.7014465-4.4052997l0.0317097-0.0517745l-0.0317097-0.0517745L28.549284,2.3010337
									L28.5202789,2.253813L28.5202751,2.2538064z"/>
							</g>
							<g id="ac718603-45e1-4c2b-9470-86a8f8af2998">
								<polygon opacity="0.4" fill="#0A0916" enable-background="new    " points="3.9755614,6.8629379 5.7464919,10.5968504 
									26.2165852,10.5968504 28.3284569,6.8803616 26.436552,3.6177666 5.9334946,3.6177666 								"/>
								
									<linearGradient id="SVGID_3_" gradientUnits="userSpaceOnUse" x1="15.992527" y1="11.9006615" x2="15.992527" y2="4.5739031" gradientTransform="matrix(1 0 0 -1 0 15.5184174)">
									<stop  offset="0" style="stop-color:#652533"/>
									<stop  offset="1" style="stop-color:#FF9292"/>
								</linearGradient>
								<polygon fill="url(#SVGID_3_)" points="25.9758263,10.0744514 6.0092263,10.0744514 3.9755614,6.7581019 
									6.0092263,3.4417524 25.9758263,3.4417524 28.009491,6.7581019 								"/>
								
									<linearGradient id="SVGID_4_" gradientUnits="userSpaceOnUse" x1="3.8594723" y1="8.760313" x2="28.1256027" y2="8.760313" gradientTransform="matrix(1 0 0 -1 0 15.5184174)">
									<stop  offset="0" style="stop-color:#241B3B"/>
									<stop  offset="0.25419" style="stop-color:#9C7393"/>
									<stop  offset="1" style="stop-color:#59415E"/>
								</linearGradient>
								<path fill="url(#SVGID_4_)" d="M25.9757881,3.4417524l2.0337105,3.3163495l-2.0337105,3.3163495H6.009244
									L3.9755795,6.7581019L6.009244,3.4417524H25.9757881 M26.0312252,3.342757H5.9538002l-0.028954,0.0472207
									L3.8911815,6.706327L3.8594723,6.7581015L3.8911815,6.809876l2.0336647,3.3163495l0.028954,0.047226H26.031229
									l0.0289536-0.047226l2.0337105-3.3163495l0.0317097-0.0517745L28.0938931,6.706327l-2.0337105-3.3163493
									L26.031229,3.3427567L26.0312252,3.342757z"/>
								
									<linearGradient id="SVGID_5_" gradientUnits="userSpaceOnUse" x1="15.45082" y1="3.8617353" x2="15.828393" y2="9.1897125" gradientTransform="matrix(1 0 0 -1 0 15.5184174)">
									<stop  offset="0.00559" style="stop-color:#F1CAD1;stop-opacity:0"/>
									<stop  offset="1" style="stop-color:#FFBFB3;stop-opacity:0.3"/>
								</linearGradient>
								<path opacity="0.91" fill="url(#SVGID_5_)" enable-background="new    " d="M27.3015022,7.9126325
									c-0.6929684-0.4078617-3.1547222-1.5585051-3.8494186-1.3140922
									c-0.8439999,0.2969408-2.130928,0.6143661-3.6571636-0.7059283
									c-2.6470184-2.2898421-4.9817381,0.6214938-5.7822981,0.8655014
									c-1.8512154,0.5642738-3.31635,2.4253898-5.2467623,1.1879458C7.3828421,7.0595088,5.1839528,7.5292883,4.1880527,7.1045976
									l1.8207855,2.9698653h19.9673939L27.3015022,7.9126325z"/>
								
									<linearGradient id="SVGID_6_" gradientUnits="userSpaceOnUse" x1="15.9923697" y1="5.5242891" x2="15.9941368" y2="5.7355247" gradientTransform="matrix(1 0 0 -1 0 15.5184174)">
									<stop  offset="0" style="stop-color:#FFDBE8"/>
									<stop  offset="1" style="stop-color:#EFC8D6;stop-opacity:0"/>
								</linearGradient>
								<polygon opacity="0.81" fill="url(#SVGID_6_)" enable-background="new    " points="25.4465961,9.7774649 
									7.0334334,9.7774649 6.1424737,9.9754562 25.8425789,9.9754562 								"/>
							</g>
							<g id="a7661217-b348-4b2a-9aa1-72a4998ca031">
								<polygon opacity="0.41" fill="#0C080F" enable-background="new    " points="25.6965618,12.1228666 24.92103,12.1228666 
									21.8794918,7.0768676 24.2534046,2.6984944 25.0885315,2.6984944 22.5930519,7.0768676 								"/>
								
									<linearGradient id="SVGID_7_" gradientUnits="userSpaceOnUse" x1="10472.0888672" y1="12.4163399" x2="10470.1582031" y2="0.8309019" gradientTransform="matrix(-1 0 0 -1 10495.0449219 15.5184174)">
									<stop  offset="0" style="stop-color:#FFF0E6"/>
									<stop  offset="0.09497" style="stop-color:#DCAC8E"/>
									<stop  offset="0.29609" style="stop-color:#DCAC92"/>
									<stop  offset="0.48324" style="stop-color:#A76166"/>
									<stop  offset="1" style="stop-color:#C9A7A2"/>
								</linearGradient>
								
									<linearGradient id="SVGID_8_" gradientUnits="userSpaceOnUse" x1="10468.2636719" y1="7.4723592" x2="10472.7158203" y2="10.0425558" gradientTransform="matrix(-1 0 0 -1 10495.0449219 15.5184174)">
									<stop  offset="0" style="stop-color:#DCAC8E"/>
									<stop  offset="0.03631" style="stop-color:#BE9791"/>
									<stop  offset="0.39106" style="stop-color:#DCA58E"/>
									<stop  offset="0.56145" style="stop-color:#83596F"/>
									<stop  offset="0.7904999" style="stop-color:#EAC9AB"/>
									<stop  offset="1" style="stop-color:#C9A794"/>
								</linearGradient>
								<polygon fill="url(#SVGID_7_)" stroke="url(#SVGID_8_)" stroke-width="0.0989955" stroke-miterlimit="10" points="
									24.7307606,11.3979225 24.3749695,11.3979225 21.6363602,6.7763171 24.3749695,2.1548109 24.7307606,2.1548109 
									21.9920502,6.7763171 								"/>
							</g>
							<g id="f35b3131-835a-4f01-958c-17a168f6b13f">
								<polygon opacity="0.41" fill="#0C080F" enable-background="new    " points="26.6739445,12.1228666 25.8984108,12.1228666 
									22.8568745,7.0768676 25.2307873,2.6984944 26.0659142,2.6984944 23.5704346,7.0768676 								"/>
								
									<linearGradient id="SVGID_9_" gradientUnits="userSpaceOnUse" x1="10471.1113281" y1="12.4163389" x2="10469.1806641" y2="0.8309009" gradientTransform="matrix(-1 0 0 -1 10495.0449219 15.5184174)">
									<stop  offset="0" style="stop-color:#FFF0E6"/>
									<stop  offset="0.09497" style="stop-color:#DCAC8E"/>
									<stop  offset="0.29609" style="stop-color:#DCAC92"/>
									<stop  offset="0.48324" style="stop-color:#A76166"/>
									<stop  offset="1" style="stop-color:#C9A7A2"/>
								</linearGradient>
								
									<linearGradient id="SVGID_10_" gradientUnits="userSpaceOnUse" x1="10467.2861328" y1="7.4723592" x2="10471.7382812" y2="10.0425558" gradientTransform="matrix(-1 0 0 -1 10495.0449219 15.5184174)">
									<stop  offset="0" style="stop-color:#DCAC8E"/>
									<stop  offset="0.03631" style="stop-color:#BE9791"/>
									<stop  offset="0.39106" style="stop-color:#DCA58E"/>
									<stop  offset="0.56145" style="stop-color:#83596F"/>
									<stop  offset="0.7904999" style="stop-color:#EAC9AB"/>
									<stop  offset="1" style="stop-color:#C9A794"/>
								</linearGradient>
								<polygon fill="url(#SVGID_9_)" stroke="url(#SVGID_10_)" stroke-width="0.0989955" stroke-miterlimit="10" points="
									25.7081432,11.3979225 25.352354,11.3979225 22.6137409,6.7763171 25.352354,2.1548109 25.7081432,2.1548109 
									22.9694328,6.7763171 								"/>
							</g>
							<g id="a33761ed-8105-43b1-9497-d9435f0e03f5">
								<polygon opacity="0.41" fill="#0C080F" enable-background="new    " points="6.4814348,12.1228666 7.2569656,12.1228666 
									10.2985029,7.0768676 7.9245911,2.6984944 7.0894651,2.6984944 9.5849438,7.0768676 								"/>
								
									<linearGradient id="SVGID_11_" gradientUnits="userSpaceOnUse" x1="-348.5513916" y1="12.4163227" x2="-350.4822998" y2="0.8308851" gradientTransform="matrix(1 0 0 -1 357.7731323 15.5184174)">
									<stop  offset="0" style="stop-color:#FFF0E6"/>
									<stop  offset="0.09497" style="stop-color:#DCAC8E"/>
									<stop  offset="0.29609" style="stop-color:#DCAC92"/>
									<stop  offset="0.48324" style="stop-color:#A76166"/>
									<stop  offset="1" style="stop-color:#C9A7A2"/>
								</linearGradient>
								
									<linearGradient id="SVGID_12_" gradientUnits="userSpaceOnUse" x1="-352.3765259" y1="7.472342" x2="-347.9247131" y2="10.0426054" gradientTransform="matrix(1 0 0 -1 357.7731323 15.5184174)">
									<stop  offset="0" style="stop-color:#DCAC8E"/>
									<stop  offset="0.03631" style="stop-color:#BE9791"/>
									<stop  offset="0.39106" style="stop-color:#DCA58E"/>
									<stop  offset="0.56145" style="stop-color:#83596F"/>
									<stop  offset="0.7904999" style="stop-color:#EAC9AB"/>
									<stop  offset="1" style="stop-color:#C9A794"/>
								</linearGradient>
								<polygon fill="url(#SVGID_11_)" stroke="url(#SVGID_12_)" stroke-width="0.0989955" stroke-miterlimit="10" points="
									7.4472346,11.3979225 7.8030248,11.3979225 10.5417356,6.7763171 7.8030248,2.1548109 7.4472346,2.1548109 
									10.1859455,6.7763171 								"/>
							</g>
							<g id="a03fbc31-1ac4-4a66-967c-22d523dafa0d">
								<polygon opacity="0.41" fill="#0C080F" enable-background="new    " points="5.5040522,12.1228666 6.279583,12.1228666 
									9.3211203,7.0768676 6.9472089,2.6984944 6.1120825,2.6984944 8.6075611,7.0768676 								"/>
								
									<linearGradient id="SVGID_13_" gradientUnits="userSpaceOnUse" x1="-349.5287781" y1="12.4163227" x2="-351.4596863" y2="0.8308854" gradientTransform="matrix(1 0 0 -1 357.7731323 15.5184174)">
									<stop  offset="0" style="stop-color:#FFF0E6"/>
									<stop  offset="0.09497" style="stop-color:#DCAC8E"/>
									<stop  offset="0.29609" style="stop-color:#DCAC92"/>
									<stop  offset="0.48324" style="stop-color:#A76166"/>
									<stop  offset="1" style="stop-color:#C9A7A2"/>
								</linearGradient>
								
									<linearGradient id="SVGID_14_" gradientUnits="userSpaceOnUse" x1="-353.3539124" y1="7.4723434" x2="-348.9020996" y2="10.0426054" gradientTransform="matrix(1 0 0 -1 357.7731323 15.5184174)">
									<stop  offset="0" style="stop-color:#DCAC8E"/>
									<stop  offset="0.03631" style="stop-color:#BE9791"/>
									<stop  offset="0.39106" style="stop-color:#DCA58E"/>
									<stop  offset="0.56145" style="stop-color:#83596F"/>
									<stop  offset="0.7904999" style="stop-color:#EAC9AB"/>
									<stop  offset="1" style="stop-color:#C9A794"/>
								</linearGradient>
								<polygon fill="url(#SVGID_13_)" stroke="url(#SVGID_14_)" stroke-width="0.0989955" stroke-miterlimit="10" points="
									6.469852,11.3979225 6.8256421,11.3979225 9.564353,6.7763171 6.8256421,2.1548109 6.469852,2.1548109 9.2085629,6.7763171 
																	"/>
							</g>
							<g id="edd9b36d-e8f1-486d-a4b1-5f6703e2d450">
								<polygon opacity="0.41" fill="#0C080F" enable-background="new    " points="26.1547127,10.34659 28.3054867,10.34659 
									30.3482609,6.9865832 28.4323006,3.7532914 26.1547127,3.7532914 28.070673,6.9865832 								"/>
								
									<linearGradient id="SVGID_15_" gradientUnits="userSpaceOnUse" x1="-287.5335693" y1="11.4708538" x2="-288.9283142" y2="3.1024377" gradientTransform="matrix(1 0 0 -1 316.3389587 15.5184174)">
									<stop  offset="0" style="stop-color:#FFF0E6"/>
									<stop  offset="0.09497" style="stop-color:#DCAC8E"/>
									<stop  offset="0.29609" style="stop-color:#DCAC92"/>
									<stop  offset="0.48324" style="stop-color:#A76166"/>
									<stop  offset="1" style="stop-color:#C9A7A2"/>
								</linearGradient>
								
									<linearGradient id="SVGID_16_" gradientUnits="userSpaceOnUse" x1="-290.7278137" y1="7.6392307" x2="-286.6235046" y2="10.0088644" gradientTransform="matrix(1 0 0 -1 316.3389587 15.5184174)">
									<stop  offset="0" style="stop-color:#DCAC8E"/>
									<stop  offset="0.03631" style="stop-color:#BE9791"/>
									<stop  offset="0.39106" style="stop-color:#DCA58E"/>
									<stop  offset="0.56145" style="stop-color:#83596F"/>
									<stop  offset="0.7904999" style="stop-color:#EAC9AB"/>
									<stop  offset="1" style="stop-color:#C9A794"/>
								</linearGradient>
								<polygon fill="url(#SVGID_15_)" stroke="url(#SVGID_16_)" stroke-width="0.0989955" stroke-miterlimit="10" points="
									26.915493,9.9384317 28.4323006,9.9384317 30.3482609,6.7052383 28.4323006,3.4719462 26.915493,3.4719462 
									28.8314514,6.7052383 								"/>
							</g>
							<g id="b051089b-6fe0-4e64-924f-1df127c7c603">
								<polygon opacity="0.41" fill="#0C080F" enable-background="new    " points="5.8454876,10.34659 3.6947112,10.34659 
									1.651939,6.9865832 3.5678978,3.7532914 5.8454876,3.7532914 3.9295285,6.9865832 								"/>
								
									<linearGradient id="SVGID_17_" gradientUnits="userSpaceOnUse" x1="10085.0820312" y1="11.4708538" x2="10083.6875" y2="3.1024375" gradientTransform="matrix(-1 0 0 -1 10088.2763672 15.5184174)">
									<stop  offset="0" style="stop-color:#FFF0E6"/>
									<stop  offset="0.09497" style="stop-color:#DCAC8E"/>
									<stop  offset="0.29609" style="stop-color:#DCAC92"/>
									<stop  offset="0.48324" style="stop-color:#A76166"/>
									<stop  offset="1" style="stop-color:#C9A7A2"/>
								</linearGradient>
								
									<linearGradient id="SVGID_18_" gradientUnits="userSpaceOnUse" x1="10081.8876953" y1="7.6392131" x2="10085.9921875" y2="10.0088711" gradientTransform="matrix(-1 0 0 -1 10088.2763672 15.5184174)">
									<stop  offset="0" style="stop-color:#DCAC8E"/>
									<stop  offset="0.03631" style="stop-color:#BE9791"/>
									<stop  offset="0.39106" style="stop-color:#DCA58E"/>
									<stop  offset="0.56145" style="stop-color:#83596F"/>
									<stop  offset="0.7904999" style="stop-color:#EAC9AB"/>
									<stop  offset="1" style="stop-color:#C9A794"/>
								</linearGradient>
								<polygon fill="url(#SVGID_17_)" stroke="url(#SVGID_18_)" stroke-width="0.0989955" stroke-miterlimit="10" points="
									5.0847073,9.9384317 3.5678978,9.9384317 1.651939,6.7052383 3.5678978,3.4719462 5.0847073,3.4719462 3.1687481,6.7052383 
																	"/>
							</g>
							<g id="f3ebc140-acaa-486d-b4ad-dba34d1e2033">
								<polygon opacity="0.41" fill="#0C080F" enable-background="new    " points="28.8945122,9.4548378 30.4872494,9.4548378 
									32.0000992,6.9664879 30.5811958,4.5721822 28.8945122,4.5721822 30.3134155,6.9664879 								"/>
								
									<linearGradient id="SVGID_19_" gradientUnits="userSpaceOnUse" x1="-285.4814758" y1="10.7283697" x2="-286.5143433" y2="4.5311604" gradientTransform="matrix(1 0 0 -1 316.3389587 15.5184174)">
									<stop  offset="0" style="stop-color:#FFF0E6"/>
									<stop  offset="0.09497" style="stop-color:#DCAC8E"/>
									<stop  offset="0.29609" style="stop-color:#DCAC92"/>
									<stop  offset="0.48324" style="stop-color:#A76166"/>
									<stop  offset="1" style="stop-color:#C9A7A2"/>
								</linearGradient>
								
									<linearGradient id="SVGID_20_" gradientUnits="userSpaceOnUse" x1="-287.8713684" y1="7.8811874" x2="-284.7981567" y2="9.6554985" gradientTransform="matrix(1 0 0 -1 316.3389587 15.5184174)">
									<stop  offset="0" style="stop-color:#DCAC8E"/>
									<stop  offset="0.03631" style="stop-color:#BE9791"/>
									<stop  offset="0.39106" style="stop-color:#DCA58E"/>
									<stop  offset="0.56145" style="stop-color:#83596F"/>
									<stop  offset="0.7904999" style="stop-color:#EAC9AB"/>
									<stop  offset="1" style="stop-color:#C9A794"/>
								</linearGradient>
								<polygon fill="url(#SVGID_19_)" stroke="url(#SVGID_20_)" stroke-width="0.0989955" stroke-miterlimit="10" points="
									29.4578953,9.1525068 30.5811958,9.1525068 32.0000992,6.7581019 30.5811958,4.3637967 29.4578953,4.3637967 
									30.8767967,6.7581019 								"/>
							</g>
							<g id="a399eca0-9f74-436a-8832-f0b07f4fb4e7">
								<polygon opacity="0.41" fill="#0C080F" enable-background="new    " points="3.1056879,9.4548378 1.5129493,9.4548378 
									0.0001,6.9664879 1.4190025,4.5721822 3.1056879,4.5721822 1.6867853,6.9664879 								"/>
								
									<linearGradient id="SVGID_21_" gradientUnits="userSpaceOnUse" x1="10087.1337891" y1="10.7283621" x2="10086.1015625" y2="4.5311522" gradientTransform="matrix(-1 0 0 -1 10088.2763672 15.5184174)">
									<stop  offset="0" style="stop-color:#FFF0E6"/>
									<stop  offset="0.09497" style="stop-color:#DCAC8E"/>
									<stop  offset="0.29609" style="stop-color:#DCAC92"/>
									<stop  offset="0.48324" style="stop-color:#A76166"/>
									<stop  offset="1" style="stop-color:#C9A7A2"/>
								</linearGradient>
								
									<linearGradient id="SVGID_22_" gradientUnits="userSpaceOnUse" x1="10084.7441406" y1="7.8811703" x2="10087.8173828" y2="9.6555061" gradientTransform="matrix(-1 0 0 -1 10088.2763672 15.5184174)">
									<stop  offset="0" style="stop-color:#DCAC8E"/>
									<stop  offset="0.03631" style="stop-color:#BE9791"/>
									<stop  offset="0.39106" style="stop-color:#DCA58E"/>
									<stop  offset="0.56145" style="stop-color:#83596F"/>
									<stop  offset="0.7904999" style="stop-color:#EAC9AB"/>
									<stop  offset="1" style="stop-color:#C9A794"/>
								</linearGradient>
								<polygon fill="url(#SVGID_21_)" stroke="url(#SVGID_22_)" stroke-width="0.0989955" stroke-miterlimit="10" points="
									2.5423045,9.1525068 1.4190025,9.1525068 0.0001,6.7581019 1.4190025,4.3637967 2.5423045,4.3637967 1.123402,6.7581019 
																	"/>
							</g>
							<g id="a3ef15b4-b24f-492c-b4ca-9c2a975d91f5">
								<path opacity="0.31" fill="#160B0E" enable-background="new    " d="M26.7591362,7.1358085l-0.6899185,0.3607521
									l-0.3607483,0.6899123V8.1359301c0,0.0189533,0,0.0328512-0.0006313,0.0410643c0-0.010107,0-0.0290594-0.0006313-0.0562296
									c0,0.0271664,0,0.0454865,0.0006313,0.0562296c0.0006313,0.0006323,0.0006313,0.0006323,0,0.0012646v0.0069485
									l-0.3607502-0.6886458l-0.6892834-0.3607521l0.6892834-0.3607526l0.3613815-0.6899128l0.3607483,0.6899128
									L26.7591362,7.1358085z"/>
								
									<linearGradient id="SVGID_23_" gradientUnits="userSpaceOnUse" x1="25.4946594" y1="8.6465693" x2="25.4946594" y2="9.6574125" gradientTransform="matrix(1 0 0 -1 0 15.5184174)">
									<stop  offset="0" style="stop-color:#BA6744"/>
									<stop  offset="0.28858" style="stop-color:#D88B62"/>
									<stop  offset="0.56233" style="stop-color:#EDA578"/>
									<stop  offset="0.80752" style="stop-color:#FAB485"/>
									<stop  offset="1" style="stop-color:#FFBA8A"/>
								</linearGradient>
								<polygon fill="url(#SVGID_23_)" points="25.6682491,5.8610048 25.6682491,6.8718481 25.3210697,6.5245714 								"/>
								
									<linearGradient id="SVGID_24_" gradientUnits="userSpaceOnUse" x1="25.8418865" y1="8.6465693" x2="25.8418865" y2="9.6574125" gradientTransform="matrix(1 0 0 -1 0 15.5184174)">
									<stop  offset="0" style="stop-color:#FFBA8A"/>
									<stop  offset="0.19248" style="stop-color:#FAB485"/>
									<stop  offset="0.43767" style="stop-color:#EDA578"/>
									<stop  offset="0.71142" style="stop-color:#D88B62"/>
									<stop  offset="1" style="stop-color:#BA6744"/>
								</linearGradient>
								<polygon fill="url(#SVGID_24_)" points="26.0155239,6.5245714 25.6682491,6.8718481 25.6682491,5.8610048 								"/>
								<path fill="#FFBA8A" d="M25.6746979,6.8718624h-0.0128059C25.6703758,5.5322695,25.6661072,5.5158954,25.6746979,6.8718624z
									"/>
								
									<linearGradient id="SVGID_25_" gradientUnits="userSpaceOnUse" x1="25.4829407" y1="8.5346527" x2="25.736187" y2="7.2008934" gradientTransform="matrix(1 0 0 -1 0 15.5184174)">
									<stop  offset="0" style="stop-color:#BA6744"/>
									<stop  offset="0.02497" style="stop-color:#BF6C49"/>
									<stop  offset="0.1741" style="stop-color:#D68960"/>
									<stop  offset="0.33473" style="stop-color:#E89E73"/>
									<stop  offset="0.5104" style="stop-color:#F5AE80"/>
									<stop  offset="0.71234" style="stop-color:#FDB788"/>
									<stop  offset="1" style="stop-color:#FFBA8A"/>
								</linearGradient>
								<polygon fill="url(#SVGID_25_)" points="25.6682491,7.8826909 25.6682491,6.8718481 25.3210697,7.2191238 								"/>
								
									<linearGradient id="SVGID_26_" gradientUnits="userSpaceOnUse" x1="25.8418865" y1="-9215.6865234" x2="25.8418865" y2="-9214.6757812" gradientTransform="matrix(1 0 0 1 0 9222.5585938)">
									<stop  offset="0" style="stop-color:#FFBA8A"/>
									<stop  offset="0.19248" style="stop-color:#FAB485"/>
									<stop  offset="0.43767" style="stop-color:#EDA578"/>
									<stop  offset="0.71142" style="stop-color:#D88B62"/>
									<stop  offset="1" style="stop-color:#BA6744"/>
								</linearGradient>
								<polygon fill="url(#SVGID_26_)" points="26.0155239,7.2191238 25.6682491,6.8718481 25.6682491,7.8826909 								"/>
								<path fill="#FFBA8A" d="M25.6746979,6.8718624h-0.0128059C25.6703758,8.2114544,25.6661072,8.2278299,25.6746979,6.8718624z
									"/>
								
									<linearGradient id="SVGID_27_" gradientUnits="userSpaceOnUse" x1="2199.0424805" y1="-11389.234375" x2="2199.0424805" y2="-11388.2236328" gradientTransform="matrix(6.123234e-17 1 1 -6.123234e-17 11414.9023438 -2192.3442383)">
									<stop  offset="0" style="stop-color:#FFDFB0"/>
									<stop  offset="0.37684" style="stop-color:#F7E7CE"/>
									<stop  offset="0.76261" style="stop-color:#F1EDE6"/>
									<stop  offset="1" style="stop-color:#EFEFEF"/>
								</linearGradient>
								<polygon fill="url(#SVGID_27_)" points="26.6791916,6.8718481 25.6683483,6.8718481 26.0155239,6.5245714 								"/>
								
									<linearGradient id="SVGID_28_" gradientUnits="userSpaceOnUse" x1="2199.3896484" y1="-11389.234375" x2="2199.3896484" y2="-11388.2236328" gradientTransform="matrix(6.123234e-17 1 1 -6.123234e-17 11414.9023438 -2192.3442383)">
									<stop  offset="0" style="stop-color:#BA6744"/>
									<stop  offset="0.28858" style="stop-color:#D88B62"/>
									<stop  offset="0.56233" style="stop-color:#EDA578"/>
									<stop  offset="0.80752" style="stop-color:#FAB485"/>
									<stop  offset="1" style="stop-color:#FFBA8A"/>
								</linearGradient>
								<polygon fill="url(#SVGID_28_)" points="26.0155239,7.2191238 25.6683483,6.8718481 26.6791916,6.8718481 								"/>
								<path fill="#FFBA8A" d="M25.6683369,6.8782263V6.8654189C26.9722271,6.8736777,27.0600204,6.8694086,25.6683369,6.8782263z"
									/>
								
									<linearGradient id="SVGID_29_" gradientUnits="userSpaceOnUse" x1="2199.0424805" y1="2182.1943359" x2="2199.0424805" y2="2183.2050781" gradientTransform="matrix(0 1 -1 0 2207.862793 -2192.3442383)">
									<stop  offset="0" style="stop-color:#FFDFB0"/>
									<stop  offset="0.37684" style="stop-color:#F7E7CE"/>
									<stop  offset="0.76261" style="stop-color:#F1EDE6"/>
									<stop  offset="1" style="stop-color:#EFEFEF"/>
								</linearGradient>
								<polygon fill="url(#SVGID_29_)" points="24.6575031,6.8718481 25.6683483,6.8718481 25.3210697,6.5245714 								"/>
								
									<linearGradient id="SVGID_30_" gradientUnits="userSpaceOnUse" x1="2199.3896484" y1="2182.1943359" x2="2199.3896484" y2="2183.2050781" gradientTransform="matrix(0 1 -1 0 2207.862793 -2192.3442383)">
									<stop  offset="0" style="stop-color:#FFBA8A"/>
									<stop  offset="0.19248" style="stop-color:#FAB485"/>
									<stop  offset="0.43767" style="stop-color:#EDA578"/>
									<stop  offset="0.71142" style="stop-color:#D88B62"/>
									<stop  offset="1" style="stop-color:#BA6744"/>
								</linearGradient>
								<polygon fill="url(#SVGID_30_)" points="25.3210697,7.2191238 25.6683483,6.8718481 24.6575031,6.8718481 								"/>
								<path fill="#FFBA8A" d="M25.6683369,6.8782263V6.8654189C24.3644466,6.8736777,24.2766552,6.8694086,25.6683369,6.8782263z"
									/>
								<path fill="#FFBA8A" d="M25.6746979,6.8718624h-0.0128059C25.6703758,5.5322695,25.6661072,5.5158954,25.6746979,6.8718624z
									"/>
								<path fill="#FFBA8A" d="M25.6682949,6.8654599v0.0128069C24.3644123,6.8700066,24.2766056,6.8742752,25.6682949,6.8654599z"
									/>
								<path fill="#FFBA8A" d="M25.6618919,6.8718624h0.0128059C25.6662121,8.2114544,25.6704807,8.2278299,25.6618919,6.8718624z"
									/>
								<path fill="#FFBA8A" d="M25.6682949,6.8782663V6.865459C27.0078773,6.8739452,27.0242767,6.8696756,25.6682949,6.8782663z"
									/>
							</g>
							<g id="a8882602-c1c0-44d5-ab12-ecabec3c3eb7">
								<path opacity="0.31" fill="#160B0E" enable-background="new    " d="M7.532392,7.1358085L6.8424711,7.4965606
									L6.4817319,8.1864729V8.1359301c0,0.0189533,0,0.0328512-0.0006332,0.0410643c0-0.010107,0-0.0290594-0.0006328-0.0562296
									c0,0.0271664,0,0.0454865,0.0006328,0.0562296c0.0006332,0.0006323,0.0006332,0.0006323,0,0.0012646v0.0069485
									L6.1203504,7.4965615L5.4310627,7.1358085l0.6892829-0.3607526l0.3613863-0.6899128l0.3607392,0.6899128L7.532392,7.1358085
									z"/>
								
									<linearGradient id="SVGID_31_" gradientUnits="userSpaceOnUse" x1="6.2679014" y1="8.6465693" x2="6.2679014" y2="9.6574125" gradientTransform="matrix(1 0 0 -1 0 15.5184174)">
									<stop  offset="0" style="stop-color:#BA6744"/>
									<stop  offset="0.28858" style="stop-color:#D88B62"/>
									<stop  offset="0.56233" style="stop-color:#EDA578"/>
									<stop  offset="0.80752" style="stop-color:#FAB485"/>
									<stop  offset="1" style="stop-color:#FFBA8A"/>
								</linearGradient>
								<polygon fill="url(#SVGID_31_)" points="6.4415398,5.8610048 6.4415398,6.8718481 6.0942631,6.5245714 								"/>
								
									<linearGradient id="SVGID_32_" gradientUnits="userSpaceOnUse" x1="6.6151776" y1="8.6465693" x2="6.6151776" y2="9.6574125" gradientTransform="matrix(1 0 0 -1 0 15.5184174)">
									<stop  offset="0" style="stop-color:#FFBA8A"/>
									<stop  offset="0.19248" style="stop-color:#FAB485"/>
									<stop  offset="0.43767" style="stop-color:#EDA578"/>
									<stop  offset="0.71142" style="stop-color:#D88B62"/>
									<stop  offset="1" style="stop-color:#BA6744"/>
								</linearGradient>
								<polygon fill="url(#SVGID_32_)" points="6.7888155,6.5245714 6.4415398,6.8718481 6.4415398,5.8610048 								"/>
								<path fill="#FFBA8A" d="M6.4479542,6.8718624H6.4351487C6.4436326,5.5322695,6.4393616,5.5158954,6.4479542,6.8718624z"/>
								
									<linearGradient id="SVGID_33_" gradientUnits="userSpaceOnUse" x1="6.2561827" y1="8.5346508" x2="6.5094275" y2="7.200891" gradientTransform="matrix(1 0 0 -1 0 15.5184174)">
									<stop  offset="0" style="stop-color:#BA6744"/>
									<stop  offset="0.02497" style="stop-color:#BF6C49"/>
									<stop  offset="0.1741" style="stop-color:#D68960"/>
									<stop  offset="0.33473" style="stop-color:#E89E73"/>
									<stop  offset="0.5104" style="stop-color:#F5AE80"/>
									<stop  offset="0.71234" style="stop-color:#FDB788"/>
									<stop  offset="1" style="stop-color:#FFBA8A"/>
								</linearGradient>
								<polygon fill="url(#SVGID_33_)" points="6.4415398,7.8826909 6.4415398,6.8718481 6.0942631,7.2191238 								"/>
								
									<linearGradient id="SVGID_34_" gradientUnits="userSpaceOnUse" x1="6.6151776" y1="-9215.6865234" x2="6.6151776" y2="-9214.6757812" gradientTransform="matrix(1 0 0 1 0 9222.5585938)">
									<stop  offset="0" style="stop-color:#FFBA8A"/>
									<stop  offset="0.19248" style="stop-color:#FAB485"/>
									<stop  offset="0.43767" style="stop-color:#EDA578"/>
									<stop  offset="0.71142" style="stop-color:#D88B62"/>
									<stop  offset="1" style="stop-color:#BA6744"/>
								</linearGradient>
								<polygon fill="url(#SVGID_34_)" points="6.7888155,7.2191238 6.4415398,6.8718481 6.4415398,7.8826909 								"/>
								<path fill="#FFBA8A" d="M6.4479542,6.8718624H6.4351487C6.4436326,8.2114544,6.4393616,8.2278299,6.4479542,6.8718624z"/>
								
									<linearGradient id="SVGID_35_" gradientUnits="userSpaceOnUse" x1="2199.0424805" y1="-11408.4609375" x2="2199.0424805" y2="-11407.4501953" gradientTransform="matrix(6.123234e-17 1 1 -6.123234e-17 11414.9023438 -2192.3442383)">
									<stop  offset="0" style="stop-color:#FFDFB0"/>
									<stop  offset="0.37684" style="stop-color:#F7E7CE"/>
									<stop  offset="0.76261" style="stop-color:#F1EDE6"/>
									<stop  offset="1" style="stop-color:#EFEFEF"/>
								</linearGradient>
								<polygon fill="url(#SVGID_35_)" points="7.4523826,6.8718481 6.4416385,6.8718481 6.7888155,6.5245714 								"/>
								
									<linearGradient id="SVGID_36_" gradientUnits="userSpaceOnUse" x1="2199.3896484" y1="-11408.4609375" x2="2199.3896484" y2="-11407.4501953" gradientTransform="matrix(6.123234e-17 1 1 -6.123234e-17 11414.9023438 -2192.3442383)">
									<stop  offset="0" style="stop-color:#BA6744"/>
									<stop  offset="0.28858" style="stop-color:#D88B62"/>
									<stop  offset="0.56233" style="stop-color:#EDA578"/>
									<stop  offset="0.80752" style="stop-color:#FAB485"/>
									<stop  offset="1" style="stop-color:#FFBA8A"/>
								</linearGradient>
								<polygon fill="url(#SVGID_36_)" points="6.7888155,7.2191238 6.4416385,6.8718481 7.4523826,6.8718481 								"/>
								<path fill="#FFBA8A" d="M6.4415917,6.8782263V6.8654189C7.7454824,6.8736777,7.8332734,6.8694086,6.4415917,6.8782263z"/>
								
									<linearGradient id="SVGID_37_" gradientUnits="userSpaceOnUse" x1="2199.0424805" y1="2201.4211426" x2="2199.0424805" y2="2202.4318848" gradientTransform="matrix(0 1 -1 0 2207.862793 -2192.3442383)">
									<stop  offset="0" style="stop-color:#FFDFB0"/>
									<stop  offset="0.37684" style="stop-color:#F7E7CE"/>
									<stop  offset="0.76261" style="stop-color:#F1EDE6"/>
									<stop  offset="1" style="stop-color:#EFEFEF"/>
								</linearGradient>
								<polygon fill="url(#SVGID_37_)" points="5.4307952,6.8718481 6.4416385,6.8718481 6.0942631,6.5245714 								"/>
								
									<linearGradient id="SVGID_38_" gradientUnits="userSpaceOnUse" x1="2199.3896484" y1="2201.4211426" x2="2199.3896484" y2="2202.4318848" gradientTransform="matrix(0 1 -1 0 2207.862793 -2192.3442383)">
									<stop  offset="0" style="stop-color:#FFBA8A"/>
									<stop  offset="0.19248" style="stop-color:#FAB485"/>
									<stop  offset="0.43767" style="stop-color:#EDA578"/>
									<stop  offset="0.71142" style="stop-color:#D88B62"/>
									<stop  offset="1" style="stop-color:#BA6744"/>
								</linearGradient>
								<polygon fill="url(#SVGID_38_)" points="6.0942631,7.2191238 6.4416385,6.8718481 5.4307952,6.8718481 								"/>
								<path fill="#FFBA8A" d="M6.4415917,6.8782263V6.8654189C5.1377015,6.8736777,5.0499101,6.8694086,6.4415917,6.8782263z"/>
								<path fill="#FFBA8A" d="M6.4479542,6.8718624H6.4351487C6.4436326,5.5322695,6.4393616,5.5158954,6.4479542,6.8718624z"/>
								<path fill="#FFBA8A" d="M6.4415503,6.8654599v0.0128069C5.1376696,6.8700066,5.0498605,6.8742752,6.4415503,6.8654599z"/>
								<path fill="#FFBA8A" d="M6.4351487,6.8718624h0.0128055C6.439467,8.2114544,6.4437361,8.2278299,6.4351487,6.8718624z"/>
								<path fill="#FFBA8A" d="M6.4415503,6.8782663V6.865459C7.7811346,6.8739452,7.797533,6.8696756,6.4415503,6.8782663z"/>
							</g>
						</g>
						<g id="e0dd9e23-f3e2-480c-8e57-b069c7ef470a">
							
								<linearGradient id="SVGID_39_" gradientUnits="userSpaceOnUse" x1="16.0127316" y1="12.0637894" x2="16.0127316" y2="2.8398824" gradientTransform="matrix(1 0 0 -1 0 15.5184174)">
								<stop  offset="0" style="stop-color:#0A081C"/>
								<stop  offset="0.8392299" style="stop-color:#0A081C;stop-opacity:0.4"/>
								<stop  offset="1" style="stop-color:#0A081C;stop-opacity:0.2"/>
							</linearGradient>
							<path opacity="0.34" fill="url(#SVGID_39_)" enable-background="new    " d="M12.5524406,4.0763216
								c-1.3652029,0.0045333-1.4827242,1.6276631-1.4478188,2.5078855
								c0.0349064,0.8802228,0.1636677,1.8601546,0.1812267,2.5631185c0.0175581,0.7029638,0.709733,1.0172186,1.4548302,1.3967018
								c0.5994759,0.3053169,0.1896362,0.9835205,0.2943544,1.261488c0.2094364,0,0.508913-0.002574,0.8043489-0.002574
								c1.1585875,0,5.2377682,0.0012875,5.2377682,0.0012875s0.3288555,0.0663433,0.8508339-0.739953
								c0.5076942-0.784236,0.4327183-2.2856674,0.4327183-2.8961401c0-0.5084167-0.0494976-1.3811421,0.074976-2.276897
								c0.1255627-0.9035916,0.879818-1.0528626,0.2282391-2.2573767c-0.651577-1.204514-2.6967602-1.1805215-2.6967602-1.1805215
								s-1.8116016-1.1854936-3.6327972-0.8304225C13.4494038,1.7954574,13.0687037,4.0746069,12.5524406,4.0763216z"/>
							<g opacity="0.77">
								
									<radialGradient id="SVGID_40_" cx="14.3343601" cy="9.02841" r="3.4153447" gradientTransform="matrix(1 0 0 -1 0 15.5184174)" gradientUnits="userSpaceOnUse">
									<stop  offset="0" style="stop-color:#0D1142"/>
									<stop  offset="1" style="stop-color:#0D1142;stop-opacity:0"/>
								</radialGradient>
								<circle fill="url(#SVGID_40_)" cx="14.3343601" cy="6.4900074" r="3.4153447"/>
							</g>
							<g opacity="0.77">
								
									<radialGradient id="SVGID_41_" cx="14.4938536" cy="6.7924204" r="3.415345" gradientTransform="matrix(1 0 0 -1 0 15.5184174)" gradientUnits="userSpaceOnUse">
									<stop  offset="0" style="stop-color:#3B1142"/>
									<stop  offset="1" style="stop-color:#0D1142;stop-opacity:0"/>
								</radialGradient>
								<circle fill="url(#SVGID_41_)" cx="14.4938536" cy="8.725997" r="3.415345"/>
							</g>
							<g opacity="0.77">
								
									<radialGradient id="SVGID_42_" cx="17.6507092" cy="9.0554724" r="3.415345" gradientTransform="matrix(1 0 0 -1 0 15.5184174)" gradientUnits="userSpaceOnUse">
									<stop  offset="0" style="stop-color:#3B1142"/>
									<stop  offset="1" style="stop-color:#0D1142;stop-opacity:0"/>
								</radialGradient>
								<circle fill="url(#SVGID_42_)" cx="17.6507092" cy="6.462945" r="3.415345"/>
							</g>
							<g opacity="0.77">
								
									<radialGradient id="SVGID_43_" cx="17.4032211" cy="6.7924204" r="3.415345" gradientTransform="matrix(1 0 0 -1 0 15.5184174)" gradientUnits="userSpaceOnUse">
									<stop  offset="0" style="stop-color:#3B1142"/>
									<stop  offset="1" style="stop-color:#0D1142;stop-opacity:0"/>
								</radialGradient>
								<circle fill="url(#SVGID_43_)" cx="17.4032211" cy="8.725997" r="3.415345"/>
							</g>
							<g id="aff7ff3a-33ee-4576-9dfe-99d2343998db">
								
									<linearGradient id="SVGID_44_" gradientUnits="userSpaceOnUse" x1="14.1738634" y1="14.388587" x2="18.8266525" y2="1.8161577" gradientTransform="matrix(1 0 0 -1 0 15.5184174)">
									<stop  offset="0" style="stop-color:#E5ACA9"/>
									<stop  offset="0.26213" style="stop-color:#F4D8E0"/>
									<stop  offset="0.47762" style="stop-color:#BD9396"/>
									<stop  offset="0.79829" style="stop-color:#D2A4B1"/>
									<stop  offset="1" style="stop-color:#DBABBD"/>
								</linearGradient>
								<path fill-rule="evenodd" clip-rule="evenodd" fill="url(#SVGID_44_)" d="M18.9147339,1.9547906l-0.0000267-0.0000207
									c-0.4037037-0.4883082-0.8574543-1.0371007-2.3446159-1.0371007c-1.6880264,0-2.5469818,0.7070585-2.6347904,1.5012985
									c-0.0177879,0.1607964-0.0359716,0.3013513-0.0546303,0.4456134
									c-0.0734987,0.5683146-0.1544323,1.1942024-0.2479572,3.3420644
									c-0.1172447,2.69311-0.0096445,4.8338847,0.1756716,5.4925561s0.6051207,0.8138638,1.053916,0.8138638
									s0.8198748-0.1843929,0.8198748-0.7362547c0-0.1543503-0.006115-0.312521-0.0121498-0.468585v-0.0000257
									c-0.0155478-0.4019918-0.0305176-0.7899628,0.0608759-1.061902
									c0.1269112-0.3775091,0.1853189-0.5135164,0.7219448-0.3975658c0.5366268,0.1159506,1.9409904,0.348731,2.0481415,0.271596
									c0,0,0.0728931,0.127285-0.2880917,0.2436609c-0.36096,0.1164017-0.4035473,0.1582499-0.4325352,0.3809872
									c-0.0289879,0.222765-0.0491734,0.8574533,0.0878353,1.0898104
									c0.1370087,0.2323294,0.5559196,0.3195057,0.8391628,0.3003464c0.2832451-0.0191841,0.6341114-0.068017,0.7417107-0.6878958
									c0.0299892-0.1728249,0.0697823-0.3682852,0.1128712-0.5798235V10.867362
									c0.1371269-0.6100807,0.2330666-1.2286949,0.2871685-1.8516521c0.0588474-0.9010429,0.0975113-2.9542184,0-3.2449741
									c-0.4196472,0.1035566-0.8472595,0.1716552-1.2783146,0.2035775
									c-0.8391857,0.0775847-1.932188,0.0383439-2.5667458-0.4167495
									c-0.6345568-0.4550934-0.6929579-1.1525555-0.6341105-1.7920411
									c0.0588465-0.6395109,0.097929-0.9516163,0.8343687-1.3513513c0.7754936-0.4215328,2.873682-0.2663465,2.873682-0.2663465
									C19.0228863,2.0855863,18.9692593,2.0207393,18.9147339,1.9547906z M16.5167255,2.7024195
									c-0.561059,0.2637982-0.5614805,0.8595533-0.561059,1.2213829c0.0004215,0.361855,0.0378428,1.3190036,1.2617903,1.4359584
									c1.2239208,0.1169553,1.9347439-0.039135,2.6261997-0.4300046c0.691452-0.3908443,0.712904-1.1699498,0.3928452-1.5335395
									c-0.654459-0.7425952-0.9863205-0.7768891-2.430212-0.8894429
									C17.8067169,2.5067687,17.0778141,2.4386191,16.5167255,2.7024195z M13.1807833,7.0361123
									c0.0010653-0.8992891,0.0476389-1.7979488,0.1395407-2.6925302l-0.8978052,0.0383706
									c-0.4116945,0.017313-0.4641504,0.3532901-0.5573359,0.9501104
									c-0.0090094,0.0577145-0.0183964,0.1178513-0.0285273,0.1803617c-0.1149263,0.7092423-0.1443071,2.4817309,0,3.4876046
									s1.4404745,0.8717899,1.4404745,0.8717899S13.1807833,8.5020332,13.1807833,7.0361123z"/>
							</g>
							<g opacity="0.75">
								
									<radialGradient id="SVGID_45_" cx="14.9778309" cy="12.6060925" r="1.5344303" gradientTransform="matrix(1 0 0 -1 0 15.5184174)" gradientUnits="userSpaceOnUse">
									<stop  offset="0" style="stop-color:#E6EEFF"/>
									<stop  offset="1" style="stop-color:#E6EEFF;stop-opacity:0"/>
								</radialGradient>
								<circle fill="url(#SVGID_45_)" cx="14.9778309" cy="2.9123247" r="1.5344303"/>
							</g>
							<g opacity="0.37">
								
									<radialGradient id="SVGID_46_" cx="14.9778309" cy="12.6060925" r="2.4253898" gradientTransform="matrix(1 0 0 -1 0 15.5184174)" gradientUnits="userSpaceOnUse">
									<stop  offset="0" style="stop-color:#E6EEFF"/>
									<stop  offset="1" style="stop-color:#E6EEFF;stop-opacity:0"/>
								</radialGradient>
								<circle fill="url(#SVGID_46_)" cx="14.9778309" cy="2.9123247" r="2.4253898"/>
							</g>
						</g>
					</g>
				</g>
			</g>
		</g>
	</g>
</g>
</svg>
