<?xml version="1.0" encoding="UTF-8" standalone="no"?>
<svg xmlns:ffdec="https://www.free-decompiler.com/flash" xmlns:xlink="http://www.w3.org/1999/xlink" ffdec:objectType="shape" height="20.5px" width="87.7px" xmlns="http://www.w3.org/2000/svg">
  <g transform="matrix(1.0, 0.0, 0.0, 1.0, 0.2, -573.15)">
    <path d="M3.5 573.15 L-0.2 576.85 -0.2 575.45 2.1 573.15 3.5 573.15 M0.5 573.15 L-0.2 573.85 -0.2 573.15 0.5 573.15 M76.0 593.65 L74.6 593.65 87.5 580.75 87.5 582.15 76.0 593.65 M87.5 589.75 L87.5 591.15 85.0 593.65 83.6 593.65 87.5 589.75 M87.5 592.75 L87.5 593.65 86.6 593.65 87.5 592.75 M87.5 586.75 L87.5 588.15 82.0 593.65 80.6 593.65 87.5 586.75 M87.5 583.75 L87.5 585.15 79.0 593.65 77.6 593.65 87.5 583.75 M65.1 573.15 L66.5 573.15 46.0 593.65 44.6 593.65 65.1 573.15 M86.1 573.15 L87.5 573.15 67.0 593.65 65.6 593.65 86.1 573.15 M87.5 574.75 L87.5 576.15 70.0 593.65 68.6 593.65 87.5 574.75 M87.5 577.75 L87.5 579.15 73.0 593.65 71.6 593.65 87.5 577.75 M77.1 573.15 L78.5 573.15 58.0 593.65 56.6 593.65 77.1 573.15 M80.1 573.15 L81.5 573.15 61.0 593.65 59.6 593.65 80.1 573.15 M83.1 573.15 L84.5 573.15 64.0 593.65 62.6 593.65 83.1 573.15 M71.1 573.15 L72.5 573.15 52.0 593.65 50.6 593.65 71.1 573.15 M74.1 573.15 L75.5 573.15 55.0 593.65 53.6 593.65 74.1 573.15 M68.1 573.15 L69.5 573.15 49.0 593.65 47.6 593.65 68.1 573.15 M62.1 573.15 L63.5 573.15 43.0 593.65 41.6 593.65 62.1 573.15 M56.1 573.15 L57.5 573.15 37.0 593.65 35.6 593.65 56.1 573.15 M59.1 573.15 L60.5 573.15 40.0 593.65 38.6 593.65 59.1 573.15 M50.1 573.15 L51.5 573.15 31.0 593.65 29.6 593.65 50.1 573.15 M47.1 573.15 L48.5 573.15 28.0 593.65 26.6 593.65 47.1 573.15 M53.1 573.15 L54.5 573.15 34.0 593.65 32.6 593.65 53.1 573.15 M35.1 573.15 L36.5 573.15 16.0 593.65 14.6 593.65 35.1 573.15 M44.1 573.15 L45.5 573.15 25.0 593.65 23.6 593.65 44.1 573.15 M41.1 573.15 L42.5 573.15 22.0 593.65 20.6 593.65 41.1 573.15 M38.1 573.15 L39.5 573.15 19.0 593.65 17.6 593.65 38.1 573.15 M26.1 573.15 L27.5 573.15 7.0 593.65 5.6 593.65 26.1 573.15 M29.1 573.15 L30.5 573.15 10.0 593.65 8.6 593.65 29.1 573.15 M32.1 573.15 L33.5 573.15 13.0 593.65 11.6 593.65 32.1 573.15 M23.1 573.15 L24.5 573.15 4.0 593.65 2.6 593.65 23.1 573.15 M20.1 573.15 L21.5 573.15 1.0 593.65 -0.2 593.65 -0.2 593.45 20.1 573.15 M17.1 573.15 L18.5 573.15 -0.2 591.85 -0.2 590.45 17.1 573.15 M8.1 573.15 L9.5 573.15 -0.2 582.85 -0.2 581.45 8.1 573.15 M14.1 573.15 L15.5 573.15 -0.2 588.85 -0.2 587.45 14.1 573.15 M11.1 573.15 L12.5 573.15 -0.2 585.85 -0.2 584.45 11.1 573.15 M-0.2 579.85 L-0.2 578.45 5.1 573.15 6.5 573.15 -0.2 579.85" fill="#0e1012" fill-rule="evenodd" stroke="none"/>
  </g>
</svg>
